<?xml version="1.0" standalone="no"?>
<!DOCTYPE svg PUBLIC "-//W3C//DTD SVG 20010904//EN"
 "http://www.w3.org/TR/2001/REC-SVG-20010904/DTD/svg10.dtd">
<svg version="1.0" xmlns="http://www.w3.org/2000/svg"
 width="299.000000pt" height="169.000000pt" viewBox="0 0 299.000000 169.000000"
 preserveAspectRatio="xMidYMid meet">

<g transform="translate(0.000000,169.000000) scale(0.100000,-0.100000)"
fill="#000000" stroke="none">
<path d="M1090 1365 l0 -325 153 0 c83 0 169 4 190 9 21 5 37 5 37 0 0 -5 5
-9 11 -9 5 0 7 5 4 10 -5 9 15 15 37 11 4 0 5 6 2 14 -4 8 -1 15 4 15 6 0 13
-12 15 -27 l4 -28 2 26 c1 25 5 27 59 33 81 10 98 16 81 28 -11 7 -9 8 5 4 11
-4 52 -4 93 0 l73 7 0 273 c0 151 -4 274 -8 274 -5 0 -63 -16 -130 -36 -138
-40 -200 -43 -118 -6 27 12 58 22 70 22 11 1 32 7 46 15 22 13 -5 14 -235 15
l-260 0 -10 -22 c-12 -28 -65 -39 -65 -14 0 9 -7 16 -16 16 -8 0 -12 5 -9 10
3 6 -3 10 -14 10 -21 0 -21 -4 -21 -325z m415 285 c3 -5 1 -10 -4 -10 -6 0
-11 5 -11 10 0 6 2 10 4 10 3 0 8 -4 11 -10z m-250 -60 c3 -5 1 -10 -5 -10 -7
0 -10 -6 -7 -12 2 -7 10 -12 16 -10 17 3 13 -16 -6 -27 -23 -12 -17 -17 30
-24 36 -6 37 -5 37 24 0 37 18 38 22 2 3 -24 8 -28 33 -28 23 0 30 4 30 20 -1
11 4 23 10 27 5 4 0 8 -12 8 -40 0 -25 17 21 23 40 6 68 4 156 -9 29 -5 32 -7
17 -16 -16 -8 -16 -11 -4 -21 8 -7 18 -25 21 -41 6 -23 4 -27 -8 -23 -16 6
-26 -15 -31 -67 -4 -39 -6 -41 -16 -17 -6 14 -15 21 -24 18 -11 -5 -15 7 -18
56 -3 53 -4 48 -7 -33 -1 -52 -5 -83 -7 -67 -4 23 -9 27 -38 27 -18 0 -36 -6
-38 -12 -3 -7 -6 -3 -6 10 -1 19 -7 22 -38 23 -33 0 -35 1 -15 9 16 7 22 18
22 39 0 21 -4 29 -13 25 -15 -5 -44 -72 -39 -88 2 -5 -3 -13 -10 -17 -11 -7
-11 -9 0 -9 7 0 12 -8 10 -17 -3 -19 29 -24 70 -11 16 5 22 4 22 -7 0 -11 -14
-14 -55 -14 -44 1 -55 4 -55 18 0 14 -2 14 -11 1 -7 -11 -9 -8 -5 15 2 17 7
37 10 46 5 12 0 15 -26 13 -18 -1 -23 1 -10 3 12 2 20 9 17 14 -3 5 1 6 9 3
12 -5 16 1 16 24 0 32 -15 41 -57 34 -25 -5 -25 -4 -26 -105 -1 -37 -3 -64 -5
-58 -2 6 -12 6 -28 -1 -31 -14 -39 -6 -39 43 0 30 -3 39 -16 39 -14 0 -17 -13
-18 -82 -1 -45 -3 -84 -6 -86 -3 -3 -5 76 -5 176 l0 182 64 0 c36 0 68 -4 71
-10z m564 -114 c-9 -8 -10 -7 -5 7 3 10 7 31 8 45 1 22 2 21 5 -7 3 -19 -1
-38 -8 -45z m-33 17 c-10 -11 -37 -12 -30 -2 3 5 12 9 21 9 9 0 13 -3 9 -7z
m-296 -153 c0 -5 -4 -10 -10 -10 -5 0 -10 5 -10 10 0 6 5 10 10 10 6 0 10 -4
10 -10z m116 -32 c4 -7 4 -10 0 -6 -5 4 -18 3 -31 -2 -17 -6 -27 -5 -35 6 -11
12 -7 14 23 14 20 0 39 -6 43 -12z m-84 -40 c2 -14 15 -25 38 -33 l35 -12 -45
-6 c-100 -13 -297 -29 -330 -25 -23 2 -36 9 -38 20 -4 19 24 26 122 30 46 2
70 7 74 16 4 11 6 11 13 0 6 -10 11 -9 22 6 9 12 19 16 27 11 11 -7 9 -10 -6
-16 -16 -6 -15 -8 9 -8 21 -1 27 4 27 19 0 29 47 28 52 -2z m-318 -20 c-7 -12
-44 -10 -44 2 0 5 11 9 24 8 14 -1 22 -6 20 -10z m-67 -150 c-2 -13 -4 -5 -4
17 -1 22 1 32 4 23 2 -10 2 -28 0 -40z"/>
<path d="M1197 1546 c-4 -9 -2 -16 4 -16 6 0 7 -4 4 -10 -3 -5 -1 -10 4 -10
13 0 14 20 2 38 -7 11 -9 11 -14 -2z"/>
<path d="M1443 1545 c-18 -20 -16 -45 3 -45 8 0 12 5 9 10 -8 13 8 13 22 -1 8
-8 13 -7 19 2 4 7 3 14 -4 17 -7 2 -12 10 -12 18 0 18 -21 17 -37 -1z"/>
<path d="M1540 1531 c0 -10 19 -25 25 -20 1 2 -3 10 -11 17 -8 7 -14 8 -14 3z"/>
<path d="M1146 1481 c-8 -13 7 -30 29 -32 6 0 18 -2 28 -4 9 -2 17 3 17 11 0
9 -11 14 -29 14 -16 0 -31 5 -33 12 -3 9 -6 9 -12 -1z"/>
<path d="M1430 1455 c0 -19 3 -34 8 -34 19 3 25 -2 12 -11 -12 -8 -11 -10 6
-10 16 0 21 7 22 39 2 22 -2 42 -8 46 -6 4 -10 -5 -10 -22 -1 -24 -2 -25 -11
-10 -5 9 -7 22 -4 27 3 6 1 10 -4 10 -6 0 -11 -16 -11 -35z"/>
<path d="M1493 1445 c0 -22 2 -30 4 -17 2 12 2 30 0 40 -3 9 -5 -1 -4 -23z"/>
<path d="M1537 1473 c-10 -10 -8 -53 2 -53 15 0 23 18 12 25 -6 3 -8 12 -4 20
5 16 1 20 -10 8z"/>
<path d="M1130 1434 c0 -14 3 -14 15 -4 8 7 15 14 15 16 0 2 -7 4 -15 4 -8 0
-15 -7 -15 -16z"/>
<path d="M1180 1375 c0 -14 5 -25 10 -25 6 0 10 11 10 25 0 14 -4 25 -10 25
-5 0 -10 -11 -10 -25z"/>
<path d="M204 1671 c-11 -11 -2 -30 11 -25 9 4 15 1 15 -7 0 -8 5 -6 13 5 8
11 23 17 38 14 24 -3 24 -4 26 -115 l2 -113 -29 0 c-25 0 -31 5 -39 33 l-9 32
-2 -35 -2 -35 -8 30 c-6 24 -8 26 -9 8 0 -13 -15 -36 -32 -53 -18 -16 -27 -30
-20 -30 23 0 11 -40 -14 -46 -14 -3 -25 -12 -25 -20 0 -7 -9 -18 -20 -24 -11
-6 -20 -18 -20 -28 0 -15 2 -15 11 -2 8 11 9 9 3 -10 -4 -14 -10 -27 -13 -30
-13 -10 -13 -73 1 -81 11 -7 10 -9 -1 -9 -24 0 -71 -52 -71 -77 l0 -23 440 0
440 0 0 24 0 25 -107 -5 -108 -5 34 18 c26 14 35 15 38 6 6 -18 28 -16 43 2
10 12 10 21 2 38 -17 34 -24 67 -15 67 4 0 9 18 11 40 2 40 -2 45 -38 41 -12
-2 -13 0 -1 7 7 6 10 15 7 21 -4 6 0 11 11 12 14 0 13 2 -6 10 -20 8 -21 12
-11 25 18 21 -1 39 -26 26 -36 -18 -39 -5 -39 143 l1 145 -160 1 c-89 0 -196
1 -239 2 -43 1 -80 0 -83 -2z m223 -193 c-2 -35 -3 -9 -3 57 0 66 1 94 3 63 2
-32 2 -86 0 -120z m85 24 c2 -45 0 -82 -4 -82 -5 0 -7 53 -6 118 1 121 6 107
10 -36z m158 53 c0 -52 -4 -95 -9 -95 -13 0 -20 48 -15 100 3 25 6 55 7 68 1
12 5 22 10 22 4 0 7 -43 7 -95z m-330 -30 c0 -58 -3 -105 -7 -105 -10 0 -16
164 -8 190 12 38 15 20 15 -85z m207 -42 c-2 -27 -3 -5 -3 47 0 52 1 74 3 48
2 -27 2 -69 0 -95z m-170 30 c-2 -21 -4 -6 -4 32 0 39 2 55 4 38 2 -18 2 -50
0 -70z m223 -3 c0 -53 -4 -90 -10 -90 -5 0 -10 20 -10 44 0 48 11 136 16 136
2 0 4 -40 4 -90z m-33 -27 c-2 -21 -4 -4 -4 37 0 41 2 58 4 38 2 -21 2 -55 0
-75z m-120 0 c-2 -21 -4 -6 -4 32 0 39 2 55 4 38 2 -18 2 -50 0 -70z m40 -25
c-2 -24 -4 -5 -4 42 0 47 2 66 4 43 2 -24 2 -62 0 -85z m40 85 c-3 -10 -5 -4
-5 12 0 17 2 24 5 18 2 -7 2 -21 0 -30z m-130 -5 c-3 -7 -5 -2 -5 12 0 14 2
19 5 13 2 -7 2 -19 0 -25z m230 -30 c-3 -8 -6 -5 -6 6 -1 11 2 17 5 13 3 -3 4
-12 1 -19z m-389 -110 c-2 -6 -11 -13 -19 -16 -11 -3 -11 -1 1 8 12 9 10 11
-12 7 -15 -2 -25 0 -22 4 8 14 56 11 52 -3z m49 -4 c-3 -3 -12 -4 -19 -1 -8 3
-5 6 6 6 11 1 17 -2 13 -5z m146 -1 c-7 -2 -19 -2 -25 0 -7 3 -2 5 12 5 14 0
19 -2 13 -5z m-203 -54 c0 -24 -23 -21 -28 4 -2 10 3 17 12 17 10 0 16 -9 16
-21z m200 6 c0 -9 -6 -12 -16 -8 -13 5 -13 7 -2 14 17 11 18 11 18 -6z m283
-68 c-7 -4 -13 -14 -13 -22 0 -8 -4 -17 -10 -20 -6 -4 -10 11 -10 37 1 41 1
42 16 23 15 -20 16 -19 14 5 -4 47 3 65 9 25 4 -27 2 -43 -6 -48z m-326 67
c-3 -3 -12 -4 -19 -1 -8 3 -5 6 6 6 11 1 17 -2 13 -5z m83 -11 c0 -10 -4 -14
-8 -8 -4 6 -11 13 -16 18 -5 4 -2 7 7 7 10 0 17 -8 17 -17z m230 13 c0 -3 -4
-8 -10 -11 -5 -3 -10 -1 -10 4 0 6 5 11 10 11 6 0 10 -2 10 -4z m-516 -32 c25
-9 19 -24 -9 -24 -24 0 -32 10 -18 23 8 8 8 8 27 1z m123 -20 c-3 -3 -12 -4
-19 -1 -8 3 -5 6 6 6 11 1 17 -2 13 -5z m341 -25 c-2 -11 -7 -19 -12 -19 -5 1
-13 -4 -17 -12 -6 -9 -9 -6 -9 11 l0 24 -20 -23 c-13 -15 -24 -20 -32 -13 -7
5 -61 8 -120 8 -106 -1 -108 -1 -108 21 0 23 0 23 161 22 153 0 160 -1 157
-19z m-390 4 c-10 -2 -26 -2 -35 0 -10 3 -2 5 17 5 19 0 27 -2 18 -5z m490
-54 c27 -1 27 -1 -3 -9 -22 -5 -24 -8 -9 -9 30 -2 26 -45 -5 -49 -13 -2 -28 1
-34 7 -8 8 -8 11 1 11 7 0 12 5 12 11 0 5 -4 8 -9 5 -5 -3 -12 1 -15 10 -4 11
-2 15 8 11 7 -3 13 0 13 6 0 7 1 21 3 32 2 18 3 18 7 -2 3 -17 12 -23 31 -24z
m-461 -26 c-3 -10 -5 -4 -5 12 0 17 2 24 5 18 2 -7 2 -21 0 -30z m283 15 c43
3 50 1 51 -15 1 -16 2 -16 6 0 7 28 23 19 23 -13 l0 -30 -160 0 c-100 0 -160
4 -160 10 0 6 8 11 18 11 16 1 16 2 0 6 -33 8 -20 33 17 33 24 0 35 -5 35 -15
0 -8 -6 -15 -12 -15 -9 0 -8 -4 2 -10 11 -7 16 -4 20 13 4 15 15 23 34 25 18
2 26 0 21 -7 -4 -7 4 -11 19 -11 18 0 26 6 27 18 0 9 2 13 5 7 2 -5 26 -8 54
-7z m-453 -20 c-3 -8 -6 -5 -6 6 -1 11 2 17 5 13 3 -3 4 -12 1 -19z m83 13 c0
-5 -7 -11 -15 -15 -9 -3 -15 0 -15 9 0 8 7 15 15 15 8 0 15 -4 15 -9z m49 -3
c11 -10 13 -10 7 0 -4 6 -2 12 4 12 23 0 3 -25 -23 -28 -26 -3 -35 7 -20 21 9
10 17 9 32 -5z m-149 -2 c0 -3 -4 -8 -10 -11 -5 -3 -10 -1 -10 4 0 6 5 11 10
11 6 0 10 -2 10 -4z m165 -36 c-6 -10 -95 -9 -95 1 0 4 23 7 50 7 28 1 48 -3
45 -8z m385 -71 c0 -7 -112 -19 -172 -19 -38 0 -53 16 -21 22 30 6 193 3 193
-3z m-273 -5 c-3 -3 -12 -4 -19 -1 -8 3 -5 6 6 6 11 1 17 -2 13 -5z"/>
<path d="M428 1173 c7 -3 16 -2 19 1 4 3 -2 6 -13 5 -11 0 -14 -3 -6 -6z"/>
<path d="M2080 1576 c0 -74 4 -106 13 -109 10 -4 10 -6 0 -6 -9 -1 -13 -26
-13 -89 l0 -88 41 4 c40 4 42 3 36 -19 -4 -13 -7 -27 -7 -31 0 -5 -11 -8 -25
-8 -18 0 -25 -5 -25 -19 0 -11 -6 -21 -12 -24 -10 -4 -10 -7 0 -18 6 -7 12
-35 12 -61 0 -46 1 -48 28 -48 36 -1 225 -1 440 0 126 1 172 4 172 13 0 8 3 8
9 -1 12 -20 66 -11 65 11 -2 21 -1 21 38 1 43 -22 88 -35 88 -24 0 5 -20 16
-45 26 -25 9 -44 19 -42 21 2 2 34 -8 70 -22 l67 -25 0 74 c0 69 -2 75 -22 79
l-23 4 23 2 c20 1 22 6 22 50 l0 49 -80 7 c-67 6 -79 9 -69 21 6 8 19 14 28
14 9 0 22 5 27 10 17 17 74 0 74 -21 0 -11 5 -19 10 -19 6 0 10 39 10 96 l0
97 -40 -6 c-23 -3 -38 -1 -34 4 3 5 21 9 40 9 19 0 34 5 34 10 0 6 -8 10 -17
10 -17 1 -17 1 0 11 13 8 17 23 17 64 l0 55 -169 0 c-117 0 -178 -4 -200 -13
-17 -7 -28 -17 -24 -21 5 -5 -2 -5 -14 -2 -12 4 -24 2 -28 -4 -3 -5 -17 -8
-31 -5 -86 18 -81 15 -60 31 17 12 -5 14 -182 14 l-202 0 0 -104z m875 45 l20
-8 -20 -6 c-64 -18 -166 -30 -176 -20 -8 8 6 14 47 23 33 6 64 13 69 15 16 6
39 4 60 -4z m-511 -10 c18 -7 16 -9 -14 -19 -63 -22 -123 -11 -78 15 26 14 63
16 92 4z m311 -31 c8 -13 -5 -13 -25 0 -13 8 -13 10 2 10 9 0 20 -4 23 -10z
m-50 -9 c16 -7 14 -9 -14 -14 -48 -10 -91 -9 -91 2 0 5 12 12 28 14 43 6 56 6
77 -2z m-360 -11 c-3 -5 -22 -10 -41 -10 -21 0 -33 4 -29 10 3 6 22 10 41 10
21 0 33 -4 29 -10z m-70 -16 c14 -6 10 -10 -16 -22 -19 -9 -43 -19 -54 -23
-19 -6 -18 -7 3 -8 13 -1 20 -5 17 -11 -8 -13 -55 -13 -75 0 -12 8 -10 10 8
10 13 0 20 4 17 10 -3 5 11 18 32 29 45 22 47 23 68 15z m285 -4 c-8 -5 -27
-10 -42 -10 -23 0 -28 -5 -28 -24 0 -20 4 -23 28 -19 19 3 23 2 13 -5 -11 -8
-10 -12 7 -21 11 -6 27 -8 35 -5 8 3 18 1 21 -4 3 -6 -20 -10 -59 -10 -42 0
-65 4 -65 12 0 6 -5 4 -10 -4 -9 -13 -11 -13 -20 0 -6 10 -10 11 -10 3 0 -9
-16 -13 -46 -13 -66 0 -57 19 26 56 19 9 51 24 70 35 36 20 109 28 80 9z m325
0 c-3 -5 -26 -10 -49 -10 -63 0 -111 -11 -94 -21 8 -6 -2 -9 -28 -9 -22 0 -49
7 -60 15 -17 13 -15 14 36 15 30 1 73 5 95 9 58 12 107 13 100 1z m-267 -27
c-10 -2 -28 -2 -40 0 -13 2 -5 4 17 4 22 1 32 -1 23 -4z m229 1 c-3 -3 -12 -4
-19 -1 -8 3 -5 6 6 6 11 1 17 -2 13 -5z m-497 -14 c-14 -4 -34 -8 -45 -8 -16
0 -15 2 5 8 14 4 34 8 45 8 16 0 15 -2 -5 -8z m457 4 c-3 -3 -12 -4 -19 -1 -8
3 -5 6 6 6 11 1 17 -2 13 -5z m-530 -30 c-3 -3 -12 -4 -19 -1 -8 3 -5 6 6 6
11 1 17 -2 13 -5z m56 -14 c-4 -16 -14 -20 -46 -20 -44 0 -45 10 -1 15 16 1
30 8 32 14 7 20 20 12 15 -9z m301 -8 c3 -5 -1 -9 -9 -9 -8 0 -12 4 -9 9 3 4
7 8 9 8 2 0 6 -4 9 -8z m64 -3 c-2 -6 -8 -10 -13 -10 -5 0 -11 4 -13 10 -2 6
4 11 13 11 9 0 15 -5 13 -11z m-288 -29 c0 -5 -2 -10 -4 -10 -3 0 -8 5 -11 10
-3 6 -1 10 4 10 6 0 11 -4 11 -10z m170 0 c0 -5 -5 -10 -11 -10 -5 0 -7 5 -4
10 3 6 8 10 11 10 2 0 4 -4 4 -10z m250 -45 c0 -8 -5 -15 -11 -15 -7 0 -9 -10
-7 -24 6 -28 -8 -37 -37 -25 -11 4 -14 8 -7 8 7 1 10 6 7 11 -3 6 1 10 9 10 9
0 15 3 14 8 -2 12 14 42 23 42 5 0 9 -7 9 -15z m-400 -26 c0 -30 -1 -30 -48
-28 -26 1 -53 -1 -60 -5 -8 -5 -12 2 -12 23 0 32 19 44 21 14 1 -17 2 -17 6 0
5 18 23 24 23 7 0 -5 3 -9 8 -9 19 3 26 -2 12 -11 -12 -7 -10 -9 8 -7 12 1 21
6 18 13 -4 10 11 34 21 34 2 0 3 -14 3 -31z m30 4 c0 -23 2 -25 11 -13 9 13
10 13 6 0 -7 -26 -32 -17 -35 13 -2 15 1 27 7 27 6 0 11 -12 11 -27z m87 10
c2 -6 -8 -10 -22 -10 -24 0 -32 7 -19 19 8 9 37 3 41 -9z m73 1 c0 -7 -8 -10
-20 -7 -11 3 -20 9 -20 14 0 4 9 7 20 6 11 -1 20 -7 20 -13z m37 -16 c-3 -7
-5 -2 -5 12 0 14 2 19 5 13 2 -7 2 -19 0 -25z m-419 -23 c2 -57 8 -68 39 -62
15 3 22 0 20 -7 -2 -6 -20 -12 -40 -13 l-37 -1 0 64 c0 72 17 89 18 19z m-121
-21 c-3 -3 -12 -4 -19 -1 -8 3 -5 6 6 6 11 1 17 -2 13 -5z m254 -69 c5 4 9 -1
9 -9 0 -25 -16 -27 -36 -4 -11 12 -13 18 -6 14 8 -5 12 3 14 31 l1 38 4 -38
c2 -20 8 -35 14 -32z m253 24 c-15 -17 -15 -19 -1 -19 8 0 17 6 20 13 3 9 10
7 23 -6 26 -25 15 -30 -128 -58 -119 -23 -146 -21 -156 9 -2 8 6 10 27 6 20
-4 31 -2 31 4 0 7 -7 9 -17 5 -10 -4 -14 -2 -10 4 4 6 4 13 0 16 -5 2 -2 2 5
1 7 -2 24 1 39 7 22 8 30 7 39 -6 9 -12 13 -13 17 -2 6 15 83 41 97 32 6 -3
10 1 10 10 0 9 5 13 11 10 7 -5 4 -14 -7 -26z m256 -19 c20 -6 21 -8 5 -8 -11
0 -29 3 -40 8 -25 11 1 11 35 0z m57 -16 c-3 -3 -12 -4 -19 -1 -8 3 -5 6 6 6
11 1 17 -2 13 -5z m-122 -24 c-27 -12 -43 -12 -25 0 8 5 22 9 30 9 10 0 8 -3
-5 -9z m-94 -72 c16 -6 28 -13 25 -16 -3 -3 -23 3 -44 12 -35 16 -38 20 -33
49 l4 32 9 -33 c7 -24 17 -36 39 -44z m-5 -32 c10 -8 16 -17 13 -20 -3 -4 -17
2 -30 13 -27 23 -13 28 17 7z"/>
<path d="M231 1604 c0 -11 3 -14 6 -6 3 7 2 16 -1 19 -3 4 -6 -2 -5 -13z"/>
<path d="M222 1571 c-10 -6 -10 -10 1 -20 12 -9 16 -8 20 3 7 19 -4 27 -21 17z"/>
<path d="M982 1440 c0 -14 2 -19 5 -12 2 6 2 18 0 25 -3 6 -5 1 -5 -13z"/>
<path d="M1980 1435 c0 -23 -4 -25 -45 -25 l-45 0 0 -50 0 -50 44 0 c39 0 45
-3 48 -22 3 -20 7 -18 42 25 l38 47 -38 50 c-21 27 -39 50 -41 50 -2 0 -3 -11
-3 -25z"/>
<path d="M762 1420 c0 -14 2 -19 5 -12 2 6 2 18 0 25 -3 6 -5 1 -5 -13z"/>
<path d="M797 1433 c-4 -3 -7 -11 -7 -17 0 -6 5 -5 12 2 6 6 9 14 7 17 -3 3
-9 2 -12 -2z"/>
<path d="M974 1392 c18 -21 29 -23 27 -5 -1 4 -4 8 -8 8 -5 0 -15 4 -23 9 -9
6 -7 1 4 -12z"/>
<path d="M891 1363 l-1 -43 44 0 c39 0 45 -3 48 -24 3 -21 7 -18 41 28 22 28
28 39 14 24 -19 -21 -28 -24 -38 -15 -11 10 -11 9 -1 -4 6 -9 9 -19 5 -22 -3
-4 -12 1 -19 11 -9 13 -22 17 -43 14 -26 -4 -31 -1 -36 24 -11 49 -13 50 -14
7z"/>
<path d="M798 1383 c7 -3 16 -2 19 1 4 3 -2 6 -13 5 -11 0 -14 -3 -6 -6z"/>
<path d="M833 1313 c9 -2 23 -2 30 0 6 3 -1 5 -18 5 -16 0 -22 -2 -12 -5z"/>
<path d="M23 1283 c9 -2 23 -2 30 0 6 3 -1 5 -18 5 -17 0 -22 -2 -12 -5z"/>
<path d="M2560 905 c0 -122 0 -125 -22 -125 -19 0 -16 -7 27 -50 l49 -50 49
47 c42 42 45 48 28 51 -20 3 -21 10 -21 128 l0 124 -55 0 -55 0 0 -125z"/>
<path d="M1870 951 c-5 -11 -10 -54 -10 -96 0 -80 11 -115 35 -115 24 0 35 36
35 119 0 59 -4 84 -16 95 -20 21 -31 20 -44 -3z m38 -102 c-2 -41 -7 -74 -13
-74 -11 0 -20 129 -10 153 13 35 26 -9 23 -79z"/>
<path d="M282 866 c-14 -115 -14 -116 -2 -116 6 0 10 9 10 20 0 11 6 20 14 20
7 0 16 -9 19 -20 3 -11 9 -20 14 -20 6 0 6 30 1 73 -12 113 -18 137 -32 137
-9 0 -16 -30 -24 -94z m34 -42 c-12 -31 -21 -4 -17 48 l4 53 9 -43 c5 -24 7
-50 4 -58z"/>
<path d="M360 923 c0 -89 13 -173 26 -173 9 0 14 11 14 28 0 15 4 45 8 67 7
39 7 38 12 -24 6 -81 26 -93 34 -19 14 139 15 158 6 158 -6 0 -10 -13 -10 -29
0 -15 -3 -50 -7 -77 l-8 -49 -5 74 c-3 47 -10 76 -17 79 -9 2 -13 -11 -14 -45
-2 -85 -17 -107 -18 -25 -1 41 -5 72 -11 72 -5 0 -10 -17 -10 -37z"/>
<path d="M497 923 c-16 -98 -20 -186 -9 -179 7 4 12 16 12 27 0 10 7 19 15 19
8 0 15 -9 15 -20 0 -11 5 -20 11 -20 11 0 7 93 -8 178 -7 44 -29 41 -36 -5z
m25 -55 c4 -38 2 -48 -9 -48 -11 0 -14 7 -9 23 3 12 6 35 6 51 0 42 7 29 12
-26z"/>
<path d="M570 855 l0 -105 30 0 c17 0 30 5 30 10 0 6 -9 10 -20 10 -19 0 -20
7 -20 95 0 57 -4 95 -10 95 -6 0 -10 -42 -10 -105z"/>
<path d="M680 855 c0 -119 19 -149 21 -32 l2 72 9 -72 c6 -40 14 -73 18 -73 5
0 11 26 15 58 10 90 13 93 14 15 0 -41 5 -73 11 -73 6 0 10 42 10 105 0 82 -3
105 -14 105 -15 0 -26 -42 -26 -97 0 -20 -4 -32 -10 -28 -5 3 -10 33 -10 66 0
52 -2 59 -20 59 -19 0 -20 -7 -20 -105z"/>
<path d="M802 859 c3 -86 6 -104 21 -113 33 -20 47 16 47 121 0 121 -18 122
-22 1 -2 -54 -7 -93 -13 -93 -6 0 -11 39 -13 93 -2 52 -7 92 -13 92 -6 0 -9
-39 -7 -101z"/>
<path d="M890 855 l0 -105 30 0 c17 0 30 5 30 10 0 6 -9 10 -20 10 -19 0 -20
7 -20 95 0 57 -4 95 -10 95 -6 0 -10 -42 -10 -105z"/>
<path d="M976 913 c-17 -145 -18 -163 -7 -163 6 0 11 9 11 20 0 11 6 20 14 20
7 0 16 -9 19 -20 3 -11 9 -20 14 -20 7 0 -2 111 -17 208 0 1 -6 2 -14 2 -9 0
-16 -16 -20 -47z m28 -45 c6 -41 5 -48 -9 -48 -12 0 -15 5 -11 16 3 9 6 32 6
51 0 48 6 40 14 -19z"/>
<path d="M1086 908 c-3 -29 -6 -77 -6 -105 0 -52 0 -53 30 -53 33 0 41 15 11
23 -16 4 -18 14 -16 96 1 100 -9 121 -19 39z"/>
<path d="M1180 958 c-23 -151 -26 -253 -5 -188 3 11 13 20 21 20 8 0 14 -9 14
-20 0 -11 5 -20 11 -20 8 0 10 19 5 63 -13 124 -18 147 -32 147 -8 0 -14 -1
-14 -2z m20 -93 c0 -26 -5 -45 -11 -45 -7 0 -9 14 -5 38 3 20 5 40 6 45 0 4 2
7 5 7 3 0 5 -20 5 -45z"/>
<path d="M1250 855 c0 -63 4 -105 10 -105 6 0 10 23 10 51 0 66 24 62 28 -4 6
-90 22 -47 22 58 0 63 -4 105 -10 105 -5 0 -10 -20 -10 -45 0 -33 -4 -45 -15
-45 -11 0 -15 12 -15 45 0 25 -4 45 -10 45 -6 0 -10 -42 -10 -105z"/>
<path d="M1340 855 c0 -63 4 -105 10 -105 6 0 10 42 10 105 0 63 -4 105 -10
105 -6 0 -10 -42 -10 -105z"/>
<path d="M1380 855 c0 -63 4 -105 10 -105 6 0 10 21 10 46 0 59 24 55 28 -4 2
-23 7 -42 13 -42 11 0 12 70 0 89 -5 7 -4 25 2 40 5 15 7 40 3 54 -5 22 -12
27 -36 27 l-30 0 0 -105z m45 50 c0 -16 -6 -30 -12 -32 -9 -3 -13 7 -13 32 0
25 4 35 13 33 6 -3 12 -17 12 -33z"/>
<path d="M1470 855 c0 -63 4 -105 10 -105 6 0 10 32 11 73 l1 72 15 -72 c9
-40 19 -73 24 -73 5 0 8 48 7 108 -1 89 -2 97 -7 47 -7 -67 -15 -64 -25 8 -5
31 -12 47 -22 47 -11 0 -14 -20 -14 -105z"/>
<path d="M1560 948 c0 -7 4 -29 10 -48 5 -19 11 -59 14 -88 4 -59 16 -82 17
-36 1 43 8 94 19 134 12 43 12 50 1 50 -5 0 -12 -17 -16 -37 l-8 -38 -10 38
c-8 35 -27 52 -27 25z"/>
<path d="M1669 958 c-7 -20 -23 -208 -18 -208 4 0 9 9 12 20 3 11 12 20 21 20
9 0 16 -8 16 -20 0 -11 5 -20 11 -20 7 0 9 14 5 43 -3 23 -8 70 -12 105 -5 43
-11 62 -20 62 -8 0 -14 -1 -15 -2z m12 -141 c-8 -8 -11 2 -11 34 0 59 14 73
18 19 2 -24 -2 -48 -7 -53z"/>
<path d="M1770 855 c0 -63 4 -105 10 -105 6 0 10 18 10 40 0 22 4 40 9 40 5 0
12 -18 16 -40 4 -22 11 -40 17 -40 7 0 7 16 2 48 -10 60 -11 100 -1 135 12 45
-11 31 -25 -15 l-13 -43 -3 43 c-2 23 -7 42 -13 42 -5 0 -9 -46 -9 -105z"/>
<path d="M1950 855 c0 -59 4 -105 9 -105 6 0 10 23 9 51 0 28 3 53 6 56 3 4 6
-12 6 -35 0 -22 3 -47 6 -56 12 -31 24 -15 25 32 1 79 17 97 18 20 1 -40 5
-68 11 -68 7 0 9 36 6 103 -5 120 -2 107 -21 107 -11 0 -15 -12 -16 -47 -1
-27 -5 -59 -9 -73 -7 -23 -8 -22 -9 10 -2 65 -13 110 -27 110 -11 0 -14 -23
-14 -105z"/>
<path d="M2070 856 c0 -64 4 -106 10 -106 6 0 10 20 10 44 0 36 4 45 21 49 18
5 20 12 17 59 -3 50 -5 53 -30 56 l-28 3 0 -105z m40 44 c0 -16 -4 -32 -10
-35 -6 -4 -10 10 -10 35 0 25 4 39 10 35 6 -3 10 -19 10 -35z"/>
<path d="M2150 866 c0 -73 4 -98 16 -110 8 -9 17 -16 19 -16 2 0 11 7 19 16
12 12 16 37 16 110 0 56 -4 94 -10 94 -6 0 -10 -39 -10 -96 0 -72 -3 -95 -12
-92 -9 3 -14 34 -16 96 -4 122 -22 120 -22 -2z"/>
<path d="M2230 950 c0 -5 7 -10 15 -10 12 0 15 -17 15 -95 0 -57 4 -95 10 -95
6 0 10 38 10 95 0 57 4 95 10 95 6 0 10 5 10 10 0 6 -16 10 -35 10 -19 0 -35
-4 -35 -10z"/>
<path d="M2320 855 l0 -105 30 0 c34 0 40 15 10 23 -15 4 -20 14 -20 41 0 25
4 36 15 36 8 0 15 5 15 10 0 6 -7 10 -15 10 -10 0 -15 11 -15 35 0 28 4 35 20
35 11 0 20 5 20 10 0 6 -13 10 -30 10 l-30 0 0 -105z"/>
<path d="M2400 855 c0 -63 4 -105 10 -105 6 0 10 21 10 46 0 59 24 55 28 -4 6
-78 21 -43 21 46 -2 115 -4 122 -40 122 l-29 0 0 -105z m48 44 c-5 -35 -28
-36 -28 -1 0 16 3 32 7 36 11 11 25 -10 21 -35z"/>
<path d="M15 608 c1 -24 3 -124 4 -223 l1 -180 126 3 125 4 -3 -43 c-2 -35 -7
-44 -23 -47 -53 -8 -68 -13 -58 -23 15 -15 245 -7 251 9 2 8 -10 12 -42 12
l-46 0 0 45 0 45 90 0 c98 0 90 5 94 -65 1 -17 5 -36 9 -42 10 -16 -8 -20
-123 -22 -58 0 -144 -4 -192 -7 -75 -6 -88 -9 -88 -24 0 -10 6 -20 13 -22 15
-6 447 11 467 18 11 4 6 10 -17 22 -31 17 -27 17 144 19 127 2 179 6 184 15
18 29 -39 46 -83 23 -17 -8 -32 -15 -33 -15 -1 0 -5 69 -9 153 -3 83 -9 194
-12 245 l-7 92 -84 0 c-49 0 -82 -4 -78 -9 3 -5 1 -13 -5 -16 -6 -4 -10 -3 -9
2 4 25 -4 25 -26 -2 -23 -28 -24 -29 -25 -7 0 12 -6 22 -12 22 -7 0 -119 14
-248 30 -309 39 -289 40 -285 -12z m703 -51 c2 -10 -3 -17 -12 -17 -10 0 -16
9 -16 21 0 24 23 21 28 -4z m-460 -20 c8 -6 12 -6 12 1 0 6 7 9 15 6 10 -4 15
-20 15 -50 0 -32 -4 -44 -15 -44 -10 0 -15 10 -15 34 0 18 -7 39 -15 46 -12
10 -15 9 -15 -5 0 -14 -8 -16 -44 -14 -24 2 -42 1 -39 -3 2 -5 17 -8 34 -8 22
0 29 -5 29 -20 0 -17 -6 -20 -40 -18 -22 1 -40 6 -40 11 0 5 11 7 25 5 14 -3
25 -1 25 3 0 5 -11 9 -25 9 -22 0 -25 4 -25 35 l0 36 53 -7 c28 -4 58 -11 65
-17z m-1 -69 c-3 -7 -5 -2 -5 12 0 14 2 19 5 13 2 -7 2 -19 0 -25z m211 -31
c-23 -20 -50 -39 -59 -42 -10 -3 -24 -16 -33 -29 -14 -22 -14 -25 0 -30 10 -4
13 -2 8 6 -5 7 0 9 14 6 12 -4 20 -3 17 1 -2 4 11 13 30 18 19 6 37 8 40 3 3
-4 -5 -10 -16 -13 -12 -3 -18 -10 -14 -16 3 -6 1 -11 -5 -11 -6 0 -8 -4 -5
-10 3 -5 15 -10 26 -10 12 0 19 -5 16 -12 -2 -7 5 -18 17 -25 17 -10 4 -12
-81 -13 l-103 0 -1 58 c-1 31 -3 49 -6 40 -3 -13 -15 -18 -44 -18 -36 0 -40 2
-37 22 3 20 8 22 46 20 41 -3 42 -3 42 28 0 17 4 29 8 26 13 -8 107 16 115 30
4 7 21 12 38 11 l30 -2 -43 -38z m-295 -14 c-7 -2 -19 -2 -25 0 -7 3 -2 5 12
5 14 0 19 -2 13 -5z m97 -3 c0 -5 -4 -10 -10 -10 -5 0 -10 5 -10 10 0 6 5 10
10 10 6 0 10 -4 10 -10z m270 -116 c0 -2 -7 -4 -15 -4 -8 0 -15 4 -15 10 0 5
7 7 15 4 8 -4 15 -8 15 -10z"/>
<path d="M361 407 c-1 -21 21 -18 27 4 3 12 2 12 -6 0 -8 -11 -10 -11 -15 0
-4 10 -6 8 -6 -4z"/>
<path d="M1478 625 c4 -21 1 -25 -21 -25 -13 0 -44 7 -67 15 -23 8 -45 15 -48
15 -2 0 -3 -64 -1 -142 l4 -143 -60 -5 -60 -5 45 -8 45 -7 2 -70 c2 -38 -2
-72 -7 -75 -6 -4 -10 17 -10 54 0 34 -4 61 -9 61 -5 0 -7 -9 -4 -20 3 -11 0
-20 -6 -20 -6 0 -8 -7 -4 -17 5 -12 3 -14 -8 -9 -8 4 -5 0 6 -10 16 -13 17
-16 3 -11 -10 3 -20 2 -23 -4 -4 -5 -11 -6 -17 -3 -6 4 -5 10 3 16 10 7 9 8
-5 4 -22 -7 -49 11 -39 27 4 6 0 8 -9 5 -11 -5 -14 0 -10 18 3 17 0 24 -12 24
-10 0 -16 9 -16 25 0 25 7 29 47 25 20 -1 21 1 10 24 -13 27 -27 34 -27 14 0
-9 -3 -9 -12 0 -7 7 -22 12 -35 12 -22 0 -23 -3 -23 -90 0 -50 3 -89 8 -88 4
1 31 -13 60 -32 36 -23 49 -36 40 -41 -7 -5 -13 -17 -14 -27 -1 -21 -32 -72
-44 -72 -5 0 -12 10 -16 23 -4 12 -13 31 -20 42 -13 17 -14 13 -14 -43 l0 -62
385 0 385 0 2 158 c2 86 2 232 0 325 l-3 167 -162 0 -163 0 -2 -37 c-2 -21 -4
-39 -6 -40 -1 -2 -16 2 -33 7 -25 9 -29 15 -25 40 2 17 0 30 -5 30 -6 0 -8
-11 -5 -25z m185 -82 c-7 -2 -21 -2 -30 0 -10 3 -4 5 12 5 17 0 24 -2 18 -5z
m-258 -13 c3 -5 1 -10 -4 -10 -6 0 -11 5 -11 10 0 6 2 10 4 10 3 0 8 -4 11
-10z m43 -43 c3 -34 1 -37 -22 -37 -30 0 -35 8 -25 40 7 24 7 24 8 3 1 -28 17
-30 24 -3 3 11 1 20 -4 20 -5 0 -9 5 -9 11 0 6 6 9 13 7 6 -3 13 -21 15 -41z
m33 14 c7 11 9 10 9 -4 0 -10 -6 -24 -13 -32 -12 -11 -14 -7 -14 23 0 21 2 28
4 18 4 -15 7 -16 14 -5z m169 -52 c0 -21 5 -39 10 -39 6 0 10 6 11 13 0 9 2 9
6 -1 2 -6 8 -10 12 -8 10 7 2 -54 -11 -80 -8 -18 -13 -20 -34 -10 -26 12 -30
40 -18 129 8 55 24 53 24 -4z m-40 -54 c0 -36 -3 -65 -7 -65 -5 0 -6 29 -5 65
2 36 6 65 8 65 2 0 4 -29 4 -65z m-453 -137 c-3 -8 -6 -5 -6 6 -1 11 2 17 5
13 3 -3 4 -12 1 -19z m368 -78 c-3 -5 -12 -10 -18 -10 -7 0 -6 4 3 10 19 12
23 12 15 0z m-100 -20 c4 -6 10 -8 15 -5 5 3 11 -3 15 -12 6 -21 88 -73 113
-73 11 0 13 -3 6 -8 -7 -4 -13 -15 -15 -24 -3 -15 -17 -9 -81 33 -49 33 -78
58 -78 70 0 9 -6 20 -12 22 -7 3 -3 6 9 6 12 1 25 -4 28 -9z"/>
<path d="M2376 642 c-2 -4 -5 -73 -5 -155 -2 -113 1 -148 11 -152 30 -10 80
-16 191 -22 115 -6 117 -6 117 16 0 17 6 21 30 21 23 0 30 4 30 20 0 16 -7 20
-31 20 l-32 0 8 129 7 129 -161 1 c-88 0 -162 -3 -165 -7z m112 -59 c-10 -2
-28 -2 -40 0 -13 2 -5 4 17 4 22 1 32 -1 23 -4z m-55 -28 c-3 -9 -8 -14 -10
-11 -3 3 -2 9 2 15 9 16 15 13 8 -4z m42 5 c3 -5 2 -10 -4 -10 -5 0 -13 5 -16
10 -3 6 -2 10 4 10 5 0 13 -4 16 -10z m45 -191 c36 -1 74 -6 85 -11 12 -5 -6
-6 -50 -3 -38 2 -85 5 -102 5 -18 0 -33 5 -33 11 0 6 8 8 18 5 9 -3 46 -6 82
-7z"/>
<path d="M2908 643 c18 -2 45 -2 60 0 15 2 0 4 -33 4 -33 0 -45 -2 -27 -4z"/>
<path d="M1128 623 c-10 -2 -18 -12 -17 -21 0 -11 2 -12 6 -4 2 6 11 12 18 12
8 0 17 5 20 10 6 10 2 11 -27 3z"/>
<path d="M1153 592 c-24 -15 -43 -31 -43 -35 0 -5 20 6 45 24 39 28 51 39 43
39 -2 0 -22 -13 -45 -28z"/>
<path d="M2085 610 c-19 -7 -19 -7 3 -14 28 -9 30 -46 2 -46 -18 0 -20 -7 -20
-72 0 -56 3 -69 12 -60 7 7 24 12 39 12 36 0 79 17 79 30 0 6 -5 8 -11 5 -7
-5 -8 7 -4 39 7 45 7 46 -19 46 -19 0 -26 5 -26 20 0 11 7 20 15 20 8 0 15 5
15 12 0 9 3 9 12 0 10 -10 10 -15 -1 -21 -7 -5 -9 -11 -4 -14 6 -4 15 5 22 19
13 29 46 29 46 1 0 -10 7 -22 15 -27 12 -8 10 -9 -7 -7 -30 4 -40 16 -23 27 8
5 11 12 8 15 -15 16 -28 -9 -28 -53 0 -33 3 -43 10 -32 7 12 9 10 7 -8 -1 -25
-8 -27 -25 -10 -7 7 -12 8 -12 2 0 -5 5 -15 10 -20 17 -17 1 -42 -31 -48 -16
-3 -42 -8 -58 -11 -28 -6 -28 -6 -34 -103 -4 -53 -7 -145 -7 -204 0 -106 0
-108 23 -108 29 0 77 54 77 86 0 17 8 27 25 34 14 5 25 14 25 20 0 6 8 10 18
8 11 -2 27 4 37 12 13 11 19 12 22 3 8 -22 66 -49 146 -68 42 -11 77 -23 77
-28 0 -4 5 -5 10 -2 6 3 10 1 10 -4 0 -6 -4 -11 -10 -11 -5 0 -10 -11 -10 -24
0 -21 5 -24 45 -24 33 -1 45 3 45 13 0 8 5 15 10 15 6 0 10 -8 10 -17 0 -13 2
-15 8 -5 7 10 15 10 36 2 65 -24 88 -10 90 54 1 17 4 33 7 36 3 3 1 24 -3 47
-8 36 -13 43 -33 43 -30 0 -41 16 -19 28 11 6 14 16 10 29 -5 17 -21 21 -129
31 -67 6 -148 17 -179 23 l-58 12 -2 81 c-1 44 -2 98 -1 119 1 20 -2 37 -7 37
-5 0 -7 8 -4 18 5 14 4 15 -5 2 -6 -8 -9 -26 -6 -40 3 -14 1 -32 -5 -40 -8
-12 -10 -10 -10 10 0 14 -5 32 -10 40 -7 11 -10 5 -10 -23 0 -31 -3 -38 -17
-35 -12 2 -19 14 -20 33 -1 17 0 24 3 18 12 -26 20 -11 19 32 -2 40 1 45 20
45 11 0 26 -5 32 -11 7 -7 12 -6 16 5 6 14 -9 16 -121 15 -70 -1 -136 -5 -147
-9z m47 -60 c-3 -48 -1 -60 11 -60 9 0 18 6 21 13 3 6 5 4 3 -6 -1 -10 -5 -18
-9 -18 -5 1 -16 1 -25 1 -15 0 -18 10 -18 65 0 37 4 65 10 65 6 0 9 -24 7 -60z
m143 30 c3 -5 1 -10 -4 -10 -6 0 -11 5 -11 10 0 6 2 10 4 10 3 0 8 -4 11 -10z
m-168 -72 c-3 -7 -5 -2 -5 12 0 14 2 19 5 13 2 -7 2 -19 0 -25z m44 9 c-10 -9
-11 -8 -5 6 3 10 9 15 12 12 3 -3 0 -11 -7 -18z m98 -4 c-1 -22 -2 -23 -6 -8
-3 11 -10 23 -17 27 -7 5 -5 8 7 8 12 0 17 -7 16 -27z m-18 -70 c-12 -20 -14
-14 -5 12 4 9 9 14 11 11 3 -2 0 -13 -6 -23z m103 -78 c-10 -8 -35 -14 -54
-14 l-35 1 30 13 c17 8 41 14 54 15 24 0 24 0 5 -15z m76 -95 c0 -20 10 -23
125 -41 l80 -12 -4 -43 c-2 -33 -7 -44 -20 -44 -14 0 -14 2 -1 10 12 8 11 10
-7 10 -12 0 -25 5 -28 11 -4 6 -13 8 -20 5 -7 -2 -24 2 -38 9 -22 11 -26 11
-31 -1 -3 -8 -2 -13 3 -9 5 3 20 1 33 -4 22 -9 21 -10 -9 -10 -17 -1 -35 4
-38 9 -4 6 -11 8 -16 5 -5 -4 -9 -2 -9 3 0 5 -22 7 -49 4 -47 -4 -49 -4 -44
20 4 20 9 24 34 20 25 -4 28 -7 17 -20 -12 -14 -11 -14 10 -1 12 8 22 17 22
20 0 10 -28 19 -55 19 -13 0 -26 4 -29 9 -11 17 48 66 66 55 5 -3 8 -13 8 -24z
m-50 -120 c12 -8 12 -10 -5 -10 -11 0 -27 5 -35 10 -12 8 -12 10 5 10 11 0 27
-5 35 -10z m193 -4 c4 -10 1 -13 -9 -9 -15 6 -19 23 -5 23 5 0 11 -7 14 -14z"/>
<path d="M2300 580 c0 -11 5 -20 10 -20 6 0 10 9 10 20 0 11 -4 20 -10 20 -5
0 -10 -9 -10 -20z"/>
<path d="M1154 544 c-18 -14 -18 -15 4 -4 12 6 22 13 22 15 0 8 -5 6 -26 -11z"/>
<path d="M2770 529 c0 -17 4 -20 23 -15 12 3 61 6 110 6 71 0 87 3 87 15 0 12
-19 15 -110 15 -105 0 -110 -1 -110 -21z"/>
<path d="M1110 519 c0 -5 5 -7 10 -4 6 3 10 8 10 11 0 2 -4 4 -10 4 -5 0 -10
-5 -10 -11z"/>
<path d="M2270 500 c0 -5 5 -10 11 -10 5 0 7 5 4 10 -3 6 -8 10 -11 10 -2 0
-4 -4 -4 -10z"/>
<path d="M2770 432 c-6 -73 -2 -89 14 -67 9 13 21 14 55 9 54 -9 81 -34 81
-75 0 -29 -2 -31 -27 -26 -37 7 -53 -1 -53 -26 0 -12 -7 -56 -17 -98 -12 -56
-20 -76 -30 -72 -8 3 -13 -2 -13 -13 0 -11 -3 -29 -6 -41 -6 -23 -6 -23 105
-23 90 0 111 3 111 14 0 10 -25 21 -80 33 l-79 18 5 40 c18 121 12 115 107
102 45 -6 47 -6 47 18 0 19 -6 25 -33 30 -30 6 -33 10 -29 35 2 15 -1 38 -8
50 -13 25 -66 50 -105 50 -15 0 -24 4 -20 10 3 6 2 10 -4 10 -5 0 -11 19 -13
43 -3 37 -4 34 -8 -21z"/>
<path d="M930 404 c-19 -24 -36 -47 -37 -52 -1 -4 15 -27 37 -52 34 -39 39
-42 40 -22 0 20 5 22 51 22 l50 0 -3 53 c-3 52 -3 52 -38 54 -19 1 -40 2 -47
2 -6 1 -13 10 -15 20 -2 15 -10 10 -38 -25z"/>
<path d="M1928 393 c-40 -52 -40 -53 11 -113 28 -32 30 -33 31 -12 0 20 5 22
50 22 l50 0 0 55 0 55 -49 0 c-42 0 -50 3 -53 21 -2 17 -9 13 -40 -28z"/>
<path d="M2903 153 c9 -2 23 -2 30 0 6 3 -1 5 -18 5 -16 0 -22 -2 -12 -5z"/>
<path d="M2958 143 c7 -3 16 -2 19 1 4 3 -2 6 -13 5 -11 0 -14 -3 -6 -6z"/>
<path d="M2298 95 c-29 -39 -20 -53 11 -18 16 17 33 28 37 25 4 -4 4 -1 0 6
-11 19 -29 14 -48 -13z"/>
<path d="M2317 32 c-25 -28 -21 -32 31 -31 l47 1 -35 13 c-19 7 -27 14 -18 14
9 1 28 -3 42 -9 39 -14 31 -1 -9 16 -42 17 -39 18 -58 -4z"/>
</g>
</svg>
