<?xml version="1.0" standalone="no"?>
<!DOCTYPE svg PUBLIC "-//W3C//DTD SVG 20010904//EN"
 "http://www.w3.org/TR/2001/REC-SVG-20010904/DTD/svg10.dtd">
<svg version="1.0" xmlns="http://www.w3.org/2000/svg"
 width="266.000000pt" height="190.000000pt" viewBox="0 0 266.000000 190.000000"
 preserveAspectRatio="xMidYMid meet">

<g transform="translate(0.000000,190.000000) scale(0.100000,-0.100000)"
fill="#000000" stroke="none">
<path d="M2 1876 c2 -21 5 -22 25 -13 12 5 20 14 16 20 -3 6 -1 7 5 3 7 -4 20
-2 29 3 14 8 8 10 -29 11 -44 0 -48 -2 -46 -24z"/>
<path d="M169 1887 c18 -18 13 -32 -18 -50 -36 -21 -45 -21 -37 -2 6 16 -10
20 -38 9 -22 -8 -20 -26 2 -23 39 4 34 -4 -23 -31 -33 -16 -53 -30 -44 -30 8
0 38 11 65 25 27 14 53 25 57 25 5 0 20 9 34 20 l26 20 63 -89 c86 -124 87
-125 65 -145 -15 -14 -20 -14 -24 -4 -4 8 -6 7 -6 -4 -1 -10 -7 -18 -15 -18
-18 0 -124 -49 -131 -61 -4 -5 -24 -18 -46 -29 l-39 -20 -30 47 c-21 34 -30
42 -30 28 0 -35 48 -95 76 -95 42 0 267 118 283 149 6 12 -15 49 -81 145 -60
86 -85 131 -78 136 7 4 0 8 -15 8 -19 0 -23 -4 -16 -11z m51 -352 c-33 -19
-49 -19 -24 0 10 8 26 14 34 14 9 0 4 -6 -10 -14z"/>
<path d="M346 1861 c-20 -20 -36 -42 -36 -49 0 -7 41 -56 90 -108 50 -53 87
-101 83 -106 -3 -6 -1 -8 4 -5 6 4 16 0 23 -8 11 -13 10 -14 -3 -10 -8 4 -18
1 -23 -6 -5 -9 -2 -10 9 -6 9 3 19 2 22 -4 4 -5 10 -7 14 -4 5 2 34 -23 66
-56 68 -71 70 -71 170 10 104 84 145 128 145 155 0 16 -25 48 -79 102 -44 43
-78 80 -76 82 2 2 18 -3 37 -11 18 -9 79 -34 135 -57 56 -23 108 -48 114 -56
16 -20 -99 -287 -125 -292 -10 -2 -38 4 -63 13 l-45 17 71 65 c70 64 81 84 60
113 -8 12 -9 11 -5 -6 4 -14 -1 -27 -16 -40 -12 -10 -18 -13 -13 -5 5 10 4 12
-3 7 -7 -4 -12 -14 -12 -22 0 -8 -5 -12 -10 -9 -6 4 -9 1 -8 -7 2 -7 -3 -12
-10 -10 -8 1 -12 -1 -9 -5 7 -13 -120 -114 -161 -128 -30 -11 -34 -15 -19 -21
19 -7 60 10 105 42 21 16 22 16 16 -1 -6 -14 -4 -16 6 -10 9 6 11 4 4 -6 -4
-8 -9 -32 -10 -54 -2 -50 -4 -55 -13 -31 -7 19 -8 19 -13 -2 -4 -12 -1 -25 4
-29 7 -3 8 -1 4 5 -5 8 -1 10 9 5 12 -4 13 -8 5 -13 -7 -4 -9 -13 -6 -19 4 -6
3 -11 -3 -11 -5 0 -11 6 -14 13 -2 6 -7 9 -11 6 -11 -10 5 -39 18 -32 6 4 5
-1 -3 -10 -11 -13 -17 -14 -35 -5 -18 10 -19 9 -9 -3 16 -20 2 -40 -25 -34
-13 2 -20 0 -17 -6 4 -5 11 -7 16 -4 16 11 9 -15 -10 -37 l-20 -20 -63 43
c-35 24 -116 81 -181 128 -113 81 -117 84 -96 99 13 9 17 18 11 24 -11 11 1
28 85 118 l53 57 -30 28 c-28 27 -31 28 -49 11 -16 -14 -17 -22 -8 -45 6 -15
7 -35 4 -44 -8 -22 -66 -57 -95 -57 -13 0 -33 -11 -45 -23 -27 -29 -62 -48
-94 -52 -14 -1 -29 -8 -33 -16 -7 -11 -13 -11 -35 1 -23 12 -28 12 -35 0 -5
-8 -15 -15 -22 -16 -7 0 -19 -2 -25 -2 -16 -2 -18 -78 -3 -87 6 -3 10 -11 10
-16 0 -6 -4 -8 -9 -5 -10 6 -8 -407 2 -464 5 -25 4 -28 -2 -10 -5 17 -7 1 -7
-50 1 -41 4 -80 9 -87 5 -8 57 -11 166 -12 148 0 161 1 186 21 27 21 27 21 17
1 -16 -30 -31 -33 -149 -33 -89 0 -108 -3 -119 -17 -7 -10 -16 -14 -20 -10 -5
4 -2 12 6 17 11 7 1 10 -31 10 -25 0 -50 5 -57 12 -9 9 -12 -12 -11 -97 l2
-110 15 93 c11 63 20 92 29 92 26 0 24 -28 -11 -127 -31 -91 -34 -112 -35
-211 l0 -111 57 -16 c74 -21 80 -23 60 -24 -9 -1 -27 3 -40 8 -54 20 -78 22
-78 7 0 -9 12 -22 28 -30 l27 -15 -26 -1 c-25 0 -26 -2 -28 -60 l-1 -60 55 0
c30 0 55 5 55 10 0 6 7 10 15 10 8 0 15 -4 15 -10 0 -5 9 -10 20 -10 11 0 18
5 16 13 -3 6 -12 47 -22 90 -14 66 -21 78 -41 83 -12 4 -23 10 -23 15 0 13 14
11 29 -3 11 -11 12 -5 7 34 -4 28 -3 49 4 53 18 11 11 23 -10 18 -11 -3 -20
-10 -20 -15 0 -6 -8 -4 -17 3 -14 12 -16 12 -9 0 6 -9 5 -12 -5 -9 -8 3 -13
11 -11 18 2 8 -4 11 -16 8 -11 -3 -19 0 -19 8 0 7 5 11 11 8 6 -3 3 1 -8 10
-10 8 -15 20 -11 26 5 8 11 7 23 -2 9 -7 13 -8 9 -2 -10 17 41 35 78 28 21 -4
35 -1 40 7 5 7 4 10 -3 5 -5 -3 -13 0 -15 6 -4 10 -6 10 -6 1 -1 -7 -6 -13
-12 -13 -5 0 -8 3 -6 8 3 4 -4 15 -14 26 -18 18 -18 18 -25 -8 -6 -26 -19 -31
-48 -20 -22 9 0 53 24 47 13 -3 20 4 28 26 14 38 26 41 18 4 -4 -17 -3 -23 2
-15 7 10 11 10 22 -3 7 -8 19 -15 26 -15 8 0 83 26 169 59 85 32 152 55 150
50 -3 -4 -22 -13 -41 -19 -24 -8 -32 -15 -24 -20 19 -12 4 -42 -17 -36 -59 17
-76 19 -68 6 5 -9 4 -11 -3 -6 -6 4 -45 -5 -87 -20 -78 -28 -98 -41 -42 -28
17 4 39 7 47 7 8 0 23 6 32 14 13 11 21 12 37 3 12 -6 26 -8 31 -5 19 12 10
-8 -15 -31 -14 -13 -25 -21 -25 -18 0 3 -13 -3 -30 -13 -16 -9 -30 -23 -30
-30 0 -6 -4 -15 -10 -18 -5 -3 -7 0 -4 8 3 8 0 18 -7 23 -8 4 -10 3 -5 -4 4
-7 -3 -14 -18 -18 -27 -7 -53 -31 -43 -41 4 -3 13 0 22 7 8 7 15 10 15 6 0 -8
59 -276 66 -298 7 -22 56 -23 134 -3 l55 15 -52 -4 c-29 -2 -53 -2 -53 0 0 7
147 99 167 105 26 8 35 -10 31 -60 -2 -31 -18 -38 -68 -31 -8 1 -11 -2 -7 -6
4 -4 23 -7 41 -6 20 2 38 -4 46 -13 10 -12 38 -15 136 -15 70 0 124 4 124 9 0
5 -12 11 -27 13 -22 2 -28 8 -26 26 2 12 -3 22 -10 22 -8 0 -7 4 3 10 10 7 11
10 2 10 -7 0 -11 11 -10 28 l2 28 155 3 c86 1 189 -1 229 -5 l72 -6 0 -53 c0
-30 3 -60 6 -69 7 -19 40 -21 47 -3 4 9 6 9 6 0 1 -9 20 -13 60 -13 l59 0 17
65 c10 36 22 65 28 65 5 0 7 -7 3 -15 -3 -8 -8 -38 -12 -65 l-7 -51 47 2 46 3
0 52 c0 32 -5 54 -12 58 -7 3 16 4 52 3 l65 -2 3 -33 c2 -17 7 -32 13 -32 12
0 11 12 -1 44 -10 28 -9 29 73 40 41 5 92 -8 83 -23 -3 -5 3 -11 15 -14 17 -5
18 -3 7 11 -11 14 -10 15 5 9 10 -4 22 -7 27 -7 10 0 8 -20 -3 -37 -5 -7 -4
-13 2 -13 5 0 13 5 16 10 3 6 11 10 17 10 7 0 7 -4 0 -12 -8 -10 1 -13 39 -13
27 1 55 -3 62 -7 8 -5 7 -8 -5 -8 -11 0 -18 -8 -18 -20 0 -17 6 -20 45 -18 50
1 66 27 18 29 l-28 1 25 7 c18 5 28 3 34 -8 5 -9 10 -17 11 -18 1 -2 61 24
133 57 72 33 135 60 140 60 6 0 12 -6 15 -14 4 -9 -5 -19 -24 -26 -16 -7 -28
-15 -26 -17 8 -7 96 40 91 49 -3 4 -10 8 -15 8 -6 0 -7 -4 -4 -10 3 -5 1 -10
-4 -10 -15 0 -14 13 2 32 19 25 38 26 63 3 14 -13 47 -24 90 -30 37 -5 69 -15
71 -21 4 -12 -44 -37 -57 -29 -5 3 -28 -2 -51 -12 -24 -9 -37 -19 -29 -21 9
-3 5 -9 -11 -18 -22 -12 -17 -13 49 -13 40 1 85 7 100 14 15 8 39 18 55 24 15
6 27 15 27 21 0 14 -5 13 -60 -15 -56 -28 -60 -29 -60 -15 0 6 27 23 59 37
l59 26 1 54 c0 50 -1 53 -22 48 -16 -4 -32 5 -61 35 -35 36 -37 40 -20 47 10
3 31 15 46 26 14 11 32 17 40 14 9 -4 6 -8 -9 -12 -31 -10 -29 -25 2 -25 25 0
25 1 25 83 l0 82 -75 34 c-42 18 -74 36 -71 38 2 2 26 -7 53 -20 76 -39 88
-41 90 -15 2 17 0 19 -7 9 -7 -12 -11 -12 -24 2 -20 20 -20 27 1 27 9 0 13 3
9 7 -4 4 -22 6 -41 5 -20 -2 -35 2 -35 8 0 6 4 9 9 5 5 -3 28 2 50 11 35 14
41 20 41 46 l0 30 -60 -4 c-44 -3 -60 -1 -60 8 0 17 -29 32 -50 27 -10 -3 -20
2 -23 11 -11 27 42 20 65 -9 16 -21 23 -23 34 -14 8 7 13 18 10 26 -7 16 18
27 77 32 4 1 7 32 7 69 l0 68 -54 17 c-85 27 -85 29 -42 172 21 69 35 129 32
134 -4 5 0 16 9 24 9 10 16 45 20 103 5 85 5 88 -10 59 l-15 -30 5 34 c3 18 5
38 5 43 0 5 5 6 10 3 6 -3 10 -2 10 4 0 5 8 12 18 14 9 3 0 5 -20 6 -48 1 -59
-18 -68 -124 -6 -70 -7 -74 -10 -30 -2 37 -4 42 -7 20 -3 -16 -9 -34 -15 -40
-16 -16 -4 150 13 171 12 16 12 17 -1 9 -13 -8 -13 -7 -1 8 8 11 9 17 3 17
-14 0 -3 32 15 43 7 4 13 17 13 28 0 11 -4 17 -10 14 -5 -3 -10 0 -10 7 0 10
-2 10 -9 -1 -7 -11 -9 -11 -14 0 -8 23 -30 -6 -30 -39 0 -23 -4 -28 -17 -25
-14 4 -16 11 -9 36 18 73 21 78 43 75 11 -2 20 2 19 8 -1 6 4 11 12 11 8 0 11
-5 8 -11 -3 -6 0 -5 8 2 18 16 48 15 55 -3 3 -8 -4 -33 -16 -57 -13 -24 -27
-51 -32 -62 -13 -25 1 -37 48 -41 22 -1 31 -1 22 2 -20 5 -25 23 -6 23 6 0 9
3 6 6 -4 3 0 21 8 39 9 23 14 74 14 156 0 108 -2 120 -16 115 -11 -4 -22 1
-31 14 -8 11 -22 20 -31 20 -11 0 -13 3 -6 8 6 4 10 17 9 29 -1 12 2 20 7 17
4 -3 8 2 8 10 0 12 -10 16 -40 16 -22 0 -40 -3 -40 -6 0 -3 12 -25 26 -50 14
-24 23 -44 18 -44 -4 0 1 -9 11 -20 26 -29 10 -75 -25 -75 -21 0 -34 15 -80
97 l-55 98 -96 0 c-73 0 -98 -3 -102 -14 -3 -7 0 -19 6 -25 14 -14 5 -14 -28
1 -14 6 -25 17 -25 25 0 7 -7 13 -16 13 -14 0 -14 -3 -4 -15 10 -12 10 -15 0
-15 -10 0 -10 -3 0 -15 15 -18 35 -20 24 -3 -4 7 -3 8 5 4 6 -4 9 -11 6 -16
-3 -5 15 -24 39 -42 25 -18 44 -36 43 -40 -5 -17 -173 -188 -185 -188 -7 0
-11 3 -8 8 2 4 -19 7 -47 7 -44 0 -53 -3 -62 -22 -5 -13 -13 -23 -17 -23 -12
0 -9 14 8 38 15 21 10 28 -19 23 -4 -1 0 10 9 24 9 14 20 25 25 25 16 0 9 19
-11 30 -20 11 -36 -2 -87 -69 -9 -13 -14 -13 -24 -4 -10 10 -6 14 15 23 22 8
26 13 17 24 -6 7 -7 16 -3 21 4 4 -4 2 -17 -5 -21 -11 -23 -10 -18 4 9 22 -18
32 -41 15 -18 -14 8 17 71 86 31 33 39 37 47 25 8 -12 11 -13 22 -2 11 11 10
13 -1 10 -26 -6 -22 20 10 56 17 20 26 36 21 36 -10 0 -203 -212 -269 -295
-15 -19 -34 -35 -41 -35 -7 0 -10 -5 -6 -12 5 -7 3 -8 -5 -4 -7 5 -10 10 -8
13 3 2 -1 16 -8 30 -16 31 -12 43 17 43 17 0 18 -2 8 -15 -11 -13 -10 -14 3
-9 12 4 14 0 10 -18 l-5 -23 17 24 c14 18 15 25 5 31 -9 5 -9 9 -1 14 6 4 11
2 11 -5 0 -15 44 25 73 66 20 29 20 29 1 13 -26 -23 -30 -23 -30 3 0 16 6 19
28 17 19 -2 36 6 58 27 16 16 30 34 30 39 0 6 16 28 35 50 19 21 35 40 35 42
0 2 -24 4 -54 4 -46 0 -54 -3 -59 -21 -3 -12 -10 -18 -17 -14 -6 4 -9 13 -6
21 3 8 -1 14 -9 14 -8 0 -15 -7 -15 -16 0 -14 -7 -15 -37 -11 -20 4 -39 10
-42 15 -3 5 -42 9 -86 10 -44 0 -72 -2 -62 -5 10 -2 17 -14 17 -27 0 -30 -5
-34 -36 -28 -23 4 -25 9 -21 36 l6 31 -15 -30 -15 -30 4 28 4 27 -91 0 c-94 0
-109 -4 -119 -30 -4 -10 -6 -8 -6 8 -1 19 -6 22 -45 22 l-44 0 4 -50 c2 -28 8
-59 14 -69 14 -26 14 -89 0 -75 -6 6 -24 9 -40 6 -24 -3 -30 -9 -31 -31 l-1
-26 -8 27 c-9 30 -28 51 -50 56 -8 2 -21 8 -30 13 -11 7 -8 8 10 4 18 -4 28 0
38 15 7 11 8 20 3 20 -6 0 -8 9 -6 20 2 11 0 20 -6 20 -5 0 -9 -6 -9 -12 -1
-7 -12 9 -26 35 l-25 48 -83 -2 c-46 -1 -91 -8 -100 -14 -17 -13 -12 -45 7
-45 6 0 8 -2 5 -5 -3 -3 -31 6 -63 20 -31 14 -60 23 -63 20 -3 -3 -14 2 -24
12 -10 9 -20 14 -22 12 -3 -2 27 -37 65 -76 45 -48 67 -77 63 -87 -3 -9 -10
-13 -15 -10 -5 3 -6 -2 -3 -11 4 -8 -1 -26 -10 -39 -13 -21 -14 -25 0 -30 10
-4 13 -2 8 6 -4 7 -3 8 4 4 7 -4 18 7 29 28 17 36 33 47 33 23 0 -7 -7 -22
-15 -33 -8 -12 -11 -25 -7 -29 4 -5 -1 -5 -10 -2 -10 4 -18 3 -18 -1 0 -4 -14
-15 -32 -25 -26 -15 -29 -20 -17 -29 11 -8 10 -9 -5 -4 -25 9 -83 -43 -64 -56
9 -6 7 -8 -7 -6 -11 2 -19 -2 -18 -7 4 -22 -47 -9 -76 19 l-31 30 37 38 c21
21 43 36 51 33 7 -2 11 -1 8 4 -3 5 6 16 20 26 14 9 23 19 20 22 -8 8 -51 -22
-101 -72 l-44 -43 -101 108 c-55 59 -100 112 -100 117 0 11 46 53 58 53 4 0
21 11 37 24 l30 25 -42 -1 c-34 0 -47 -7 -77 -37z m1237 -1 c-3 -11 -7 -20 -9
-20 -2 0 -4 9 -4 20 0 11 4 20 9 20 5 0 7 -9 4 -20z m703 4 c-3 -8 -1 -16 5
-19 5 -4 8 -19 7 -35 -2 -28 -18 -32 -18 -4 0 8 -5 14 -11 14 -5 0 -7 -4 -4
-10 3 -5 2 -10 -3 -10 -22 0 -30 66 -9 73 23 7 38 4 33 -9z m-658 -17 c-4 -25
-38 -32 -38 -8 0 22 6 28 25 28 10 0 15 -8 13 -20z m-703 -25 c-3 -4 -10 0
-15 8 -9 13 -14 8 -12 -11 1 -4 -8 -5 -19 -2 -22 6 -20 11 13 28 18 9 25 8 31
-3 5 -7 6 -16 2 -20z m372 5 c-2 -7 2 -18 10 -25 15 -15 18 -52 4 -52 -14 0
-18 9 -26 59 -5 32 -4 42 4 36 7 -4 10 -12 8 -18z m366 8 c-3 -9 -8 -14 -10
-11 -3 3 -2 9 2 15 9 16 15 13 8 -4z m61 9 c8 -3 12 -13 9 -22 -4 -13 -3 -14
5 -4 5 8 23 12 43 10 29 -2 34 -7 37 -31 4 -35 -17 -44 -59 -23 -18 9 -39 16
-48 16 -29 0 -44 16 -36 39 6 21 21 26 49 15z m-183 -63 l1 -26 9 25 8 25 -2
-25 c-2 -22 -7 -25 -35 -23 -41 1 -46 6 -38 36 5 20 11 23 31 19 19 -3 25 -11
26 -31z m-67 14 c-4 -8 -8 -15 -10 -15 -2 0 -4 7 -4 15 0 8 4 15 10 15 5 0 7
-7 4 -15z m137 -15 c11 0 12 -30 2 -31 -5 0 -16 -2 -25 -4 -13 -2 -18 3 -18
22 0 19 4 24 16 19 9 -3 20 -6 25 -6z m760 -4 c-9 -11 -9 -16 0 -22 8 -4 9 -3
5 4 -11 18 9 14 35 -7 21 -17 22 -22 11 -45 -9 -20 -9 -32 -1 -48 10 -18 -2
-32 -113 -138 -114 -110 -124 -118 -144 -105 -18 11 -20 11 -19 -4 0 -9 4 -21
8 -28 4 -6 0 -16 -8 -23 -12 -10 -15 -10 -15 3 0 9 -7 17 -16 19 -18 3 -68
113 -59 128 10 16 45 -13 40 -31 -4 -11 1 -18 14 -22 18 -4 18 -2 8 17 -7 11
-18 29 -26 39 -14 16 -11 22 31 64 l46 46 21 -41 c12 -23 21 -50 21 -62 0 -11
5 -20 11 -20 10 0 9 37 -4 113 -5 23 -3 26 9 16 16 -13 17 -4 4 26 -5 11 -9
15 -9 9 -1 -7 -9 -15 -18 -18 -9 -4 3 15 28 43 24 27 50 49 57 50 7 1 11 5 8
10 -3 5 1 14 9 21 8 7 15 10 15 7 0 -4 10 -2 23 3 32 13 41 12 28 -4z m-1361
-6 c8 -5 11 -10 5 -10 -5 0 -17 5 -25 10 -8 5 -10 10 -5 10 6 0 17 -5 25 -10z
m640 -7 c0 -5 -5 -15 -10 -23 -7 -12 -9 -10 -7 8 1 19 17 33 17 15z m44 1 c9
-3 16 -16 17 -28 0 -20 1 -21 10 -1 8 18 8 18 6 -5 -2 -21 -7 -25 -31 -23 -37
3 -50 16 -41 42 7 22 14 25 39 15z m-387 -46 c-3 -8 -6 -5 -6 6 -1 11 2 17 5
13 3 -3 4 -12 1 -19z m47 1 c-3 -5 -10 -7 -15 -3 -5 3 -7 10 -3 15 3 5 10 7
15 3 5 -3 7 -10 3 -15z m39 -23 c7 -18 -1 -26 -25 -26 -16 0 -17 3 -8 20 13
23 26 26 33 6z m87 -6 c0 -5 -6 -15 -13 -22 -8 -7 -19 -23 -25 -34 -13 -24
-49 -37 -59 -22 -4 7 -1 8 6 3 10 -6 11 -3 1 16 -7 13 -9 21 -5 17 5 -5 13 2
19 13 6 12 15 21 19 20 4 -1 15 5 23 14 15 15 34 12 34 -5z m1080 -45 c0 -3
-6 -5 -12 -4 -30 4 -47 -3 -71 -27 -15 -15 -31 -23 -38 -18 -7 4 -9 3 -6 -4 4
-5 -14 -30 -39 -54 -26 -23 -69 -64 -96 -90 -27 -26 -59 -50 -71 -54 -33 -10
-89 -66 -75 -75 8 -5 1 -10 -18 -15 -16 -4 -38 -14 -48 -23 -11 -9 43 45 120
119 76 74 177 172 224 217 l85 82 23 -24 c12 -13 22 -27 22 -30z m-1243 23
c-3 -8 -6 -5 -6 6 -1 11 2 17 5 13 3 -3 4 -12 1 -19z m1143 2 c-6 -11 -15 -20
-20 -20 -6 0 -2 9 7 20 10 11 19 20 21 20 1 0 -2 -9 -8 -20z m-853 -3 c39 -11
41 -14 23 -25 -13 -8 -21 -8 -26 -1 -4 7 -21 9 -48 4 -22 -4 -48 -8 -56 -9 -9
-1 -21 -5 -28 -10 -22 -13 -13 4 16 29 31 28 58 30 119 12z m210 -22 c0 -8 -4
-12 -9 -9 -5 3 -6 10 -3 15 9 13 12 11 12 -6z m-582 -15 c3 -5 1 -10 -4 -10
-6 0 -11 5 -11 10 0 6 2 10 4 10 3 0 8 -4 11 -10z m-382 -15 c-3 -9 -8 -14
-10 -11 -3 3 -2 9 2 15 9 16 15 13 8 -4z m524 -6 c1 -13 -18 -23 -79 -43 -44
-15 -83 -25 -85 -22 -3 3 -2 17 1 31 6 24 9 25 54 19 39 -5 50 -3 65 13 21 24
43 25 44 2z m140 -30 c-4 -17 -3 -19 6 -10 18 18 28 13 15 -9 -7 -11 -19 -18
-26 -15 -7 3 -10 0 -7 -5 3 -6 2 -10 -3 -10 -5 0 -12 13 -14 29 -2 17 -1 28 3
25 4 -2 10 0 14 6 11 17 18 11 12 -11z m403 13 c0 -13 -12 -22 -22 -16 -10 6
-1 24 13 24 5 0 9 -4 9 -8z m-733 -44 c-3 -7 -5 -2 -5 12 0 14 2 19 5 13 2 -7
2 -19 0 -25z m490 -27 c-1 -16 -4 -17 -15 -9 -10 9 -11 13 0 19 17 11 17 12
15 -10z m328 9 c3 -5 1 -10 -4 -10 -6 0 -11 5 -11 10 0 6 2 10 4 10 3 0 8 -4
11 -10z m-687 -21 c-2 -7 10 -16 27 -20 27 -8 55 -33 55 -49 0 -3 -9 -6 -20
-6 -11 0 -20 4 -20 8 0 4 6 8 12 8 7 0 2 7 -11 16 -17 13 -35 15 -74 10 -28
-4 -55 -13 -59 -19 -6 -9 -8 -9 -8 0 0 7 -6 10 -13 7 -8 -3 -27 -6 -43 -8 -18
-1 -28 -7 -26 -16 3 -11 0 -11 -12 -1 -8 7 -20 10 -25 7 -5 -4 -12 -2 -15 3
-3 5 21 12 54 16 33 4 67 13 75 21 16 16 29 19 20 4 -7 -11 6 -13 30 -4 13 6
14 9 3 16 -9 6 -6 7 9 3 12 -3 24 -1 28 5 8 13 16 13 13 -1z m247 -9 c3 -5 1
-10 -4 -10 -6 0 -11 5 -11 10 0 6 2 10 4 10 3 0 8 -4 11 -10z m165 -3 c0 -7
-5 -18 -12 -25 -20 -20 -3 -23 19 -3 19 18 23 18 39 5 18 -15 18 -15 -1 -9
-15 5 -17 3 -9 -5 8 -8 -1 -23 -35 -55 -25 -24 -47 -43 -47 -42 -1 1 -5 26 -9
55 -5 43 -3 57 11 73 20 22 44 25 44 6z m791 -20 c-10 -9 -11 -8 -5 6 3 10 9
15 12 12 3 -3 0 -11 -7 -18z m-2236 3 c-3 -5 -12 -10 -18 -10 -7 0 -6 4 3 10
19 12 23 12 15 0z m45 -4 c0 -3 -4 -8 -10 -11 -5 -3 -10 -1 -10 4 0 6 5 11 10
11 6 0 10 -2 10 -4z m927 -31 c0 -8 -6 -15 -14 -15 -7 0 -13 -4 -13 -9 0 -4
-11 -6 -24 -4 -13 3 -33 0 -45 -6 -17 -10 -20 -9 -15 3 3 9 22 18 42 21 30 5
51 13 68 24 0 1 1 -6 1 -14z m-187 1 c0 -2 -9 -6 -20 -9 -11 -3 -18 -1 -14 4
5 9 34 13 34 5z m775 -14 c-3 -3 -11 0 -18 7 -9 10 -8 11 6 5 10 -3 15 -9 12
-12z m-822 -32 c-3 -12 -8 -19 -11 -16 -5 6 5 36 12 36 2 0 2 -9 -1 -20z m997
-65 c13 -38 27 -73 32 -76 5 -3 1 -9 -10 -11 -23 -6 -37 1 -44 21 -3 10 -12 2
-27 -22 -12 -20 -19 -42 -15 -49 4 -8 4 -9 -2 -3 -14 15 -5 167 9 159 8 -5 8
-2 0 7 -15 15 -18 53 -4 44 5 -3 13 0 16 6 11 17 20 0 45 -76z m481 54 c-5
-13 -10 -19 -10 -12 -1 15 10 45 15 40 3 -2 0 -15 -5 -28z m-2007 -149 c96
-69 172 -128 170 -131 -2 -3 3 -15 11 -25 13 -18 14 -18 8 3 -4 18 19 48 115
155 102 111 119 135 109 148 -11 13 -10 13 8 0 28 -20 45 -42 45 -57 0 -7 -34
-52 -76 -98 -41 -47 -72 -90 -69 -95 10 -17 25 -11 25 9 0 15 28 52 31 40 4
-23 2 -72 -3 -76 -5 -2 -9 8 -9 24 -1 21 -3 23 -6 8 -7 -30 -19 -38 -40 -27
-14 8 -24 5 -42 -9 -13 -10 -29 -19 -37 -19 -8 0 -14 -5 -14 -11 0 -11 16 -9
51 5 12 5 20 -2 29 -24 13 -30 15 -32 59 -27 l46 6 -43 -11 c-37 -9 -45 -8
-64 8 -12 10 -18 13 -14 7 4 -8 2 -13 -6 -14 -7 0 -4 -4 7 -9 16 -7 17 -9 3
-9 -9 -1 -19 3 -22 8 -3 5 -16 7 -28 3 -21 -5 -21 -6 -2 -13 18 -7 18 -8 -2
-8 -25 -1 -33 7 -69 77 -15 28 -33 52 -39 52 -14 0 -119 -150 -111 -158 3 -3
12 3 20 14 8 10 15 14 15 7 0 -6 8 -10 18 -9 11 2 16 10 14 25 -3 19 7 26 31
22 4 0 7 6 7 14 0 20 -26 19 -34 -1 -4 -9 -9 -14 -12 -11 -4 3 3 18 15 32 l20
27 23 -46 c17 -36 27 -46 47 -47 15 0 -30 -12 -99 -26 -69 -13 -130 -29 -137
-35 -19 -15 -16 -56 13 -180 32 -142 44 -166 86 -170 l33 -3 -43 -11 c-65 -18
-78 -2 -111 136 -16 63 -31 137 -34 163 -6 43 -4 51 20 73 18 17 21 24 10 24
-13 0 -96 36 -137 61 -8 5 -29 15 -46 23 -17 8 -34 18 -37 23 -4 7 105 163
157 224 13 15 8 21 -40 54 -61 42 -86 70 -30 33 19 -12 114 -79 210 -148z
m1092 155 c-1 -8 -9 -22 -18 -32 -9 -10 -35 -76 -58 -148 -41 -128 -58 -169
-45 -110 5 23 4 26 -4 15 -9 -13 -11 -13 -11 2 0 10 10 27 23 39 12 12 16 18
8 14 -10 -6 -11 -2 -5 16 4 13 8 38 7 54 -1 17 1 24 4 17 3 -8 11 -5 24 12 10
13 17 31 14 38 -10 25 13 68 34 68 14 0 19 5 15 15 -4 8 -2 15 4 15 6 0 9 -7
8 -15z m-217 -16 c-8 -5 -9 -9 -3 -9 12 0 18 -36 34 -209 9 -103 6 -136 -11
-110 -7 11 -9 10 -9 -4 0 -10 -4 -15 -10 -12 -10 6 -15 -9 -10 -30 1 -5 -4 -4
-11 3 -24 23 -32 13 -26 -33 8 -53 2 -57 -16 -14 -12 30 -14 31 -30 15 -16
-16 -17 -16 -18 6 -2 41 -4 48 -11 48 -52 1 -51 2 -44 -37 4 -21 9 -45 12 -54
3 -9 -2 -19 -11 -23 -14 -5 -15 -1 -10 27 4 17 4 29 0 25 -5 -4 -14 -3 -22 3
-10 9 -13 8 -13 -5 0 -9 -4 -16 -10 -16 -5 0 -10 4 -10 10 0 17 -30 -1 -30
-19 -1 -37 -18 16 -23 69 -3 30 -11 84 -18 119 -9 49 -9 68 0 82 9 16 8 19 -6
20 -28 2 27 17 65 18 17 1 32 4 32 9 0 9 -53 8 -70 -3 -7 -5 -11 -4 -7 1 3 5
-3 25 -12 44 -16 34 -16 36 0 36 10 0 15 -4 13 -8 -3 -4 -1 -8 5 -8 5 0 11 5
13 11 2 6 14 8 32 3 15 -3 23 -9 18 -13 -12 -7 -20 -39 -9 -40 42 -4 47 -1 37
25 -13 34 -13 51 1 37 19 -19 20 -71 1 -77 -15 -5 16 -2 93 9 11 1 32 3 47 4
16 0 32 9 38 22 11 20 11 20 -17 2 -24 -15 -26 -15 -15 -1 11 14 11 16 -7 11
-12 -3 -21 -10 -22 -17 0 -11 -20 29 -25 51 -3 15 23 25 31 12 4 -5 11 -7 16
-3 5 3 16 0 24 -6 16 -14 18 -10 9 14 -3 9 -10 14 -14 11 -5 -3 -11 -1 -15 4
-3 6 3 8 15 6 11 -2 20 1 20 6 0 6 5 7 11 3 8 -4 7 -9 -2 -15z m371 -21 c0
-16 -3 -19 -11 -11 -6 6 -8 16 -5 22 11 17 16 13 16 -11z m55 12 c3 -5 1 -10
-4 -10 -6 0 -11 5 -11 10 0 6 2 10 4 10 3 0 8 -4 11 -10z m-769 -34 c3 -19 4
-41 1 -48 -3 -7 -6 2 -6 20 -1 19 -5 31 -11 27 -5 -3 -10 2 -11 12 0 10 -3 13
-5 6 -3 -7 -12 -9 -20 -6 -20 8 -7 23 21 23 20 0 25 -7 31 -34z m217 17 c-8
-3 -11 -14 -7 -29 5 -20 3 -24 -17 -23 -23 0 -23 1 -4 9 16 7 17 9 3 9 -11 1
-15 7 -11 21 3 12 13 20 27 19 11 0 15 -3 9 -6z m-403 -12 c0 -5 -7 -14 -15
-21 -12 -10 -15 -10 -15 2 0 8 3 18 7 21 9 10 23 9 23 -2z m1470 -6 c16 -19 1
-19 -24 0 -16 12 -17 15 -4 15 8 0 21 -7 28 -15z m65 -19 c7 3 16 0 20 -6 4
-7 -4 -10 -24 -8 -20 1 -31 8 -31 17 0 11 3 12 11 4 6 -6 17 -9 24 -7z m-1317
-21 c-3 -3 -9 2 -12 12 -6 14 -5 15 5 6 7 -7 10 -15 7 -18z m212 15 c0 -5 -4
-10 -10 -10 -5 0 -10 5 -10 10 0 6 5 10 10 10 6 0 10 -4 10 -10z m577 -22 c-3
-8 -6 -5 -6 6 -1 11 2 17 5 13 3 -3 4 -12 1 -19z m-600 -4 c-3 -3 -12 -4 -19
-1 -8 3 -5 6 6 6 11 1 17 -2 13 -5z m1127 -10 c9 -8 16 -20 16 -26 0 -6 -9 0
-20 13 -12 15 -19 19 -20 10 0 -9 -4 -10 -12 -3 -7 5 -22 12 -33 15 -12 3 -5
5 17 6 21 1 43 -6 52 -15z m-1304 -10 c0 -8 -4 -12 -10 -9 -5 3 -10 10 -10 16
0 5 5 9 10 9 6 0 10 -7 10 -16z m1165 0 c-27 -7 -57 -13 -65 -13 -21 1 70 27
95 27 11 0 -2 -6 -30 -14z m-1198 -41 c-3 -10 -5 -2 -5 17 0 19 2 27 5 18 2
-10 2 -26 0 -35z m-991 25 c5 -7 3 -8 -5 -4 -8 5 -12 3 -10 -5 3 -28 -1 -49
-11 -49 -13 0 -13 26 0 51 12 22 16 23 26 7z m1421 -25 c-3 -10 -5 -4 -5 12 0
17 2 24 5 18 2 -7 2 -21 0 -30z m123 26 c0 -5 4 -8 9 -4 5 3 13 0 16 -5 4 -7
19 -9 35 -5 19 4 31 2 37 -8 10 -18 63 -32 63 -17 0 6 5 8 10 5 15 -9 2 -25
-19 -25 -17 0 -47 -47 -36 -58 3 -3 5 1 5 8 0 7 2 11 5 8 9 -8 -6 -38 -16 -32
-8 5 -14 -24 -10 -54 1 -6 -10 -23 -24 -36 -14 -13 -25 -28 -25 -34 0 -9 -22
-22 -40 -22 -5 0 -6 12 -4 27 l5 26 -20 -24 c-17 -20 -22 -22 -30 -9 -6 8 -8
26 -5 40 4 20 2 18 -10 -7 -8 -18 -22 -33 -31 -33 -18 0 -18 -2 0 50 13 36 13
41 1 31 -10 -8 -5 19 15 85 16 54 29 99 29 101 0 1 9 3 20 3 11 0 20 -5 20
-11z m557 -5 c-3 -3 -12 -4 -19 -1 -8 3 -5 6 6 6 11 1 17 -2 13 -5z m-327 -14
c0 -5 -5 -10 -11 -10 -5 0 -7 5 -4 10 3 6 8 10 11 10 2 0 4 -4 4 -10z m287 4
c-3 -3 -12 -4 -19 -1 -8 3 -5 6 6 6 11 1 17 -2 13 -5z m393 -51 c0 -7 -61 31
-73 46 -7 8 7 2 31 -14 23 -15 42 -30 42 -32z m30 50 c0 -5 -5 -15 -10 -23 -7
-12 -9 -10 -7 8 1 19 17 33 17 15z m-463 -9 c-3 -3 -12 -4 -19 -1 -8 3 -5 6 6
6 11 1 17 -2 13 -5z m380 -36 c23 -15 46 -28 52 -28 10 0 -14 -56 -29 -65 -5
-3 -7 -12 -4 -19 8 -20 -12 -29 -35 -16 -18 9 -28 40 -44 142 -5 30 -5 30 60
-14z m-2213 -27 c-15 -20 -42 -54 -59 -76 -42 -53 -51 -82 -32 -103 9 -10 61
-39 116 -67 56 -27 101 -53 101 -57 0 -5 -10 -3 -22 3 -19 9 -21 9 -11 -2 10
-10 10 -16 0 -27 -10 -13 -9 -14 10 -4 14 8 24 9 28 2 3 -5 1 -10 -6 -10 -8 0
-5 -5 5 -13 11 -8 17 -23 14 -38 l-3 -24 -173 -3 c-159 -2 -172 -1 -172 15 1
48 59 422 68 433 5 7 104 16 135 11 l28 -3 -27 -37z m1590 33 c3 -8 2 -12 -4
-9 -6 3 -10 10 -10 16 0 14 7 11 14 -7z m-769 -69 c6 -66 6 -69 -11 -53 -14
14 -15 20 -4 32 7 9 8 16 3 16 -4 0 -7 18 -5 41 2 22 5 39 7 37 1 -2 6 -34 10
-73z m1311 38 c-10 -10 -19 5 -10 18 6 11 8 11 12 0 2 -7 1 -15 -2 -18z m-40
0 c14 13 36 -24 30 -49 -6 -22 -4 -25 14 -19 14 4 20 2 20 -8 0 -10 -7 -13
-18 -10 -23 6 -47 -73 -29 -96 10 -12 9 -14 -5 -8 -25 9 -22 -8 4 -25 20 -14
20 -15 4 -40 -17 -27 -54 -49 -40 -25 5 9 3 8 -7 -1 -11 -10 -11 -15 -1 -20 9
-6 6 -17 -13 -42 -13 -18 -30 -49 -36 -69 -6 -20 -16 -40 -21 -46 -12 -11 -13
-18 38 150 20 66 37 126 38 134 1 15 -125 44 -234 55 -25 2 -53 7 -63 11 -10
4 -19 6 -21 4 -6 -8 -127 -441 -124 -445 2 -2 15 -8 28 -14 l25 -10 -27 3
c-15 2 -25 1 -23 -4 3 -4 -1 -10 -7 -12 -7 -3 5 -3 27 0 22 4 42 10 43 15 2 4
8 6 13 3 16 -10 79 7 79 21 0 19 -24 18 -40 -1 -17 -21 -30 -19 -30 5 0 21
-15 27 -25 10 -3 -5 -11 -10 -17 -10 -6 0 -8 3 -5 7 4 3 -1 12 -11 19 -9 7
-15 15 -12 17 3 3 59 -4 125 -16 136 -25 220 -19 231 15 6 20 34 24 50 8 7 -7
21 -5 43 6 25 12 35 14 40 5 5 -8 16 -9 32 -3 34 12 54 9 54 -7 0 -15 -53 -27
-290 -66 -49 -9 -105 -20 -123 -26 -33 -11 -38 -29 -12 -37 9 -3 11 1 7 12 -5
12 0 16 21 16 15 0 95 14 177 30 83 17 164 30 181 30 28 0 32 -3 37 -37 4 -22
2 -39 -3 -41 -6 -2 -7 -9 -3 -15 4 -6 0 -8 -9 -4 -9 3 -38 -9 -68 -30 -28 -19
-58 -32 -66 -29 -16 6 -19 -5 -4 -20 5 -5 5 -15 1 -23 -7 -10 -44 -3 -190 38
-100 28 -186 51 -190 51 -5 0 -22 -26 -39 -57 -17 -32 -38 -67 -47 -78 -9 -11
-1 10 19 47 19 37 34 73 32 80 -1 7 -1 9 2 5 2 -5 11 1 19 12 8 12 21 21 29
21 8 0 14 5 14 11 0 7 -7 8 -17 4 -44 -18 -103 -33 -105 -27 -4 22 -2 72 4 72
5 0 18 51 24 95 0 6 4 17 7 25 16 40 47 172 42 180 -3 5 -1 11 5 15 6 4 8 11
5 16 -4 5 -1 9 4 9 6 0 11 4 11 9 0 4 -33 -8 -72 -27 -40 -19 -89 -40 -109
-47 l-35 -13 4 82 c2 44 9 86 15 93 7 7 49 14 94 18 45 3 89 8 97 11 12 4 16
0 17 -17 1 -22 2 -22 14 6 8 17 14 39 15 51 0 11 9 29 20 39 20 18 24 18 129
1 60 -10 114 -15 121 -11 9 6 11 4 6 -4 -5 -8 -3 -11 5 -10 8 1 32 -3 53 -9
22 -6 42 -9 44 -7 6 6 -44 25 -64 25 -17 0 -18 12 -2 28 8 8 15 9 25 0 7 -6
16 -8 19 -5z m-1381 -30 c-3 -16 -11 -32 -16 -37 -5 -6 -4 5 1 25 6 18 10 35
10 36 0 2 3 3 6 3 3 0 3 -12 -1 -27z m762 -85 c-2 -13 -4 -5 -4 17 -1 22 1 32
4 23 2 -10 2 -28 0 -40z m-690 -18 c2 -13 7 -27 12 -30 4 -3 18 -51 31 -108
l23 -102 31 4 c17 3 51 7 76 11 25 3 60 10 77 15 20 5 35 5 39 -1 7 -12 7 -12
-183 -53 -194 -42 -249 -71 -209 -112 15 -14 14 -37 0 -182 -6 -55 -18 -67
-28 -29 -10 37 -7 189 5 232 16 58 33 72 105 85 35 7 67 17 71 23 3 5 2 8 -3
5 -5 -3 -10 10 -10 31 -3 61 -45 201 -68 223 l-21 20 24 -4 c17 -2 25 -11 28
-28z m433 -1 c-12 -41 -24 -53 -14 -14 7 32 13 45 19 45 2 0 0 -14 -5 -31z
m-497 14 c-7 -2 -21 -2 -30 0 -10 3 -4 5 12 5 17 0 24 -2 18 -5z m114 -15 c-3
-8 -6 -5 -6 6 -1 11 2 17 5 13 3 -3 4 -12 1 -19z m-505 -20 c-7 -7 -12 -8 -12
-2 0 14 12 26 19 19 2 -3 -1 -11 -7 -17z m1837 6 c13 -12 -8 -10 -29 2 l-25
15 25 -7 c14 -3 27 -8 29 -10z m-2244 -3 c3 -5 2 -12 -3 -15 -5 -3 -9 1 -9 9
0 17 3 19 12 6z m1527 -16 c-2 -14 -9 -28 -15 -32 -6 -3 -7 -1 -3 5 4 7 1 12
-6 12 -9 0 -9 3 2 10 8 5 11 10 7 10 -11 0 2 20 12 20 5 0 6 -11 3 -25z m365
19 c-3 -3 -12 -4 -19 -1 -8 3 -5 6 6 6 11 1 17 -2 13 -5z m112 -20 c10 -9 -35
-3 -49 6 -11 8 -7 9 15 4 17 -4 32 -8 34 -10z m-1090 -37 c-1 -31 -1 -31 -9
-7 -11 36 -11 52 0 45 6 -3 10 -21 9 -38z m971 30 c0 -10 -10 -12 -32 -8 l-33
5 30 7 c17 4 31 7 33 8 1 0 2 -5 2 -12z m-1690 -31 c0 -9 -41 8 -52 22 -11 13
-8 12 20 -2 17 -9 32 -18 32 -20z m510 20 c0 -8 14 -17 30 -21 24 -5 28 -10
20 -20 -8 -9 -6 -14 5 -19 23 -8 19 -46 -5 -46 -11 0 -20 -7 -20 -15 0 -8 -4
-15 -10 -15 -6 0 -9 3 -9 8 3 20 -2 32 -16 32 -17 0 -20 -16 -5 -25 6 -3 10
-18 10 -33 1 -23 2 -25 13 -11 11 15 49 39 61 39 3 0 6 -4 6 -10 0 -5 -9 -10
-20 -10 -23 0 -27 -15 -5 -24 8 -3 15 -1 15 4 0 6 5 10 10 10 14 0 12 -36 -2
-47 -20 -14 -58 -13 -58 2 0 7 -7 12 -17 11 -17 -1 -24 17 -46 122 -14 63 -12
72 12 50 11 -11 13 -10 8 4 -6 17 0 28 15 28 4 0 8 -6 8 -14z m-95 -26 c3 -49
28 -135 44 -148 9 -8 10 -10 3 -7 -13 7 -12 -14 3 -91 4 -17 -5 -24 -58 -42
-81 -27 -166 -46 -174 -38 -4 3 1 6 10 6 20 0 29 14 21 33 -3 9 -13 13 -25 10
-21 -6 -22 -3 -13 21 3 9 11 13 17 9 6 -3 7 -1 3 6 -4 6 -12 9 -17 6 -8 -6
-13 11 -12 43 1 6 -3 12 -7 12 -13 0 -19 54 -8 68 8 9 8 16 -2 25 -10 9 -11 9
-6 0 4 -7 2 -13 -3 -13 -15 0 -14 13 2 29 8 10 8 12 0 7 -6 -3 -14 -2 -18 4
-3 5 -1 10 6 10 8 0 6 7 -5 19 -16 17 -15 19 26 30 73 20 131 29 173 28 34 -2
39 -5 40 -27z m645 -44 c-12 -36 -26 -66 -32 -66 -6 0 -8 -6 -5 -14 8 -19 -16
-90 -31 -93 -17 -4 -15 12 4 31 8 9 12 20 9 26 -3 5 -1 10 4 10 6 0 11 5 11
11 0 5 -4 8 -9 5 -5 -4 -4 7 2 23 6 17 15 27 21 24 5 -4 7 3 4 15 -4 14 -2 20
5 15 6 -4 8 0 4 10 -3 10 -2 17 4 17 6 0 9 8 7 18 -3 18 11 47 19 38 3 -2 -5
-34 -17 -70z m110 70 c0 -20 -22 -54 -38 -58 -15 -4 -19 0 -17 21 1 14 3 29 3
34 2 7 52 10 52 3z m590 -2 c0 -8 -19 -13 -24 -6 -3 5 1 9 9 9 8 0 15 -2 15
-3z m-413 -36 c-3 -7 -5 -2 -5 12 0 14 2 19 5 13 2 -7 2 -19 0 -25z m343 7 c0
-4 -23 -2 -48 4 -2 1 0 6 3 11 6 10 45 -4 45 -15z m-2003 -17 c-3 -7 -5 -2 -5
12 0 14 2 19 5 13 2 -7 2 -19 0 -25z m2383 22 c0 -5 -4 -10 -10 -10 -5 0 -10
5 -10 10 0 6 5 10 10 10 6 0 10 -4 10 -10z m-1140 -10 c0 -5 -7 -10 -15 -10
-8 0 -15 5 -15 10 0 6 7 10 15 10 8 0 15 -4 15 -10z m820 0 c0 -5 -8 -10 -17
-10 -15 0 -16 2 -3 10 19 12 20 12 20 0z m143 3 c-7 -2 -19 -2 -25 0 -7 3 -2
5 12 5 14 0 19 -2 13 -5z m217 -9 c0 -2 -7 -4 -15 -4 -8 0 -15 4 -15 10 0 5 7
7 15 4 8 -4 15 -8 15 -10z m-1305 -33 c-6 -5 -25 10 -25 20 0 5 6 4 14 -3 8
-7 12 -15 11 -17z m-78 -3 c-3 -8 -6 -5 -6 6 -1 11 2 17 5 13 3 -3 4 -12 1
-19z m1183 14 c0 -5 -13 -7 -30 -4 -16 2 -30 6 -30 8 0 2 14 4 30 4 17 0 30
-4 30 -8z m157 -33 c-8 -13 -16 -15 -28 -9 -9 5 -20 6 -24 2 -5 -4 -6 -2 -3 3
3 6 8 18 11 27 5 15 10 16 31 7 21 -10 23 -15 13 -30z m-1388 -19 c0 -9 -4 -8
-9 5 -5 11 -9 27 -9 35 0 9 4 8 9 -5 5 -11 9 -27 9 -35z m-1002 3 c-3 -10 -5
-4 -5 12 0 17 2 24 5 18 2 -7 2 -21 0 -30z m1763 17 c-19 -11 -39 -19 -45 -19
-5 0 6 8 25 19 19 11 40 19 45 19 6 0 -6 -8 -25 -19z m260 12 c0 -8 35 -13
108 -16 17 -1 32 -5 32 -11 0 -5 4 -5 8 2 4 6 19 9 34 6 15 -3 25 -9 23 -14
-3 -4 -12 -6 -20 -3 -8 3 -29 -6 -48 -20 -32 -24 -106 -56 -131 -56 -6 0 -4 5
4 11 11 8 8 9 -14 4 -25 -5 -28 -4 -17 9 10 12 8 15 -11 18 -15 2 -22 9 -20
20 2 13 -2 16 -15 11 -14 -6 -13 -3 4 16 12 13 26 20 32 16 6 -3 11 -1 11 4 0
6 5 11 10 11 6 0 10 -4 10 -8z m-583 -8 c-3 -3 -12 -4 -19 -1 -8 3 -5 6 6 6
11 1 17 -2 13 -5z m-1000 -26 c-3 -8 -6 -5 -6 6 -1 11 2 17 5 13 3 -3 4 -12 1
-19z m1052 8 c15 -18 4 -46 -19 -46 -13 0 -16 6 -13 28 5 27 5 27 -16 -5 -11
-18 -23 -33 -26 -33 -4 0 -3 5 0 10 3 6 1 10 -4 10 -6 0 -11 5 -11 11 0 5 4 7
10 4 5 -3 7 0 4 9 -4 9 2 16 18 19 41 8 45 7 57 -7z m101 -16 c-13 -8 -12 -10
3 -10 19 0 20 -2 11 -24 -5 -14 -44 -24 -44 -12 0 18 22 56 32 56 9 0 8 -3 -2
-10z m741 1 c-11 -7 -9 -10 7 -15 18 -6 20 -10 10 -32 -6 -13 -14 -24 -17 -24
-3 0 -16 -3 -28 -6 -14 -4 -23 -2 -23 5 0 5 8 8 18 4 15 -5 15 -4 -1 8 -18 14
-17 16 3 42 12 15 27 27 33 27 8 0 7 -3 -2 -9z m-652 -4 c-2 -1 -13 -9 -24
-17 -19 -14 -19 -14 -6 3 7 9 18 17 24 17 6 0 8 -1 6 -3z m256 -17 c-3 -5 -14
-10 -23 -9 -14 0 -13 2 3 9 27 11 27 11 20 0z m-95 -39 c0 -6 -4 -12 -10 -16
-5 -3 -7 -13 -4 -23 5 -13 4 -14 -4 -3 -11 15 -4 51 9 51 5 0 9 -4 9 -9z
m-570 -15 c0 -8 4 -16 10 -18 15 -5 -1 -48 -19 -49 -11 0 -12 -2 -3 -6 11 -4
10 -8 -1 -22 -19 -20 -23 -41 -12 -64 5 -11 2 -24 -8 -35 -8 -9 -18 -29 -22
-44 -7 -27 -36 -45 -55 -33 -5 3 -10 2 -10 -3 0 -5 -25 -15 -55 -22 -50 -12
-69 -10 -70 8 -1 4 -7 18 -14 32 -13 23 -15 24 -22 5 -4 -12 -1 -29 7 -41 13
-22 10 -34 -12 -34 -7 0 -13 18 -16 45 -2 25 0 45 4 45 5 0 8 42 8 94 l0 94
42 10 c52 13 58 10 58 -34 0 -21 -4 -33 -10 -29 -6 4 -8 10 -5 15 3 4 -2 10
-10 13 -9 4 -12 1 -9 -7 3 -8 1 -17 -5 -21 -6 -3 -11 -15 -11 -26 0 -13 7 -19
24 -19 23 0 23 -2 15 -41 -12 -54 -4 -61 15 -14 9 20 20 34 25 31 5 -4 13 -2
16 4 4 6 1 9 -6 8 -16 -4 -25 41 -21 97 l4 41 76 16 c43 8 80 16 85 17 4 0 7
-5 7 -13z m1281 1 c13 -10 3 -17 -65 -48 -76 -32 -82 -34 -82 -16 0 14 17 28
61 48 68 33 65 32 86 16z m-746 -16 c17 -55 8 -117 -21 -134 -8 -4 -19 -17
-25 -29 -10 -18 -9 -20 8 -16 17 4 20 0 19 -23 -1 -40 -39 -56 -67 -30 -13 12
-18 24 -13 32 4 7 7 36 7 66 0 30 4 53 10 53 6 0 7 3 3 8 -4 4 -9 5 -10 2 -1
-3 -12 5 -26 17 -13 13 -20 26 -17 30 4 3 7 1 7 -5 0 -7 4 -12 10 -12 5 0 6 8
3 17 -5 12 -2 15 10 10 9 -3 19 -2 22 3 4 6 17 10 31 10 13 0 24 5 24 10 0 18
18 11 25 -9z m-171 -7 c9 -23 8 -24 -13 -24 -14 0 -18 5 -14 20 6 24 19 26 27
4z m356 -7 c0 -5 7 -4 16 4 12 10 17 10 23 1 8 -13 131 -19 149 -8 6 4 8 -2 5
-14 -3 -11 -9 -23 -14 -25 -11 -7 -269 37 -269 46 0 4 20 7 45 7 25 -1 45 -6
45 -11z m295 -15 c2 -23 -11 -28 -35 -12 -10 6 -11 10 -2 10 6 0 12 7 12 16 0
24 23 11 25 -14z m-339 -37 c13 -12 10 -14 -21 -11 -20 2 -39 7 -43 12 -4 4 1
4 10 1 10 -3 20 -2 23 3 8 13 14 13 31 -5z m315 -3 c-7 -2 -18 1 -23 6 -8 8
-4 9 13 5 13 -4 18 -8 10 -11z m-2041 -2 c0 -6 -27 -10 -60 -10 -33 0 -60 4
-60 10 0 6 27 10 60 10 33 0 60 -4 60 -10z m308 -15 c-3 -3 -9 2 -12 12 -6 14
-5 15 5 6 7 -7 10 -15 7 -18z m806 -2 c-2 -38 -4 -41 -13 -18 -9 21 -4 45 8
45 4 0 6 -12 5 -27z m734 -2 c12 -7 8 -9 -18 -7 -19 2 -43 4 -53 5 -10 0 -16
5 -13 10 7 10 60 5 84 -8z m132 15 c0 -3 -4 -8 -10 -11 -5 -3 -10 -1 -10 4 0
6 5 11 10 11 6 0 10 -2 10 -4z m-1834 -41 c-2 -7 -14 -13 -25 -12 -11 0 -17 5
-14 10 3 4 11 6 19 3 9 -4 14 2 15 17 0 12 3 16 6 9 3 -7 2 -19 -1 -27z m124
15 c0 -5 -5 -10 -11 -10 -5 0 -7 5 -4 10 3 6 8 10 11 10 2 0 4 -4 4 -10z m790
1 c0 -5 -7 -11 -15 -15 -15 -5 -20 5 -8 17 9 10 23 9 23 -2z m300 1 c0 -4 -18
-6 -40 -4 -22 2 -40 6 -40 8 0 2 18 4 40 4 22 0 40 -3 40 -8z m580 -8 c0 -2
-11 -4 -25 -4 -14 0 -25 4 -25 9 0 4 11 6 25 3 14 -2 25 -6 25 -8z m-1590 -4
c0 -5 -2 -10 -4 -10 -3 0 -8 5 -11 10 -3 6 -1 10 4 10 6 0 11 -4 11 -10z m510
0 c0 -5 -4 -10 -10 -10 -5 0 -10 5 -10 10 0 6 5 10 10 10 6 0 10 -4 10 -10z
m-780 -26 c0 -11 -6 -15 -20 -11 -11 3 -18 1 -14 -4 7 -11 1 -11 -30 1 -21 8
-24 7 -19 -8 6 -15 5 -15 -10 -3 -10 8 -20 11 -24 7 -3 -3 -1 -6 6 -6 8 0 9
-5 2 -19 -12 -21 -51 -35 -51 -18 0 7 -4 6 -9 -2 -8 -12 -13 -12 -35 3 -23 15
-39 45 -17 32 5 -3 11 4 14 15 4 16 11 20 26 16 12 -3 19 -1 16 3 -3 4 33 9
80 9 72 1 85 -2 85 -15z m1160 2 c0 -11 -19 -15 -25 -6 -3 5 1 10 9 10 9 0 16
-2 16 -4z m-845 -22 c-27 -7 -54 -13 -60 -13 -17 2 69 27 90 27 11 0 -2 -6
-30 -14z m932 10 c-3 -3 -12 -4 -19 -1 -8 3 -5 6 6 6 11 1 17 -2 13 -5z m73
-4 c0 -5 -4 -10 -10 -10 -5 0 -10 5 -10 10 0 6 5 10 10 10 6 0 10 -4 10 -10z
m50 -6 c0 -2 -9 -4 -21 -4 -11 0 -18 4 -14 10 5 8 35 3 35 -6z m-340 -18 c-5
-13 -6 -27 -2 -32 4 -4 1 -4 -6 0 -7 4 -10 11 -7 16 3 5 0 12 -6 16 -8 4 -7 9
2 15 23 15 29 10 19 -15z m-1059 -2 c-18 -8 -37 -12 -41 -9 -4 3 -11 -2 -14
-11 -3 -8 -11 -12 -17 -8 -19 12 28 40 69 41 l37 1 -34 -14z m548 -14 c-10 -7
-10 -11 0 -24 12 -14 11 -16 -7 -16 -39 0 -63 -31 -69 -90 -9 -87 -15 -83 -53
28 -26 77 -27 79 -6 75 12 -2 48 9 81 25 33 16 62 25 64 19 2 -5 -2 -13 -10
-17z m481 6 c0 -10 -34 2 -38 13 -3 10 0 10 17 2 11 -7 21 -13 21 -15z m254
18 c16 -6 22 -54 9 -68 -8 -8 -10 -13 -12 -46 -1 -15 -8 -20 -31 -20 -25 0
-30 4 -30 25 0 20 5 25 28 26 22 1 23 2 5 6 -27 5 -38 35 -23 63 11 21 26 25
54 14z m-584 -39 c0 -5 -5 -3 -10 5 -5 8 -10 20 -10 25 0 6 5 3 10 -5 5 -8 10
-19 10 -25z m490 15 c0 -5 -9 -10 -20 -10 -11 0 -20 5 -20 10 0 6 9 10 20 10
11 0 20 -4 20 -10z m190 -16 c0 -16 -6 -21 -30 -21 -16 0 -30 4 -30 8 0 21 13
34 35 34 19 0 25 -5 25 -21z m-1599 -7 c-10 -9 -11 -8 -5 6 3 10 9 15 12 12 3
-3 0 -11 -7 -18z m449 4 c0 -5 -7 -14 -15 -21 -12 -10 -15 -10 -15 2 0 8 3 18
7 21 9 10 23 9 23 -2z m824 -37 c3 -12 18 -35 34 -52 22 -23 35 -29 60 -27 32
3 45 -16 22 -30 -8 -5 -8 -11 0 -20 14 -17 9 -87 -7 -92 -10 -4 -29 63 -26 94
0 7 -4 11 -9 10 -5 -1 -33 35 -63 80 -32 48 -46 78 -35 71 10 -7 21 -22 24
-34z m-999 27 c-14 -14 -93 -39 -100 -33 -3 3 14 14 37 23 48 20 77 24 63 10z
m-258 -23 c-3 -8 -6 -5 -6 6 -1 11 2 17 5 13 3 -3 4 -12 1 -19z m1393 -7 c0
-46 -10 -61 -39 -60 l-26 1 25 8 c24 8 24 8 3 9 -18 1 -23 7 -23 26 0 19 5 25
23 26 21 1 21 1 -3 9 -24 8 -23 8 8 9 29 1 32 -2 32 -28z m-1034 -19 c-14 -14
-16 -14 -16 -1 0 8 6 21 12 27 9 9 14 10 17 1 2 -6 -4 -18 -13 -27z m138 26
c-6 -10 -5 -10 7 -1 12 10 15 8 16 -8 1 -11 -3 -17 -8 -13 -6 3 -3 -11 6 -32
9 -21 13 -44 11 -51 -3 -7 -1 -15 4 -18 5 -3 7 -12 3 -20 -4 -11 -1 -13 12 -9
15 6 16 4 6 -14 -9 -17 -8 -28 4 -52 14 -28 14 -30 -2 -31 -10 -1 -21 -1 -25
0 -5 0 -8 -4 -8 -9 0 -6 -6 -10 -13 -10 -8 0 -20 -11 -27 -25 -13 -24 -143
-121 -171 -127 -8 -2 -13 3 -11 10 1 6 -5 12 -13 12 -17 0 -20 -16 -5 -25 8
-5 7 -11 -1 -21 -17 -20 -28 -17 -22 6 4 14 0 20 -10 20 -19 0 -53 103 -63
190 l-6 56 60 37 c33 20 62 37 65 37 7 0 36 -119 41 -174 9 -84 19 -65 13 24
-3 47 -12 102 -21 123 l-16 37 37 23 c127 76 150 87 137 65z m1841 2 c3 -5 1
-10 -4 -10 -6 0 -11 5 -11 10 0 6 2 10 4 10 3 0 8 -4 11 -10z m52 4 c-3 -3
-12 -4 -19 -1 -8 3 -5 6 6 6 11 1 17 -2 13 -5z m-827 -14 c-17 -5 -19 -8 -7
-9 11 -1 17 -9 17 -26 0 -21 -5 -25 -30 -25 -29 0 -30 2 -28 35 2 33 4 35 38
34 32 -1 33 -2 10 -9z m91 -7 c7 -10 9 -14 4 -10 -6 5 -15 -6 -21 -25 l-12
-33 -1 36 c-1 30 5 49 14 49 2 0 9 -8 16 -17z m-473 -25 c12 -18 37 -55 57
-83 20 -27 40 -60 45 -72 5 -13 14 -23 19 -23 24 0 16 -51 -23 -163 -29 -82
-45 -115 -49 -103 -4 10 -5 22 -1 27 3 5 1 9 -4 9 -5 0 -9 13 -9 29 0 37 -31
75 -63 79 -40 4 -50 10 -50 32 0 12 -5 30 -11 41 -7 15 -6 32 5 67 8 26 24 80
36 120 11 39 22 72 24 72 2 0 13 -15 24 -32z m1132 18 c0 -2 -7 -7 -16 -10 -8
-3 -12 -2 -9 4 6 10 25 14 25 6z m-1195 -33 c-4 -10 -15 -38 -25 -63 -43 -108
-54 -130 -63 -130 -6 0 -7 25 -3 68 13 135 15 138 75 141 18 1 22 -3 16 -16z
m715 -3 c0 -5 -7 -10 -16 -10 -8 0 -12 5 -9 10 3 6 10 10 16 10 5 0 9 -4 9
-10z m67 -6 c-3 -3 -12 -4 -19 -1 -8 3 -5 6 6 6 11 1 17 -2 13 -5z m90 0 c-3
-3 -12 -4 -19 -1 -8 3 -5 6 6 6 11 1 17 -2 13 -5z m323 -9 c-11 -13 -8 -14 17
-9 22 4 32 2 36 -10 7 -19 -4 -21 -21 -4 -8 8 -15 8 -27 -2 -10 -8 -15 -9 -15
-2 0 6 -8 9 -17 6 -12 -4 -9 1 7 15 30 24 37 27 20 6z m-857 -2 c-7 -2 -19 -2
-25 0 -7 3 -2 5 12 5 14 0 19 -2 13 -5z m230 -41 c-6 -4 -14 -22 -18 -39 -3
-18 -11 -33 -16 -33 -12 0 -12 8 7 71 15 50 17 52 27 31 8 -17 8 -26 0 -30z
m-130 31 c-7 -2 -21 -2 -30 0 -10 3 -4 5 12 5 17 0 24 -2 18 -5z m270 -6 c-2
-4 7 -5 22 -1 25 6 254 -47 284 -66 9 -5 3 -21 -20 -55 l-32 -47 -51 6 c-28 3
-85 17 -125 31 -41 14 -79 25 -85 24 -27 -1 103 -52 167 -65 40 -9 73 -17 76
-19 7 -8 -66 -100 -80 -100 -8 -1 -24 -6 -35 -13 -12 -6 -24 -9 -27 -6 -3 3
-12 2 -19 -2 -7 -5 -25 -9 -40 -9 -20 0 -24 3 -16 13 8 9 6 12 -5 12 -9 0 -19
-4 -22 -10 -6 -10 -59 -3 -90 13 -18 10 -35 14 -72 19 -7 1 -13 4 -13 6 0 3
26 53 57 111 31 58 63 120 71 137 11 23 22 31 38 30 12 0 20 -5 17 -9z m-363
-27 c0 -12 -7 -20 -17 -21 -15 0 -15 -2 -3 -7 18 -8 26 -57 10 -67 -5 -3 -8
-10 -5 -15 3 -4 -3 -7 -12 -5 -10 2 -22 4 -28 5 -5 1 -1 5 10 10 17 7 17 9 3
9 -21 1 -26 51 -5 52 9 0 9 2 0 6 -9 3 -10 10 -3 22 5 10 6 21 3 25 -3 3 6 6
20 6 20 0 27 -5 27 -20z m80 6 c0 -8 6 -17 13 -19 6 -3 -4 -5 -23 -5 -19 0
-30 2 -23 4 7 3 9 12 6 20 -3 8 1 14 11 14 9 0 16 -6 16 -14z m744 -4 c-5 7
-2 9 8 5 9 -3 20 -1 26 5 8 8 16 7 27 -2 12 -10 19 -10 27 -2 17 17 33 15 18
-3 -10 -12 -8 -16 12 -26 14 -6 25 -17 25 -25 0 -18 -6 -18 -28 2 -13 12 -19
12 -25 3 -4 -8 -3 -10 4 -5 7 4 12 3 12 -2 0 -11 50 -35 58 -27 3 3 1 5 -4 5
-6 0 -10 11 -10 24 0 21 4 24 41 22 42 -1 42 0 36 -48 -1 -9 -200 -133 -228
-142 -12 -4 -24 -2 -28 4 -4 6 -13 7 -23 1 -20 -10 -45 -3 -36 11 3 5 -3 4
-15 -4 -12 -7 -21 -16 -21 -20 0 -5 -7 -8 -16 -8 -14 0 -14 3 -3 16 10 13 10
17 -2 25 -11 7 -10 10 9 15 12 4 22 10 22 14 0 17 -34 20 -56 5 -13 -8 -25
-15 -28 -15 -2 0 14 27 36 60 42 63 53 71 63 43 3 -10 17 -26 31 -37 22 -15
28 -16 35 -5 12 19 11 39 -2 39 -5 0 -7 5 -4 10 4 6 -8 10 -28 10 -18 0 -37 3
-40 6 -12 12 13 44 34 44 12 0 17 4 14 11 -4 5 10 3 29 -5 23 -9 34 -11 30 -4z
m161 -7 c-16 -7 -34 -11 -39 -8 -12 8 8 18 41 19 l28 1 -30 -12z m-734 -26 c9
-17 8 -20 -2 -14 -9 6 -10 3 -5 -11 4 -10 4 -15 0 -11 -4 4 -13 -1 -20 -11 -7
-9 -15 -14 -19 -10 -4 4 2 19 14 34 11 14 18 30 15 35 -3 5 -3 9 0 9 3 0 10
-10 17 -21z m-971 -15 c0 -2 -7 -4 -15 -4 -8 0 -15 4 -15 10 0 5 7 7 15 4 8
-4 15 -8 15 -10z m59 -10 c2 -10 8 -25 14 -32 9 -11 12 -11 18 5 7 17 8 17 8
-2 1 -39 -14 -47 -93 -50 -55 -2 -76 0 -73 8 2 7 14 14 28 16 13 1 28 8 32 15
6 8 10 8 14 -1 2 -7 12 -13 21 -13 15 0 15 2 2 10 -12 8 -12 10 -1 10 10 0 12
8 7 31 -4 22 -2 29 7 26 6 -2 14 -12 16 -23z m740 16 c4 0 7 -13 7 -30 0 -26
-3 -30 -28 -30 -23 0 -28 4 -28 25 0 14 5 25 11 25 5 0 7 5 3 12 -5 8 -2 9 10
5 10 -4 21 -7 25 -7z m-689 -10 c0 -5 -4 -10 -10 -10 -5 0 -10 5 -10 10 0 6 5
10 10 10 6 0 10 -4 10 -10z m74 -15 c3 -8 0 -17 -6 -21 -7 -4 -8 -3 -4 4 4 7
2 12 -3 12 -6 0 -11 -7 -11 -15 0 -8 7 -15 16 -15 9 0 13 -5 9 -12 -4 -7 1 -4
9 6 14 17 16 18 16 3 0 -22 19 -22 36 1 12 16 13 15 14 -5 0 -21 -4 -23 -57
-23 l-58 0 1 38 c1 20 2 40 3 44 2 12 29 -2 35 -17z m46 0 c0 -8 -2 -15 -4
-15 -2 0 -6 7 -10 15 -3 8 -1 15 4 15 6 0 10 -7 10 -15z m-253 -21 c-3 -3 -12
-4 -19 -1 -8 3 -5 6 6 6 11 1 17 -2 13 -5z m810 -30 c-3 -3 -12 -4 -19 -1 -8
3 -5 6 6 6 11 1 17 -2 13 -5z m-198 -73 c-12 -34 -23 -60 -25 -58 -2 2 6 32
17 66 12 34 23 60 25 58 2 -2 -6 -32 -17 -66z m1099 23 c-14 -29 0 -44 41 -44
13 0 22 -3 18 -6 -10 -10 -137 -8 -148 3 -7 7 4 19 38 41 59 38 66 39 51 6z
m-1545 -41 c-7 -2 -21 -2 -30 0 -10 3 -4 5 12 5 17 0 24 -2 18 -5z m707 -13
c0 -11 -7 -20 -15 -20 -13 0 -13 3 -3 20 7 11 14 20 15 20 2 0 3 -9 3 -20z
m-1073 -12 c-3 -8 -6 -5 -6 6 -1 11 2 17 5 13 3 -3 4 -12 1 -19z m573 12 c12
-8 9 -10 -13 -10 -16 0 -26 4 -22 10 8 12 16 12 35 0z m503 -37 c-7 -2 -21 -2
-30 0 -10 3 -4 5 12 5 17 0 24 -2 18 -5z m-302 -34 c-5 -13 -10 -19 -10 -12
-1 15 10 45 15 40 3 -2 0 -15 -5 -28z m-1081 -19 c0 -5 -4 -10 -10 -10 -5 0
-10 5 -10 10 0 6 5 10 10 10 6 0 10 -4 10 -10z m1760 -35 c-7 -8 -16 -15 -21
-15 -5 0 -1 8 9 18 20 22 31 19 12 -3z m-1940 11 c0 -2 -7 -7 -16 -10 -8 -3
-12 -2 -9 4 6 10 25 14 25 6z"/>
<path d="M1783 1800 c-15 -23 2 -39 20 -21 9 9 7 11 -8 6 -19 -6 -19 -6 -2 8
18 15 22 27 9 27 -4 0 -13 -9 -19 -20z"/>
<path d="M2350 1711 c0 -6 4 -13 10 -16 6 -3 7 1 4 9 -7 18 -14 21 -14 7z"/>
<path d="M2383 1705 c0 -8 4 -12 9 -9 5 3 6 10 3 15 -9 13 -12 11 -12 -6z"/>
<path d="M2141 1555 c0 -11 4 -27 9 -35 9 -13 10 -13 9 0 0 8 -4 24 -9 35 l-9
20 0 -20z"/>
<path d="M2110 1546 c0 -12 29 -76 34 -76 3 0 -2 17 -11 38 -16 38 -23 50 -23
38z"/>
<path d="M2516 1665 c-3 -8 -1 -15 4 -15 6 0 10 7 10 15 0 8 -2 15 -4 15 -2 0
-6 -7 -10 -15z"/>
<path d="M457 1193 c-12 -11 -8 -23 8 -23 8 0 15 7 15 15 0 16 -12 20 -23 8z"/>
<path d="M750 1160 c0 -5 5 -10 10 -10 6 0 10 5 10 10 0 6 -4 10 -10 10 -5 0
-10 -4 -10 -10z"/>
<path d="M1110 1312 c0 -12 4 -22 9 -22 10 0 9 26 -2 36 -4 4 -7 -2 -7 -14z"/>
<path d="M1092 1294 c1 -12 10 -21 22 -22 15 -1 17 1 7 7 -7 5 -17 15 -22 22
-6 10 -8 8 -7 -7z"/>
<path d="M1110 1212 c0 -23 0 -23 25 -5 31 23 31 33 0 31 -19 -2 -25 -8 -25
-26z"/>
<path d="M1145 1178 c-21 -12 -49 -37 -43 -39 2 0 14 -3 28 -5 14 -3 26 -9 28
-14 2 -5 9 -7 17 -4 7 3 22 1 32 -5 12 -6 24 -6 34 0 12 8 11 12 -5 24 -11 8
-16 15 -12 15 5 0 3 7 -4 15 -7 9 -19 14 -27 11 -8 -3 -11 -1 -8 4 8 13 -15
12 -40 -2z"/>
<path d="M1103 1095 c-7 -8 -9 -16 -4 -19 5 -3 12 1 15 10 8 22 4 25 -11 9z"/>
<path d="M1368 1103 c7 -3 16 -2 19 1 4 3 -2 6 -13 5 -11 0 -14 -3 -6 -6z"/>
<path d="M1310 1076 c0 -2 7 -6 15 -10 8 -3 15 -1 15 4 0 6 -7 10 -15 10 -8 0
-15 -2 -15 -4z"/>
<path d="M1556 1222 c-2 -4 4 -8 14 -8 10 0 16 4 14 8 -3 4 -9 8 -14 8 -5 0
-11 -4 -14 -8z"/>
<path d="M1562 1193 c-12 -2 -20 -9 -17 -14 9 -14 32 -11 39 6 3 8 4 14 3 14
-1 -1 -12 -4 -25 -6z"/>
<path d="M1670 1193 c8 -3 18 -11 22 -17 5 -7 8 -4 8 7 0 11 -7 17 -22 16 -16
0 -18 -2 -8 -6z"/>
<path d="M1665 1170 c3 -5 8 -10 11 -10 2 0 4 5 4 10 0 6 -5 10 -11 10 -5 0
-7 -4 -4 -10z"/>
<path d="M1525 1139 c-10 -16 1 -22 26 -14 17 6 19 9 8 16 -19 12 -26 11 -34
-2z"/>
<path d="M1580 1126 c0 -2 9 -6 20 -9 11 -3 20 -1 20 4 0 5 -9 9 -20 9 -11 0
-20 -2 -20 -4z"/>
<path d="M1525 1089 c7 -11 35 -12 35 -1 0 4 -9 8 -20 9 -11 1 -18 -2 -15 -8z"/>
<path d="M1585 1080 c3 -5 12 -7 20 -3 21 7 19 13 -6 13 -11 0 -18 -4 -14 -10z"/>
<path d="M1606 1047 c3 -10 9 -15 12 -12 3 3 0 11 -7 18 -10 9 -11 8 -5 -6z"/>
<path d="M132 1173 c-30 -12 -36 -33 -11 -33 6 0 7 5 3 12 -4 6 -3 8 4 4 6 -3
26 0 44 9 18 8 25 13 16 11 -9 -3 -18 -1 -20 3 -2 4 -18 2 -36 -6z"/>
<path d="M235 899 c-4 -6 -5 -12 -2 -15 2 -3 7 2 10 11 7 17 1 20 -8 4z"/>
<path d="M190 880 c0 -11 2 -20 4 -20 2 0 6 9 9 20 3 11 1 20 -4 20 -5 0 -9
-9 -9 -20z"/>
<path d="M283 875 c0 -7 6 -11 14 -8 7 3 13 6 13 8 0 2 -6 5 -13 8 -8 3 -14
-1 -14 -8z"/>
<path d="M2138 1083 c7 -3 16 -2 19 1 4 3 -2 6 -13 5 -11 0 -14 -3 -6 -6z"/>
<path d="M2321 911 c-8 -5 -9 -11 -3 -15 5 -3 12 1 16 9 6 17 6 18 -13 6z"/>
<path d="M2050 620 c0 -5 5 -10 11 -10 5 0 7 5 4 10 -3 6 -8 10 -11 10 -2 0
-4 -4 -4 -10z"/>
<path d="M2070 540 c0 -5 4 -10 9 -10 5 0 18 -3 28 -6 16 -5 16 -4 -1 10 -23
18 -36 20 -36 6z"/>
<path d="M2229 507 c6 -8 7 -18 3 -23 -4 -5 -3 -6 2 -2 5 4 15 3 23 -3 10 -9
13 -8 13 4 0 9 -9 21 -19 27 -27 14 -36 13 -22 -3z"/>
<path d="M900 895 c0 -8 5 -15 10 -15 6 0 10 7 10 15 0 8 -4 15 -10 15 -5 0
-10 -7 -10 -15z"/>
<path d="M2008 833 c7 -3 16 -2 19 1 4 3 -2 6 -13 5 -11 0 -14 -3 -6 -6z"/>
<path d="M1225 710 c-4 -6 -11 -7 -17 -4 -7 4 -8 2 -4 -5 6 -9 11 -9 22 0 14
11 18 19 10 19 -3 0 -8 -5 -11 -10z"/>
<path d="M1037 683 c-7 -19 9 -112 17 -102 1 2 0 31 -3 64 -5 45 -8 55 -14 38z"/>
<path d="M1140 680 c0 -5 5 -10 10 -10 6 0 10 5 10 10 0 6 -4 10 -10 10 -5 0
-10 -4 -10 -10z"/>
<path d="M1200 629 c0 -17 4 -28 10 -24 6 3 10 17 10 31 0 13 -4 24 -10 24 -5
0 -10 -14 -10 -31z"/>
<path d="M1190 540 c0 -6 7 -10 15 -10 8 0 15 2 15 4 0 2 -7 6 -15 10 -8 3
-15 1 -15 -4z"/>
<path d="M1760 741 c0 -6 4 -13 10 -16 6 -3 7 1 4 9 -7 18 -14 21 -14 7z"/>
<path d="M1797 737 c-3 -8 3 -13 19 -13 18 0 21 3 12 13 -6 7 -14 13 -18 13
-4 0 -10 -6 -13 -13z"/>
<path d="M1790 665 c-7 -8 -8 -15 -2 -15 5 0 15 7 22 15 7 8 8 15 2 15 -5 0
-15 -7 -22 -15z"/>
<path d="M1762 543 c14 -17 28 -16 28 1 0 8 -9 14 -19 13 -15 -1 -17 -4 -9
-14z"/>
<path d="M381 309 c0 -13 4 -33 9 -44 7 -14 8 -8 3 20 -7 46 -13 59 -12 24z"/>
<path d="M310 299 c0 -11 4 -18 10 -14 5 3 7 12 3 20 -7 21 -13 19 -13 -6z"/>
<path d="M633 295 c0 -8 4 -12 9 -9 5 3 6 10 3 15 -9 13 -12 11 -12 -6z"/>
<path d="M320 235 c0 -8 5 -15 10 -15 6 0 10 7 10 15 0 8 -4 15 -10 15 -5 0
-10 -7 -10 -15z"/>
<path d="M1283 255 c-3 -9 -3 -19 1 -22 3 -4 6 1 6 11 0 10 5 14 12 10 7 -4 8
-3 4 4 -10 16 -15 15 -23 -3z"/>
<path d="M2070 370 c0 -5 7 -10 15 -10 8 0 15 5 15 10 0 6 -7 10 -15 10 -8 0
-15 -4 -15 -10z"/>
<path d="M2155 350 c28 -12 37 -12 30 0 -3 6 -16 10 -28 9 -21 0 -21 -1 -2 -9z"/>
<path d="M2033 323 c9 -2 23 -2 30 0 6 3 -1 5 -18 5 -16 0 -22 -2 -12 -5z"/>
<path d="M2090 310 c8 -5 20 -10 25 -10 6 0 3 5 -5 10 -8 5 -19 10 -25 10 -5
0 -3 -5 5 -10z"/>
<path d="M1765 170 c-3 -5 -2 -10 4 -10 5 0 13 5 16 10 3 6 2 10 -4 10 -5 0
-13 -4 -16 -10z"/>
<path d="M1832 148 c2 -6 10 -13 16 -14 7 -1 8 0 2 3 -5 2 -8 9 -4 14 3 5 0 9
-6 9 -7 0 -10 -5 -8 -12z"/>
<path d="M2427 399 c7 -7 15 -10 18 -7 3 3 -2 9 -12 12 -14 6 -15 5 -6 -5z"/>
<path d="M2325 380 c-15 -6 -9 -9 25 -9 34 0 40 3 25 9 -11 5 -22 9 -25 9 -3
0 -14 -4 -25 -9z"/>
<path d="M2450 375 c-8 -9 -8 -15 -2 -15 12 0 26 19 19 26 -2 2 -10 -2 -17
-11z"/>
<path d="M2488 213 c7 -3 16 -2 19 1 4 3 -2 6 -13 5 -11 0 -14 -3 -6 -6z"/>
<path d="M1046 1868 c19 -39 31 -52 19 -23 -4 11 -7 28 -7 38 0 9 -6 17 -14
17 -12 0 -12 -5 2 -32z"/>
<path d="M1092 1875 c6 -14 13 -24 14 -22 6 6 -9 47 -17 47 -5 0 -3 -11 3 -25z"/>
<path d="M2035 1883 c-12 -9 -14 -13 -5 -11 8 3 25 1 38 -3 26 -10 29 2 4 17
-14 9 -22 8 -37 -3z"/>
<path d="M2610 1892 c0 -18 12 -42 21 -42 14 0 10 26 -6 40 -9 8 -15 8 -15 2z"/>
<path d="M2652 1875 c0 -16 2 -22 5 -12 2 9 2 23 0 30 -3 6 -5 -1 -5 -18z"/>
<path d="M70 1860 c0 -5 7 -7 15 -4 8 4 15 8 15 10 0 2 -7 4 -15 4 -8 0 -15
-4 -15 -10z"/>
<path d="M220 1863 c0 -4 30 -52 66 -106 61 -90 68 -97 83 -83 14 13 20 13 31
3 23 -20 -21 34 -67 82 -29 30 -43 53 -43 72 0 15 -7 29 -16 33 -21 8 -54 8
-54 -1z"/>
<path d="M1130 1861 c0 -6 4 -13 10 -16 6 -3 7 1 4 9 -7 18 -14 21 -14 7z"/>
<path d="M2470 1849 c0 -8 7 -23 15 -33 11 -14 15 -16 15 -5 0 8 -7 23 -15 33
-11 14 -15 16 -15 5z"/>
<path d="M1974 1838 c-3 -5 2 -18 11 -28 9 -10 15 -22 12 -27 -2 -4 8 -21 24
-38 26 -27 29 -28 30 -10 1 11 1 23 0 28 0 4 4 7 9 7 6 0 10 9 10 20 0 11 -5
20 -11 20 -5 0 -8 4 -4 9 3 5 1 12 -4 15 -17 11 -71 14 -77 4z"/>
<path d="M546 1815 c4 -8 8 -15 10 -15 2 0 4 7 4 15 0 8 -4 15 -10 15 -5 0 -7
-7 -4 -15z"/>
<path d="M1112 1795 c0 -16 2 -22 5 -12 2 9 2 23 0 30 -3 6 -5 -1 -5 -18z"/>
<path d="M2510 1779 c0 -5 5 -7 10 -4 6 3 10 8 10 11 0 2 -4 4 -10 4 -5 0 -10
-5 -10 -11z"/>
<path d="M600 1759 c0 -5 -4 -8 -9 -5 -5 3 -11 -1 -15 -9 -8 -21 8 -19 29 5
10 11 13 20 7 20 -7 0 -12 -5 -12 -11z"/>
<path d="M110 1720 c-8 -5 -12 -11 -9 -14 2 -3 11 -1 19 4 8 5 12 11 9 14 -2
3 -11 1 -19 -4z"/>
<path d="M676 1641 c8 -9 44 -11 44 -3 0 4 -11 8 -25 8 -13 0 -22 -2 -19 -5z"/>
<path d="M655 1621 c-3 -6 -13 -7 -23 -4 -9 3 -14 3 -10 -2 4 -4 3 -14 -3 -21
-14 -17 11 -13 41 7 15 10 20 18 13 22 -7 4 -14 3 -18 -2z"/>
<path d="M665 1570 c3 -5 8 -10 11 -10 2 0 4 5 4 10 0 6 -5 10 -11 10 -5 0 -7
-4 -4 -10z"/>
<path d="M445 1529 c-9 -14 -2 -20 14 -10 8 6 9 11 3 15 -6 3 -14 1 -17 -5z"/>
<path d="M489 1513 c-13 -16 -12 -17 4 -4 9 7 17 15 17 17 0 8 -8 3 -21 -13z"/>
<path d="M523 1508 c-6 -7 -13 -20 -17 -28 -7 -13 -6 -13 6 0 8 8 20 21 28 28
8 6 9 12 3 12 -6 0 -15 -6 -20 -12z"/>
<path d="M537 1430 c-27 -28 -45 -50 -41 -50 15 0 104 75 104 87 0 22 -13 14
-63 -37z"/>
<path d="M605 1430 c-3 -5 -1 -10 4 -10 6 0 11 5 11 10 0 6 -2 10 -4 10 -3 0
-8 -4 -11 -10z"/>
<path d="M5 1410 c-3 -5 -1 -10 4 -10 6 0 11 5 11 10 0 6 -2 10 -4 10 -3 0 -8
-4 -11 -10z"/>
<path d="M2541 1344 c0 -11 3 -14 6 -6 3 7 2 16 -1 19 -3 4 -6 -2 -5 -13z"/>
<path d="M737 1336 c-4 -10 -1 -13 8 -9 8 3 12 9 9 14 -7 12 -11 11 -17 -5z"/>
<path d="M667 1175 c-4 -8 -3 -16 1 -19 4 -3 9 4 9 15 2 23 -3 25 -10 4z"/>
<path d="M2651 884 c0 -11 3 -14 6 -6 3 7 2 16 -1 19 -3 4 -6 -2 -5 -13z"/>
<path d="M2615 680 c3 -5 10 -10 16 -10 5 0 9 5 9 10 0 6 -7 10 -16 10 -8 0
-12 -4 -9 -10z"/>
<path d="M360 500 c-13 -8 -13 -10 2 -10 9 0 20 5 23 10 8 13 -5 13 -25 0z"/>
<path d="M116 362 c-3 -4 4 -9 15 -9 23 -2 25 3 4 10 -8 4 -16 3 -19 -1z"/>
<path d="M820 109 c0 -11 4 -18 10 -14 5 3 7 12 3 20 -7 21 -13 19 -13 -6z"/>
<path d="M953 123 c9 -2 23 -2 30 0 6 3 -1 5 -18 5 -16 0 -22 -2 -12 -5z"/>
<path d="M2398 123 c6 -2 18 -2 25 0 6 3 1 5 -13 5 -14 0 -19 -2 -12 -5z"/>
<path d="M171 84 c0 -11 3 -14 6 -6 3 7 2 16 -1 19 -3 4 -6 -2 -5 -13z"/>
<path d="M925 91 c-5 -5 -30 -11 -55 -13 -44 -3 -45 -4 -48 -40 l-3 -38 65 0
c59 0 87 11 54 22 -17 6 -2 37 24 49 23 9 23 9 1 5 -14 -2 -23 2 -25 11 -2 9
-6 11 -13 4z"/>
<path d="M1714 69 c-3 -6 -1 -16 4 -21 8 -8 11 -5 9 11 -1 24 -3 25 -13 10z"/>
<path d="M1567 57 c-10 -27 -9 -57 3 -57 6 0 10 7 10 15 0 8 5 15 10 15 6 0
10 5 10 11 0 5 -4 8 -9 4 -5 -3 -11 3 -13 12 -3 17 -4 17 -11 0z"/>
<path d="M2190 35 c-14 -8 -20 -14 -15 -14 6 0 21 6 35 14 14 8 21 14 15 14
-5 0 -21 -6 -35 -14z"/>
<path d="M180 31 c0 -5 5 -13 10 -16 6 -3 10 -2 10 4 0 5 -4 13 -10 16 -5 3
-10 2 -10 -4z"/>
<path d="M1610 20 c0 -11 5 -20 10 -20 6 0 10 9 10 20 0 11 -4 20 -10 20 -5 0
-10 -9 -10 -20z"/>
<path d="M448 3 c12 -2 30 -2 40 0 9 3 -1 5 -23 4 -22 0 -30 -2 -17 -4z"/>
</g>
</svg>
