<?xml version="1.0" standalone="no"?>
<!DOCTYPE svg PUBLIC "-//W3C//DTD SVG 20010904//EN"
 "http://www.w3.org/TR/2001/REC-SVG-20010904/DTD/svg10.dtd">
<svg version="1.0" xmlns="http://www.w3.org/2000/svg"
 width="275.000000pt" height="183.000000pt" viewBox="0 0 275.000000 183.000000"
 preserveAspectRatio="xMidYMid meet">

<g transform="translate(0.000000,183.000000) scale(0.100000,-0.100000)"
fill="#000000" stroke="none">
<path d="M120 1819 c0 -6 4 -19 10 -29 8 -15 6 -17 -13 -13 -19 4 -20 3 -4 -7
12 -8 17 -24 17 -55 0 -24 5 -47 10 -50 6 -3 10 -30 11 -58 1 -29 4 -63 8 -77
7 -23 8 -24 14 -5 10 29 7 305 -3 305 -5 0 -11 -10 -13 -22 l-4 -23 -8 23 c-7
22 -25 31 -25 11z"/>
<path d="M805 1753 c3 -43 13 -134 20 -203 8 -69 19 -177 25 -240 19 -211 22
-235 27 -243 2 -4 -11 -14 -29 -23 -19 -9 -24 -13 -10 -10 26 5 28 -2 7 -31
-12 -17 -30 -24 -75 -29 -94 -10 -74 -28 24 -21 l84 6 6 -31 c3 -17 6 -45 6
-62 0 -17 9 -111 21 -210 18 -141 20 -182 10 -198 -9 -15 -9 -22 1 -31 19 -19
48 -28 48 -16 0 6 7 9 15 5 10 -3 15 1 15 13 0 11 6 22 13 24 9 4 9 6 0 6 -30
2 -41 54 -37 176 4 127 -3 208 -16 200 -5 -3 -11 16 -15 42 -3 27 -8 56 -10
66 -2 9 1 17 7 17 12 0 7 92 -6 102 -5 3 -10 14 -11 25 -1 10 -5 25 -8 33 -11
29 -21 196 -22 371 -2 206 -12 321 -28 331 -7 4 -25 8 -40 8 l-29 0 7 -77z
m80 -743 c3 -5 -1 -10 -10 -10 -9 0 -13 5 -10 10 3 6 8 10 10 10 2 0 7 -4 10
-10z"/>
<path d="M1410 1790 c0 -29 4 -40 15 -40 11 0 15 11 15 40 0 29 -4 40 -15 40
-11 0 -15 -11 -15 -40z"/>
<path d="M1995 1755 l7 -75 -36 0 c-19 0 -38 -5 -42 -11 -5 -9 1 -10 20 -5 47
12 63 1 62 -43 -1 -22 2 -37 7 -34 4 2 7 -8 7 -24 1 -24 2 -25 11 -10 5 9 17
17 24 17 8 0 15 5 15 11 0 7 10 9 25 5 20 -5 27 -2 33 14 l8 21 21 -21 c12
-11 28 -20 36 -20 23 0 57 36 57 61 0 13 8 33 16 44 15 19 15 18 11 -15 -2
-19 -2 -27 0 -17 6 24 23 21 23 -5 0 -12 3 -19 6 -15 4 3 -1 37 -10 74 -13 51
-15 76 -7 96 10 26 9 27 -24 27 -28 0 -35 -4 -35 -20 0 -11 -4 -20 -10 -20 -5
0 -10 -7 -10 -16 0 -14 -3 -14 -15 -4 -16 14 -20 31 -6 28 9 -3 11 2 11 22 0
6 -42 10 -106 10 l-106 0 7 -75z m265 -15 c0 -5 -4 -12 -10 -15 -5 -3 -10 -4
-10 -1 0 2 -3 12 -6 20 -5 12 -2 15 10 10 9 -3 16 -10 16 -14z m-195 -20 c-3
-5 0 -10 7 -11 10 0 10 -2 -1 -6 -10 -4 -11 -7 -1 -13 19 -12 18 -69 -2 -87
-15 -13 -18 -12 -28 7 -16 29 -15 87 0 105 14 17 35 21 25 5z"/>
<path d="M2403 1800 c4 -20 1 -34 -10 -46 -15 -15 -15 -16 3 -13 11 2 30 -7
42 -19 14 -14 30 -21 41 -17 20 6 46 -18 37 -34 -9 -13 22 -41 44 -41 11 0 24
-9 30 -20 6 -11 17 -20 26 -20 8 0 17 -7 20 -15 4 -8 12 -15 18 -15 7 0 23
-11 36 -25 13 -14 32 -25 42 -25 17 0 18 12 18 160 l0 160 -176 0 -176 0 5
-30z"/>
<path d="M1760 1788 c0 -10 5 -18 10 -18 6 0 10 -6 9 -12 -3 -24 1 -38 11 -38
6 0 10 7 10 15 0 22 17 18 23 -5 4 -16 9 -18 29 -11 29 10 29 19 0 56 -21 27
-25 28 -33 12 -13 -22 -28 -22 -45 1 -13 16 -13 16 -14 0z"/>
<path d="M1921 1764 c0 -11 3 -14 6 -6 3 7 2 16 -1 19 -3 4 -6 -2 -5 -13z"/>
<path d="M1600 1760 c0 -5 5 -10 10 -10 6 0 10 5 10 10 0 6 -4 10 -10 10 -5 0
-10 -4 -10 -10z"/>
<path d="M2310 1733 c0 -10 4 -14 8 -8 4 6 11 13 16 18 5 4 2 7 -7 7 -10 0
-17 -8 -17 -17z"/>
<path d="M1425 1722 c-67 -10 -65 -8 -65 -72 l0 -60 38 0 c32 0 38 4 39 22 1
11 6 24 10 27 4 3 14 14 21 23 12 15 11 21 -5 40 -10 14 -26 22 -38 20z"/>
<path d="M1811 1684 c0 -11 3 -14 6 -6 3 7 2 16 -1 19 -3 4 -6 -2 -5 -13z"/>
<path d="M2320 1680 c0 -5 5 -10 10 -10 6 0 10 5 10 10 0 6 -4 10 -10 10 -5 0
-10 -4 -10 -10z"/>
<path d="M2380 1680 c0 -5 5 -10 10 -10 6 0 10 5 10 10 0 6 -4 10 -10 10 -5 0
-10 -4 -10 -10z"/>
<path d="M1520 1655 c0 -9 6 -12 15 -9 8 4 15 10 15 15 0 5 -7 9 -15 9 -8 0
-15 -7 -15 -15z"/>
<path d="M1955 1620 c3 -5 8 -10 11 -10 2 0 4 5 4 10 0 6 -5 10 -11 10 -5 0
-7 -4 -4 -10z"/>
<path d="M1979 1593 c-13 -16 -12 -17 4 -4 9 7 17 15 17 17 0 8 -8 3 -21 -13z"/>
<path d="M2162 1513 c-13 -19 -21 -37 -19 -39 3 -3 15 11 27 31 12 20 21 38
19 40 -3 2 -15 -12 -27 -32z"/>
<path d="M1848 1533 c7 -3 16 -2 19 1 4 3 -2 6 -13 5 -11 0 -14 -3 -6 -6z"/>
<path d="M1980 1530 c0 -5 7 -10 16 -10 8 0 12 5 9 10 -3 6 -10 10 -16 10 -5
0 -9 -4 -9 -10z"/>
<path d="M2027 1522 c-3 -4 -3 -20 1 -37 4 -26 6 -27 13 -10 11 28 11 55 0 55
-6 0 -12 -3 -14 -8z"/>
<path d="M2181 1424 c-11 -14 -21 -30 -24 -37 -3 -9 -10 -9 -28 0 -22 10 -28
7 -56 -21 -28 -30 -30 -37 -25 -85 4 -42 7 -49 18 -40 11 9 14 7 14 -9 0 -12
-5 -24 -10 -27 -6 -4 -8 -11 -4 -16 3 -6 13 -1 21 11 19 27 34 88 23 95 -4 3
-10 19 -12 35 -5 33 12 51 42 43 11 -3 25 9 43 36 30 46 29 55 -2 15z"/>
<path d="M2625 1439 c-14 -5 -1 -8 39 -8 33 -1 57 1 55 3 -10 9 -76 13 -94 5z"/>
<path d="M527 1423 c-4 -3 -2 -12 4 -19 8 -9 2 -11 -28 -7 -32 4 -45 0 -71
-22 -30 -25 -47 -76 -21 -59 28 17 64 9 82 -19 9 -15 29 -32 43 -38 26 -9 26
-10 9 -29 -16 -18 -17 -20 -2 -20 10 0 17 -7 17 -15 0 -8 7 -15 15 -15 8 0 15
4 15 9 0 5 8 11 19 14 10 2 20 16 23 29 7 35 -16 119 -36 130 -9 5 -16 18 -16
28 0 24 -38 48 -53 33z"/>
<path d="M2378 1402 c-23 -4 -23 -18 -2 -26 20 -8 27 -3 22 16 -1 7 -11 12
-20 10z"/>
<path d="M2720 1390 c0 -11 7 -20 15 -20 8 0 15 9 15 20 0 11 -7 20 -15 20 -8
0 -15 -9 -15 -20z"/>
<path d="M2281 1351 c-10 -7 -7 -9 12 -8 15 1 27 5 27 10 0 10 -22 9 -39 -2z"/>
<path d="M2368 1334 c9 -7 19 -9 22 -5 3 5 12 10 20 13 8 3 -2 5 -22 5 -31 -1
-34 -3 -20 -13z"/>
<path d="M2000 1331 c0 -10 19 -25 25 -20 1 2 -3 10 -11 17 -8 7 -14 8 -14 3z"/>
<path d="M1860 1321 l-25 -8 29 -4 c39 -5 46 -29 9 -30 l-28 -1 30 -7 30 -7
-32 -11 c-18 -7 -33 -16 -33 -21 0 -4 15 -16 33 -25 25 -12 28 -16 12 -17 -20
-1 -20 -1 -1 -15 11 -8 31 -15 45 -15 25 1 26 1 6 16 -20 15 -20 16 -1 29 10
8 24 16 30 18 7 3 2 14 -11 28 -12 13 -23 35 -25 49 -3 27 -25 34 -68 21z"/>
<path d="M2000 1241 c0 -6 5 -13 10 -16 6 -3 10 1 10 9 0 9 -4 16 -10 16 -5 0
-10 -4 -10 -9z"/>
<path d="M507 1180 c-9 -11 -13 -20 -9 -20 10 1 42 26 42 34 0 12 -16 6 -33
-14z"/>
<path d="M2075 1140 c14 -26 14 -33 2 -45 -11 -10 -17 -11 -25 -3 -16 16 -27
2 -13 -16 10 -11 0 -20 -54 -46 -66 -32 -88 -51 -67 -58 7 -2 12 -13 12 -23 0
-11 -4 -17 -10 -14 -5 3 -10 3 -11 -2 0 -4 -2 -21 -3 -37 -1 -15 -10 -34 -19
-41 -16 -11 -16 -13 -1 -19 8 -3 17 -6 20 -6 7 0 42 86 49 122 7 34 10 37 64
50 l58 15 1 -31 c1 -17 6 -71 12 -121 13 -120 13 -132 -2 -117 -19 19 -37 14
-31 -8 5 -17 0 -20 -31 -20 -34 0 -35 -1 -29 -31 4 -23 2 -34 -10 -40 -9 -5
-19 -29 -23 -54 -5 -35 -10 -45 -25 -45 -23 0 -24 18 -4 44 20 26 19 33 -4 39
-14 3 -18 1 -14 -9 5 -14 -15 -74 -25 -74 -2 0 -11 8 -18 17 -11 15 -13 15
-14 3 0 -9 -14 -21 -31 -27 -30 -12 -30 -11 -24 17 3 16 2 31 -4 35 -17 10
-14 48 3 42 8 -3 20 1 26 9 7 8 21 14 31 14 11 0 19 5 19 11 0 8 -18 10 -61 5
-34 -3 -87 -6 -117 -6 -47 0 -53 -2 -42 -15 7 -8 29 -15 48 -15 33 0 35 -1 16
-14 -19 -14 -19 -14 1 -13 16 2 21 -5 23 -33 2 -19 10 -38 17 -43 19 -10 29
-65 15 -82 -19 -23 -3 -35 28 -19 21 11 28 11 31 1 6 -19 23 -26 40 -18 9 5
22 6 30 3 8 -2 11 0 7 6 -11 18 45 25 63 7 23 -20 41 -19 56 2 12 15 18 16 47
5 42 -15 85 -16 93 -1 4 6 24 8 49 5 22 -3 43 -5 45 -5 2 -1 -4 -10 -14 -21
-27 -29 -10 -37 32 -15 20 11 41 19 46 17 5 -1 6 9 3 23 -9 36 2 31 14 -7 8
-26 9 -12 5 61 -4 71 -10 102 -27 132 -12 21 -27 39 -34 39 -23 0 -33 24 -18
44 13 19 14 18 15 -10 0 -16 3 -23 6 -16 2 6 9 12 14 12 6 0 7 -5 3 -11 -3 -6
5 -4 19 6 23 14 25 20 16 43 -14 38 -58 99 -76 106 -12 5 -14 20 -8 84 3 42 8
87 11 100 2 12 0 22 -6 22 -5 0 -10 -10 -10 -21 0 -18 -4 -20 -32 -15 -20 3
-39 0 -48 -7 -16 -13 -20 -64 -7 -84 4 -7 3 -21 -3 -32 -15 -29 -13 -34 11
-28 24 6 38 -5 57 -43 l12 -25 -6 25 c-6 23 -6 24 17 9 24 -16 42 -48 19 -34
-9 5 -11 4 -6 -4 4 -6 12 -9 17 -6 5 4 9 0 9 -7 0 -15 -60 -68 -76 -68 -7 0
-14 -7 -18 -15 -3 -8 -12 -15 -20 -15 -10 0 -13 6 -10 15 4 8 12 15 20 15 8 0
14 7 14 15 0 8 4 15 9 15 12 0 11 59 -1 66 -4 3 -8 14 -8 25 0 10 -4 19 -10
19 -5 0 -10 -4 -10 -10 0 -5 -7 -10 -15 -10 -18 0 -34 55 -42 138 -4 43 -10
62 -19 62 -8 0 -14 11 -14 26 0 17 -4 23 -12 18 -7 -4 -2 6 10 23 27 38 27 43
2 43 -11 0 -20 7 -20 15 0 8 -5 15 -10 15 -6 0 -4 -13 5 -30z m-15 -450 c0
-27 14 -25 27 3 10 21 11 20 18 -16 6 -30 10 -35 21 -26 11 9 14 8 14 -4 0 -8
-7 -20 -15 -27 -8 -7 -15 -19 -15 -27 0 -13 -3 -13 -15 -3 -18 15 -20 37 -3
42 9 3 9 6 0 12 -7 4 -12 3 -12 -3 0 -5 -13 -3 -30 5 -36 19 -43 64 -10 64 13
0 20 -7 20 -20z m170 -143 c11 -29 22 -43 40 -47 53 -12 -6 -25 -130 -27 -69
-2 -164 -6 -211 -9 -75 -6 -87 -4 -92 10 -4 11 -1 19 11 23 9 4 23 12 30 19
11 12 34 16 140 28 39 4 43 2 39 -15 -3 -10 -1 -19 4 -19 5 0 9 6 9 14 0 14
34 30 59 26 29 -3 60 11 66 31 8 26 16 19 35 -34z"/>
<path d="M1937 1134 c-16 -14 -26 -28 -24 -31 3 -2 20 10 38 26 18 17 29 31
24 31 -6 0 -23 -12 -38 -26z"/>
<path d="M2290 1150 c0 -5 5 -10 11 -10 5 0 7 5 4 10 -3 6 -8 10 -11 10 -2 0
-4 -4 -4 -10z"/>
<path d="M2274 1093 c-1 -14 3 -22 10 -20 16 5 19 34 4 39 -8 4 -14 -3 -14
-19z"/>
<path d="M1845 1079 c-4 -6 -4 -13 -1 -16 3 -4 6 -1 6 6 0 8 6 11 16 7 8 -3
12 -2 9 4 -8 13 -22 13 -30 -1z"/>
<path d="M740 1046 c0 -2 8 -10 18 -17 15 -13 16 -12 3 4 -13 16 -21 21 -21
13z"/>
<path d="M2569 1034 c-10 -13 -10 -17 2 -25 22 -14 44 -6 47 19 4 27 -28 31
-49 6z"/>
<path d="M428 965 c-3 -14 -1 -25 3 -25 5 0 9 11 9 25 0 14 -2 25 -4 25 -2 0
-6 -11 -8 -25z"/>
<path d="M645 980 c3 -5 11 -10 16 -10 6 0 7 5 4 10 -3 6 -11 10 -16 10 -6 0
-7 -4 -4 -10z"/>
<path d="M630 961 c8 -6 28 -11 44 -11 39 0 31 6 -19 14 -29 5 -36 4 -25 -3z"/>
<path d="M500 952 c0 -7 -6 -12 -14 -12 -9 0 -12 -7 -9 -20 3 -11 9 -17 14
-14 5 3 9 1 9 -5 0 -6 7 -8 15 -5 21 8 19 24 -2 24 -15 0 -16 2 -3 10 12 7 12
12 2 22 -9 9 -12 9 -12 0z"/>
<path d="M2335 930 c-18 -8 -18 -9 -2 -9 12 -1 17 -7 15 -18 -2 -11 -11 -17
-21 -15 -9 2 -17 -2 -17 -8 0 -5 6 -10 13 -10 10 0 36 -46 41 -72 3 -16 16
-19 16 -3 0 10 9 33 21 51 18 30 19 37 7 61 -14 30 -40 38 -73 23z"/>
<path d="M2559 926 c-19 -7 -42 -10 -49 -8 -11 4 -10 0 2 -12 14 -13 22 -15
38 -6 17 9 22 7 30 -15 11 -28 5 -49 -10 -40 -18 11 -19 -13 -1 -30 19 -16 20
-15 36 9 10 14 23 26 31 26 11 0 11 5 2 28 -22 52 -39 62 -79 48z"/>
<path d="M310 886 c0 -20 59 -68 73 -59 8 5 6 9 -5 11 -10 2 -18 9 -18 17 0 7
-11 20 -25 29 -21 14 -25 14 -25 2z"/>
<path d="M218 873 c6 -3 12 -20 12 -38 0 -50 15 -50 16 -1 1 36 -2 42 -20 43
-11 1 -15 -1 -8 -4z"/>
<path d="M380 860 c0 -5 5 -10 11 -10 5 0 7 5 4 10 -3 6 -8 10 -11 10 -2 0 -4
-4 -4 -10z"/>
<path d="M795 860 c-4 -6 -10 -8 -15 -5 -5 3 -12 0 -15 -6 -5 -6 0 -9 11 -8
11 2 26 -1 34 -6 12 -7 13 -6 3 7 -7 8 -10 18 -6 21 3 4 4 7 0 7 -3 0 -9 -5
-12 -10z"/>
<path d="M2482 856 c7 -8 17 -12 22 -9 4 3 2 9 -5 14 -22 13 -31 11 -17 -5z"/>
<path d="M2728 843 c7 -3 16 -2 19 1 4 3 -2 6 -13 5 -11 0 -14 -3 -6 -6z"/>
<path d="M2520 831 c0 -6 5 -13 10 -16 6 -3 10 1 10 9 0 9 -4 16 -10 16 -5 0
-10 -4 -10 -9z"/>
<path d="M1684 803 c-8 -8 -13 -24 -13 -36 1 -17 2 -18 6 -4 7 26 34 18 46
-15 4 -11 13 -15 26 -11 12 3 21 6 21 8 0 1 -5 16 -11 32 -12 36 -51 49 -75
26z"/>
<path d="M2486 804 c-11 -8 -14 -14 -7 -14 9 0 12 -13 9 -42 -3 -40 -1 -43 27
-49 17 -4 24 -7 18 -8 -24 -2 -13 -16 20 -27 32 -9 33 -9 29 14 -3 13 -11 26
-18 29 -8 3 -14 12 -14 20 0 8 5 11 10 8 6 -3 10 -1 10 4 0 6 -7 11 -16 11
-29 0 -56 20 -45 34 17 20 -1 36 -23 20z m54 -73 c0 -17 -18 -21 -24 -6 -3 9
0 15 9 15 8 0 15 -4 15 -9z"/>
<path d="M98 803 c6 -2 18 -2 25 0 6 3 1 5 -13 5 -14 0 -19 -2 -12 -5z"/>
<path d="M1860 800 c8 -5 20 -10 25 -10 6 0 3 5 -5 10 -8 5 -19 10 -25 10 -5
0 -3 -5 5 -10z"/>
<path d="M2685 791 c7 -12 -35 -42 -47 -35 -4 3 -12 -6 -17 -19 -6 -14 -13
-27 -18 -29 -4 -3 -1 -3 7 0 47 14 50 14 50 -2 0 -12 5 -13 22 -7 28 10 38 85
13 95 -9 3 -13 2 -10 -3z"/>
<path d="M2731 734 c-14 -54 -25 -67 -76 -88 -25 -11 -35 -21 -32 -31 4 -8 2
-17 -4 -21 -6 -3 -8 -12 -5 -19 3 -8 -2 -19 -9 -25 -12 -10 -16 -9 -20 2 -3 8
-5 21 -3 29 2 7 -1 13 -7 14 -20 1 -35 17 -35 36 0 10 -4 19 -10 19 -5 0 -10
-4 -10 -10 0 -14 -27 -12 -33 3 -3 6 -6 0 -6 -14 -1 -15 -7 -29 -15 -32 -8 -3
-19 -34 -26 -75 -7 -45 -18 -77 -31 -88 -10 -9 -19 -20 -19 -24 0 -8 47 -7 56
3 14 14 26 7 14 -8 -15 -18 -15 -18 35 0 22 8 61 14 87 15 25 0 67 9 92 20 37
16 46 24 46 45 0 16 6 25 15 25 13 0 15 22 15 135 0 74 -2 135 -4 135 -2 0 -9
-21 -15 -46z m-231 -169 c0 -21 -11 -45 -21 -45 -5 0 -9 16 -9 35 0 26 3 33
15 29 8 -4 15 -12 15 -19z m80 -44 c0 -5 -7 -11 -15 -15 -9 -3 -15 0 -15 9 0
8 7 15 15 15 8 0 15 -4 15 -9z"/>
<path d="M220 743 c0 -18 5 -44 12 -58 13 -30 -2 -75 -27 -75 -13 0 -17 -10
-30 -72 -4 -22 2 -23 20 -4 10 10 11 16 2 25 -8 8 -8 14 2 24 11 9 14 9 18 0
3 -7 13 -13 24 -13 22 0 54 -44 44 -61 -12 -18 -13 -93 -2 -106 13 -18 64 -16
71 2 7 19 23 19 42 0 26 -25 29 -18 26 55 -2 38 -7 70 -11 70 -4 0 -16 -9 -26
-20 -26 -29 -55 -26 -55 6 0 14 5 35 11 47 11 21 11 21 -7 5 -22 -19 -32 -15
-56 23 -12 19 -16 44 -14 90 3 73 -2 99 -15 77 -7 -11 -11 -10 -19 2 -7 11
-10 8 -10 -17z m170 -273 c0 -5 -4 -10 -9 -10 -6 0 -13 5 -16 10 -3 6 1 10 9
10 9 0 16 -4 16 -10z"/>
<path d="M1700 731 c0 -6 5 -13 10 -16 6 -3 10 1 10 9 0 9 -4 16 -10 16 -5 0
-10 -4 -10 -9z"/>
<path d="M2396 725 c4 -8 1 -22 -6 -30 -15 -18 -5 -51 18 -58 9 -3 24 -8 34
-12 22 -9 29 26 8 43 -13 11 -13 13 3 23 36 21 14 49 -39 49 -17 0 -22 -4 -18
-15z"/>
<path d="M335 720 c-3 -5 -1 -10 4 -10 6 0 11 5 11 10 0 6 -2 10 -4 10 -3 0
-8 -4 -11 -10z"/>
<path d="M1183 719 c-18 -18 -16 -32 2 -25 9 3 15 0 15 -10 0 -9 5 -12 11 -8
7 4 9 0 5 -14 -6 -17 -3 -20 26 -19 30 2 33 -1 36 -29 4 -39 -19 -50 -61 -29
-37 19 -36 19 -34 -2 1 -21 -48 -129 -63 -138 -6 -3 -9 -16 -9 -28 1 -16 3
-17 6 -5 2 9 14 18 26 20 12 2 23 10 23 18 1 8 2 23 3 33 0 9 5 17 10 17 14 0
19 -35 8 -55 -9 -16 -6 -17 29 -12 21 4 43 2 48 -2 7 -6 19 -4 30 5 19 14 19
14 -2 14 -12 0 -22 5 -22 10 0 6 4 10 8 10 5 0 15 11 22 25 7 14 19 25 27 25
15 0 18 16 3 25 -5 3 -7 12 -4 19 3 8 1 17 -5 21 -6 3 -11 26 -11 51 0 49 -12
68 -50 77 -14 3 -34 8 -45 12 -11 3 -26 0 -32 -6z m75 -206 c3 -23 -30 -63
-36 -44 -2 6 1 18 7 25 6 7 8 21 5 31 -5 13 -3 16 7 13 8 -2 15 -14 17 -25z"/>
<path d="M90 705 c0 -2 5 -15 12 -29 9 -20 14 -23 25 -15 18 16 17 43 -2 35
-8 -3 -15 -1 -15 4 0 6 -4 10 -10 10 -5 0 -10 -2 -10 -5z"/>
<path d="M61 683 c-7 -8 -10 -17 -6 -21 3 -3 10 0 15 8 8 13 10 13 10 1 0 -8
3 -12 6 -8 3 3 2 12 -3 20 -7 13 -10 13 -22 0z"/>
<path d="M1907 670 c3 -11 12 -20 19 -20 17 0 18 12 2 28 -18 18 -27 15 -21
-8z"/>
<path d="M814 661 c11 -17 14 -154 4 -180 -7 -19 -3 -28 17 -47 26 -24 34 -19
13 9 -9 12 -12 45 -8 113 5 87 3 97 -14 106 -13 7 -16 7 -12 -1z"/>
<path d="M346 634 c-4 -10 -12 -14 -23 -10 -15 6 -15 5 1 -13 10 -11 24 -17
32 -14 10 4 12 0 8 -11 -4 -11 0 -16 14 -16 11 0 23 -6 25 -12 4 -9 6 -8 6 2
0 21 -32 83 -45 87 -6 2 -14 -4 -18 -13z"/>
<path d="M1610 635 c0 -8 4 -15 9 -15 5 0 11 7 15 15 3 9 0 15 -9 15 -8 0 -15
-7 -15 -15z"/>
<path d="M655 600 c3 -6 -1 -20 -9 -32 -9 -12 -16 -27 -16 -33 1 -5 8 2 16 18
8 15 19 27 24 27 16 0 12 17 -6 24 -8 3 -12 2 -9 -4z"/>
<path d="M1690 595 c7 -8 17 -15 22 -15 5 0 3 7 -6 15 -8 8 -18 15 -22 15 -3
0 -1 -7 6 -15z"/>
<path d="M1637 584 c-8 -8 25 -44 40 -44 16 0 17 22 1 38 -13 13 -31 16 -41 6z"/>
<path d="M1140 573 c0 -6 -8 -13 -19 -16 -10 -2 -21 -17 -24 -33 -6 -35 1 -47
10 -15 4 17 8 19 14 9 7 -10 9 -9 9 5 0 10 4 16 9 13 13 -9 23 26 11 38 -7 7
-10 7 -10 -1z"/>
<path d="M1355 530 c3 -5 8 -10 11 -10 2 0 4 5 4 10 0 6 -5 10 -11 10 -5 0 -7
-4 -4 -10z"/>
<path d="M1695 530 c-5 -9 -4 -15 3 -18 7 -2 10 -8 6 -13 -3 -5 2 -12 10 -15
9 -3 13 -11 9 -18 -3 -6 0 -5 8 2 9 8 10 15 4 20 -6 4 -15 18 -21 31 -8 19
-12 22 -19 11z"/>
<path d="M1595 520 c-3 -5 -1 -10 5 -10 6 0 8 -5 5 -11 -10 -16 27 -40 42 -27
20 16 15 30 -7 23 -16 -5 -20 -2 -20 14 0 22 -14 28 -25 11z"/>
<path d="M100 505 c0 -13 4 -14 23 -4 33 17 33 19 4 19 -18 0 -27 -5 -27 -15z"/>
<path d="M196 512 c-4 -7 -4 -16 -1 -22 3 -5 1 -10 -6 -10 -22 0 -2 -11 25
-14 15 -2 29 1 32 5 3 5 -2 9 -11 9 -8 0 -19 10 -24 22 -5 14 -10 17 -15 10z"/>
<path d="M600 512 c0 -5 -9 -18 -20 -30 -12 -12 -16 -22 -10 -22 5 0 11 -24
12 -52 1 -45 2 -47 5 -15 4 34 6 37 20 25 12 -10 17 -10 20 -1 3 8 12 9 28 3
16 -6 29 -4 41 5 21 16 20 16 -50 21 -27 2 -51 6 -54 9 -3 3 2 19 12 35 9 17
12 30 7 30 -6 0 -11 -4 -11 -8z"/>
<path d="M1440 490 c0 -15 21 -23 32 -12 6 6 2 11 -11 15 -12 3 -21 1 -21 -3z"/>
<path d="M876 445 c-3 -8 -1 -15 4 -15 6 0 10 7 10 15 0 8 -2 15 -4 15 -2 0
-6 -7 -10 -15z"/>
<path d="M540 439 c0 -5 5 -7 10 -4 6 3 10 8 10 11 0 2 -4 4 -10 4 -5 0 -10
-5 -10 -11z"/>
<path d="M1478 443 c7 -3 16 -2 19 1 4 3 -2 6 -13 5 -11 0 -14 -3 -6 -6z"/>
<path d="M1591 434 c0 -11 3 -14 6 -6 3 7 2 16 -1 19 -3 4 -6 -2 -5 -13z"/>
<path d="M185 427 c-17 -13 -17 -14 3 -19 16 -4 20 -1 19 13 -1 11 -2 19 -2
19 -1 0 -9 -6 -20 -13z"/>
<path d="M526 405 c-3 -9 1 -28 9 -43 15 -27 15 -27 9 13 -8 48 -10 51 -18 30z"/>
<path d="M2115 410 c-17 -7 -15 -9 13 -9 17 -1 32 4 32 9 0 12 -17 12 -45 0z"/>
<path d="M2175 410 c3 -5 13 -10 21 -10 8 0 14 5 14 10 0 6 -9 10 -21 10 -11
0 -17 -4 -14 -10z"/>
<path d="M1815 400 c4 -6 11 -8 16 -5 14 9 11 15 -7 15 -8 0 -12 -5 -9 -10z"/>
<path d="M1200 386 c7 -7 13 -7 20 0 6 6 3 10 -10 10 -13 0 -16 -4 -10 -10z"/>
<path d="M638 383 c7 -3 16 -2 19 1 4 3 -2 6 -13 5 -11 0 -14 -3 -6 -6z"/>
<path d="M2425 380 c3 -5 18 -10 32 -10 32 0 28 5 -10 14 -19 4 -26 3 -22 -4z"/>
<path d="M2310 361 c0 -4 11 -6 25 -3 14 2 25 6 25 8 0 2 -11 4 -25 4 -14 0
-25 -4 -25 -9z"/>
<path d="M2438 353 c6 -2 18 -2 25 0 6 3 1 5 -13 5 -14 0 -19 -2 -12 -5z"/>
<path d="M2160 320 c0 -5 5 -10 10 -10 6 0 10 5 10 10 0 6 -4 10 -10 10 -5 0
-10 -4 -10 -10z"/>
<path d="M2458 313 c7 -3 16 -2 19 1 4 3 -2 6 -13 5 -11 0 -14 -3 -6 -6z"/>
<path d="M890 283 c0 -18 2 -33 4 -33 9 0 13 39 5 51 -6 10 -9 4 -9 -18z"/>
<path d="M2458 283 c7 -3 16 -2 19 1 4 3 -2 6 -13 5 -11 0 -14 -3 -6 -6z"/>
</g>
</svg>
