<?xml version="1.0" standalone="no"?>
<!DOCTYPE svg PUBLIC "-//W3C//DTD SVG 20010904//EN"
 "http://www.w3.org/TR/2001/REC-SVG-20010904/DTD/svg10.dtd">
<svg version="1.0" xmlns="http://www.w3.org/2000/svg"
 width="259.000000pt" height="194.000000pt" viewBox="0 0 259.000000 194.000000"
 preserveAspectRatio="xMidYMid meet">

<g transform="translate(0.000000,194.000000) scale(0.100000,-0.100000)"
fill="#000000" stroke="none">
<path d="M55 1909 c-7 -23 -25 -25 -25 -4 0 8 -4 15 -8 15 -4 0 -6 -16 -4 -36
3 -23 7 -31 12 -24 4 7 15 10 24 7 12 -5 16 0 16 19 0 14 4 23 9 19 5 -3 12
-1 15 4 3 5 -3 11 -14 14 -13 3 -21 -1 -25 -14z"/>
<path d="M242 1903 c-24 -27 -22 -63 4 -63 8 0 14 -7 14 -15 0 -9 6 -12 15 -9
8 4 15 1 15 -4 0 -6 14 -10 30 -10 24 1 30 5 30 24 0 13 5 26 11 30 8 5 10 -1
5 -19 -4 -16 -1 -27 7 -31 9 -5 9 -7 -1 -12 -17 -8 -5 -24 13 -17 9 3 15 -1
15 -10 0 -9 -7 -14 -17 -12 -10 1 -12 0 -5 -2 12 -4 18 -43 6 -43 -4 0 -13 8
-20 18 -8 10 -13 12 -14 4 0 -8 -9 -11 -27 -7 l-28 5 28 -12 c29 -13 31 -31 4
-36 -11 -2 -15 1 -12 11 5 10 -5 14 -39 14 -33 0 -43 -4 -39 -14 3 -7 9 -13
13 -13 5 0 12 -9 15 -20 4 -11 11 -18 16 -14 5 3 7 10 4 15 -4 5 -2 9 4 9 18
0 21 -18 7 -50 l-13 -32 -14 31 c-14 31 -24 37 -46 23 -17 -11 1 -37 18 -27 8
5 -2 -8 -21 -28 -41 -43 -60 -47 -60 -12 0 14 4 25 10 25 5 0 7 6 4 14 -8 21
14 56 31 50 8 -4 15 -1 15 5 0 6 -9 11 -19 11 -17 0 -19 7 -18 55 2 39 -1 55
-10 55 -7 0 -13 -6 -14 -12 -1 -7 -4 -2 -8 11 -4 14 -12 26 -19 29 -7 2 -10
-2 -6 -11 3 -9 -3 -28 -12 -43 l-18 -27 23 12 c43 23 48 12 42 -86 0 -13 -8
-23 -16 -23 -17 0 -35 -38 -28 -57 3 -7 0 -13 -6 -13 -6 0 -12 12 -12 28 -1
15 -3 20 -6 11 -3 -11 -11 -15 -26 -12 -17 4 -19 2 -8 -5 13 -9 13 -13 1 -27
-12 -15 -11 -16 15 -9 21 5 26 4 23 -7 -3 -8 -11 -13 -18 -11 -8 2 -10 -3 -7
-13 4 -8 2 -15 -3 -15 -6 0 -10 5 -10 10 0 6 -7 10 -15 10 -8 0 -15 -9 -15
-20 0 -11 5 -20 10 -20 6 0 10 -7 10 -15 0 -11 9 -14 32 -13 28 3 32 0 34 -24
3 -34 -9 -36 -31 -5 l-16 22 -23 -29 c-16 -19 -26 -24 -31 -17 -4 7 -2 18 4
25 10 12 6 26 -8 26 -4 0 -7 -29 -7 -64 0 -56 3 -66 21 -71 13 -4 15 -8 8 -12
-7 -2 -13 -11 -13 -19 0 -9 -4 -12 -10 -9 -6 4 -10 -5 -10 -19 0 -21 5 -26 28
-27 16 -1 20 -3 9 -6 -25 -7 -21 -26 5 -20 13 2 34 1 48 -3 16 -5 19 -8 8 -9
-14 -1 -18 -10 -18 -38 0 -34 3 -38 26 -38 23 0 25 3 19 33 -8 42 1 69 25 75
13 3 17 1 13 -9 -3 -8 -1 -14 5 -14 6 0 12 4 14 9 4 11 198 24 198 13 0 -5 17
-14 38 -22 20 -8 40 -16 45 -18 4 -2 7 7 7 20 1 29 25 64 35 49 3 -6 17 -11
30 -11 18 0 23 4 19 15 -4 9 0 15 7 15 11 0 11 2 -1 10 -12 7 -12 12 -1 34 8
13 11 31 8 39 -3 8 1 26 8 41 8 14 11 27 7 27 -19 3 -48 -4 -55 -15 -4 -6 -6
7 -4 28 4 43 30 63 55 43 11 -9 13 -7 10 9 -2 14 2 18 17 16 17 -3 16 0 -7 20
-32 27 -34 36 -14 52 10 7 13 21 9 39 -7 34 -19 35 -27 3 l-6 -25 -27 25 c-27
25 -43 31 -43 14 0 -5 5 -10 10 -10 6 0 10 -7 10 -15 0 -13 -4 -14 -20 -5 -17
9 -22 7 -28 -11 -11 -27 27 -73 52 -63 17 7 22 34 6 34 -5 0 -10 5 -10 10 0
12 10 13 29 1 12 -7 12 -13 0 -40 -8 -17 -17 -31 -21 -31 -5 0 -17 -9 -28 -20
-19 -19 -19 -22 -5 -36 8 -9 13 -20 10 -25 -13 -20 -26 -7 -37 36 -11 40 -15
45 -40 45 -33 0 -36 -13 -8 -33 l21 -14 -21 -6 c-11 -3 -20 -1 -20 5 0 9 -25
38 -33 38 -2 0 -2 -13 1 -28 2 -18 12 -32 27 -38 18 -7 21 -13 14 -29 -8 -19
-8 -19 -15 3 -5 17 -9 20 -20 11 -16 -13 -43 8 -37 28 6 17 -9 22 -36 12 -20
-8 -21 -11 -10 -25 7 -9 14 -21 15 -28 12 -57 24 -86 24 -58 0 7 5 12 10 12 6
0 10 -9 10 -19 0 -11 5 -23 10 -26 6 -3 10 -14 10 -25 0 -14 -8 -18 -35 -18
-34 0 -35 1 -35 39 0 22 -7 53 -15 69 -9 17 -15 32 -15 35 1 32 -2 45 -10 45
-5 0 -10 -8 -10 -19 0 -10 -6 -23 -13 -29 -10 -8 -16 -4 -26 19 -14 32 -34 40
-29 12 2 -10 -3 -17 -9 -15 -20 3 -15 -8 6 -16 19 -7 19 -9 4 -40 -8 -17 -22
-32 -29 -32 -16 0 -19 16 -5 24 11 7 2 90 -10 94 -5 2 -9 12 -9 23 0 10 -6 19
-13 19 -8 0 -14 7 -14 15 0 22 12 19 49 -15 50 -46 65 -39 59 28 -1 16 2 21 9
17 8 -5 9 -24 5 -55 -4 -30 -3 -50 4 -55 7 -4 11 5 11 24 0 17 5 31 10 31 6 0
10 -4 10 -10 0 -5 9 -10 19 -10 14 0 18 5 14 20 -3 11 -1 20 5 20 5 0 15 14
21 31 9 27 13 30 26 19 8 -7 25 -10 40 -6 34 9 36 62 3 75 -33 12 -45 1 -17
-16 23 -13 23 -14 2 -8 -16 4 -23 2 -23 -7 0 -8 -9 -14 -20 -14 -23 0 -23 25
0 43 8 7 11 13 7 13 -16 0 14 40 31 40 14 0 15 -2 2 -10 -12 -8 -12 -10 3 -15
23 -10 45 15 41 48 -2 19 2 27 13 27 11 0 14 6 8 23 -15 49 -17 77 -5 77 9 0
9 4 -1 17 -12 14 -12 16 0 8 11 -6 13 -4 8 9 -4 10 -7 24 -7 32 0 8 -7 14 -16
14 -12 0 -14 -7 -9 -29 8 -37 -9 -48 -23 -16 -13 29 -30 33 -28 8 0 -11 -6
-17 -16 -17 -10 1 -18 -4 -18 -12 0 -8 -5 -14 -11 -14 -5 0 -7 4 -4 10 3 6 -1
7 -9 4 -9 -3 -16 -2 -16 4 0 6 6 13 13 15 6 3 2 6 -10 6 -14 1 -23 7 -23 17 0
13 6 15 27 9 15 -3 31 -12 35 -18 5 -8 8 -8 8 -1 0 10 -23 34 -45 47 -6 3 -21
-6 -33 -20z m-82 -293 c0 -5 -4 -10 -9 -10 -6 0 -13 5 -16 10 -3 6 1 10 9 10
9 0 16 -4 16 -10z m100 -38 c0 -10 5 -23 12 -30 9 -9 9 -12 0 -12 -7 0 -12 -7
-12 -15 0 -8 -4 -15 -10 -15 -5 0 -7 7 -4 15 4 8 1 15 -5 15 -9 0 -10 32 -2
58 4 11 21 -2 21 -16z m240 3 c0 -9 -6 -12 -15 -9 -8 4 -12 10 -9 15 8 14 24
10 24 -6z m-313 -67 c-3 -8 -6 -5 -6 6 -1 11 2 17 5 13 3 -3 4 -12 1 -19z
m323 -38 c0 -5 -2 -10 -4 -10 -3 0 -8 5 -11 10 -3 6 -1 10 4 10 6 0 11 -4 11
-10z m-9 -91 c-5 -13 -10 -19 -10 -12 -1 15 10 45 15 40 3 -2 0 -15 -5 -28z
m59 27 c0 -3 -4 -8 -10 -11 -5 -3 -10 -1 -10 4 0 6 5 11 10 11 6 0 10 -2 10
-4z m-337 -56 c6 0 1 -9 -11 -20 -29 -28 -35 -25 -27 13 10 44 19 56 23 30 2
-13 8 -23 15 -23z m-163 10 c0 -5 -4 -10 -10 -10 -5 0 -10 5 -10 10 0 6 5 10
10 10 6 0 10 -4 10 -10z m463 -24 c3 -7 1 -18 -5 -24 -8 -8 -8 -16 2 -27 10
-12 10 -15 -4 -15 -9 0 -16 4 -16 10 0 5 -7 7 -15 4 -9 -4 -15 0 -15 10 0 9 7
16 16 16 11 0 14 6 9 20 -7 23 19 29 28 6z m-243 -56 c0 -11 -4 -20 -10 -20
-5 0 -10 9 -10 20 0 11 5 20 10 20 6 0 10 -9 10 -20z m-66 -22 c-4 -6 -10 -5
-15 3 -14 22 -10 33 6 19 8 -7 12 -17 9 -22z m-29 2 c3 -5 1 -10 -4 -10 -6 0
-11 5 -11 10 0 6 2 10 4 10 3 0 8 -4 11 -10z m150 0 c3 -5 -1 -10 -10 -10 -9
0 -13 5 -10 10 3 6 8 10 10 10 2 0 7 -4 10 -10z"/>
<path d="M509 1924 c-1 -5 0 -25 1 -44 2 -40 -12 -33 -18 8 -4 33 -6 35 -28
30 -16 -3 -16 -4 2 -22 10 -11 17 -30 16 -43 -4 -26 10 -30 30 -10 7 8 18 12
25 10 7 -3 9 4 6 18 -6 20 -3 21 21 15 18 -4 25 -3 21 4 -3 5 -13 10 -22 10
-9 0 -25 7 -35 17 -10 9 -18 12 -19 7z"/>
<path d="M1104 1908 c17 -26 8 -47 -14 -33 -13 8 -13 -5 0 -25 9 -13 10 -13
10 0 0 13 1 13 10 0 5 -9 5 -19 0 -24 -13 -13 12 -36 27 -24 10 8 9 17 -3 40
-9 18 -12 33 -6 37 5 3 -2 17 -16 31 l-24 25 16 -27z"/>
<path d="M1146 1921 c-12 -5 -15 -10 -9 -14 6 -4 16 0 23 8 14 17 13 17 -14 6z"/>
<path d="M1267 1914 c6 -15 23 -19 23 -5 0 5 -7 11 -14 14 -10 4 -13 1 -9 -9z"/>
<path d="M1334 1919 c-3 -5 -1 -9 3 -9 5 0 9 -16 9 -35 0 -40 9 -54 26 -37 16
16 28 15 28 -3 0 -8 6 -12 13 -10 6 2 20 -7 30 -21 21 -28 16 -44 -7 -25 -27
22 -36 1 -10 -24 19 -19 23 -30 18 -57 -4 -18 -17 -43 -30 -56 -13 -13 -24
-29 -24 -37 0 -25 -17 -16 -26 13 -4 15 -7 30 -6 35 1 4 -3 7 -8 7 -5 0 -10
-5 -10 -12 0 -6 -3 -9 -6 -6 -3 3 2 22 10 42 l15 36 -30 0 c-18 0 -29 -5 -29
-14 0 -8 -8 -17 -17 -20 -14 -6 -14 -8 5 -22 23 -16 31 -49 10 -41 -7 2 -12
10 -10 16 1 7 -2 9 -8 6 -7 -4 -14 2 -17 14 -3 12 -12 21 -19 21 -20 0 -17
-10 11 -31 29 -24 24 -55 -7 -38 -11 6 -27 7 -36 3 -9 -4 -20 -7 -24 -6 -4 1
-5 -6 -2 -16 3 -9 -4 -5 -16 11 -12 15 -28 27 -36 27 -9 0 -12 5 -9 10 4 6 11
8 16 5 23 -15 6 20 -23 46 -26 22 -29 29 -15 29 10 0 15 -4 12 -10 -3 -5 -2
-10 3 -10 5 0 9 15 8 33 -1 32 -2 33 -26 20 -34 -17 -40 1 -33 96 4 55 3 72
-5 67 -7 -4 -12 -16 -12 -27 0 -10 -4 -19 -10 -19 -5 0 -10 -7 -10 -16 0 -13
-3 -14 -14 -5 -10 9 -15 8 -20 -4 -3 -9 0 -15 8 -15 9 0 12 -9 8 -27 l-5 -26
-18 22 c-23 28 -24 19 -3 -43 15 -45 15 -48 -2 -61 -22 -16 -34 -11 -34 16 0
10 -5 19 -10 19 -6 0 -8 -13 -5 -29 4 -25 2 -28 -15 -24 -16 4 -20 0 -20 -17
0 -16 -4 -20 -16 -16 -9 3 -18 6 -20 6 -2 0 -4 12 -4 26 0 19 -4 25 -15 21
-11 -5 -13 0 -8 26 7 39 23 59 24 32 0 -16 3 -15 10 6 7 20 16 26 39 26 17 0
30 -6 30 -13 0 -7 -8 -10 -20 -7 -11 3 -20 0 -20 -6 0 -5 7 -8 15 -5 8 4 15 2
15 -3 0 -5 7 -10 16 -10 11 0 14 7 10 21 -3 12 -6 26 -6 32 0 7 -11 9 -25 6
-27 -5 -34 12 -10 25 18 10 9 53 -11 53 -8 0 -14 -5 -14 -11 0 -5 5 -7 10 -4
6 3 10 -1 10 -9 0 -9 -4 -16 -9 -16 -5 0 -14 -13 -21 -30 -7 -16 -16 -27 -21
-25 -10 7 -41 -50 -32 -59 4 -3 -1 -6 -10 -6 -9 0 -21 -9 -27 -20 -7 -14 -7
-20 0 -20 18 0 11 -35 -11 -54 -21 -18 -22 -18 -16 3 7 28 -9 37 -23 12 -7
-13 -7 -22 0 -26 19 -12 10 -26 -12 -20 -13 3 -18 3 -12 -2 6 -4 14 -16 17
-27 6 -15 10 -16 22 -6 14 11 19 7 16 -12 0 -5 3 -8 9 -8 5 0 10 -13 10 -30 0
-16 -4 -30 -10 -30 -5 0 -10 -9 -10 -21 0 -16 4 -19 22 -14 16 6 20 4 15 -8
-4 -11 -2 -14 9 -10 11 4 14 -4 13 -38 0 -39 -2 -41 -11 -21 -12 23 -32 29
-43 12 -4 -6 -9 -8 -13 -6 -4 2 -15 -2 -25 -9 -12 -8 -14 -15 -8 -20 6 -3 11
-14 11 -23 0 -15 -2 -15 -10 -2 -8 12 -10 12 -10 -5 -1 -16 -4 -14 -17 10 -21
39 -32 46 -67 43 -36 -4 -43 11 -18 40 18 21 39 31 28 14 -2 -4 -1 -14 5 -22
6 -11 9 -11 9 -2 0 10 5 10 20 2 24 -13 26 -7 4 14 -8 9 -10 16 -4 16 8 0 8 6
-1 21 -10 20 -9 21 19 17 24 -3 32 0 38 16 13 39 11 52 -7 53 -17 2 -25 -18
-20 -49 0 -5 -6 -8 -14 -8 -18 0 -17 -3 -6 37 9 30 8 31 -22 36 -47 7 -62 -1
-42 -23 15 -17 15 -19 -4 -25 -22 -7 -26 -16 -14 -29 10 -9 11 -46 2 -46 -14
0 -40 -58 -29 -65 6 -4 8 -11 4 -16 -3 -5 -1 -16 6 -24 9 -11 7 -12 -8 -8 -18
4 -19 2 -8 -31 12 -39 38 -48 54 -20 14 25 35 8 21 -18 -10 -18 -8 -19 13 -13
12 4 27 11 33 16 13 13 59 11 72 -2 8 -8 13 -6 17 9 8 24 35 37 50 22 7 -7 5
-10 -4 -11 -33 -1 28 -18 69 -18 35 -1 42 2 37 15 -3 9 -6 19 -6 24 0 9 -19 8
-36 -3 -7 -4 -14 2 -18 16 -3 12 -1 23 4 25 5 2 6 10 3 19 -4 11 -2 14 8 11 8
-3 12 -14 11 -24 -3 -14 1 -12 18 9 12 16 28 26 35 23 9 -3 12 3 10 22 -2 21
4 32 30 49 36 23 50 21 36 -6 -5 -9 -7 -27 -5 -40 3 -14 -3 -29 -13 -37 -17
-13 -17 -15 0 -25 23 -14 22 -33 -2 -26 -12 3 -22 -1 -25 -9 -10 -27 -26 -14
-19 16 3 17 1 30 -4 30 -5 0 -10 -16 -11 -35 -1 -19 3 -35 9 -35 6 0 8 -4 5
-9 -8 -12 47 -9 56 4 5 6 8 5 8 -2 0 -9 14 -11 48 -7 26 3 43 2 37 -3 -5 -4
-11 -20 -13 -35 -2 -24 1 -28 22 -28 22 0 23 2 16 35 -6 27 -5 35 6 35 8 0 14
4 14 9 0 12 99 19 103 7 4 -12 121 -8 125 5 2 5 12 9 23 9 25 0 59 35 59 61 0
21 -1 21 -26 4 -22 -14 -28 -15 -35 -4 -10 15 -12 7 -10 -31 2 -25 2 -25 -13
3 -14 25 -14 30 -1 44 8 8 15 28 15 44 0 17 4 28 10 24 5 -3 7 -12 3 -20 -3
-8 0 -15 6 -15 6 0 11 5 11 10 0 6 5 10 10 10 6 0 10 -7 10 -15 0 -8 5 -15 11
-15 6 0 8 9 4 21 -5 15 -4 19 4 15 6 -4 11 -1 11 6 0 9 3 9 10 -2 8 -13 10
-13 10 2 0 9 5 18 12 20 15 5 -5 64 -21 60 -6 -1 -11 2 -11 8 0 5 5 10 10 10
6 0 12 0 15 0 3 0 5 -3 4 -6 0 -4 12 -15 28 -25 15 -10 23 -19 17 -19 -13 0
-7 -47 7 -56 5 -3 9 -21 9 -41 l0 -36 -19 21 c-23 28 -75 31 -67 5 3 -10 -1
-31 -9 -47 -8 -15 -15 -29 -15 -30 0 0 25 1 56 2 39 3 54 1 50 -7 -5 -7 2 -11
17 -11 14 0 25 -6 24 -12 0 -7 1 -26 1 -42 2 -26 5 -28 29 -21 37 9 38 10 26
50 -9 29 -9 35 4 35 8 0 11 5 8 10 -8 13 36 13 70 0 17 -7 24 -7 20 0 -3 6
-13 10 -21 10 -8 0 -14 5 -14 10 0 12 6 13 28 1 9 -5 55 -6 102 -2 l85 6 3 49
c2 27 10 55 17 63 16 15 29 18 20 3 -3 -5 1 -10 10 -10 9 0 14 4 10 9 -3 5 -1
12 4 15 5 3 11 -1 15 -9 3 -9 -4 -21 -19 -31 -14 -9 -25 -21 -25 -26 0 -5 7
-2 16 7 9 9 19 14 22 11 9 -10 10 -56 1 -56 -5 0 -9 -4 -9 -10 0 -5 7 -10 15
-10 8 0 15 -4 15 -10 0 -5 5 -10 11 -10 5 0 7 5 4 10 -4 6 8 11 29 11 20 1 41
3 46 4 6 1 19 3 30 4 15 1 20 8 20 27 0 16 5 24 13 21 7 -2 11 -16 9 -35 l-4
-32 54 -1 c29 0 48 -3 42 -5 -16 -7 -4 -56 19 -78 20 -20 20 -19 14 7 -4 15
-10 38 -13 52 -5 19 -2 25 11 25 9 0 14 3 11 8 -2 4 2 16 10 27 11 15 14 16
14 3 0 -25 64 -41 72 -18 2 6 26 12 54 14 29 2 57 6 63 10 6 4 11 2 11 -3 0
-6 6 -11 14 -11 11 0 14 16 14 70 0 38 -4 72 -9 76 -5 3 -9 -2 -9 -10 0 -17
-30 -36 -56 -36 -14 0 -15 3 -6 12 17 17 15 29 -3 22 -8 -4 -15 -3 -15 0 0 6
49 29 60 29 3 0 13 9 23 19 19 20 18 20 -2 13 -12 -4 -21 -2 -21 4 0 6 6 11
14 11 22 0 24 42 4 64 -20 22 -23 36 -8 36 6 0 10 7 10 15 0 8 -8 15 -17 15
-13 0 -14 3 -5 12 18 18 15 33 -4 17 -13 -11 -14 -9 -9 13 4 15 2 29 -4 32 -6
4 -11 13 -11 19 0 7 4 6 11 -3 8 -12 9 -11 6 5 -2 11 -9 19 -17 17 -11 -3 -11
0 -1 12 7 9 17 13 22 10 5 -3 9 0 9 5 0 6 -10 10 -22 8 -18 -1 -23 3 -22 20 0
17 -4 22 -20 19 -23 -3 -35 -26 -14 -26 8 0 19 -5 24 -10 12 -12 -38 -71 -71
-84 -20 -7 -20 -8 -1 -22 27 -20 36 -18 36 9 1 20 2 20 11 5 14 -25 33 -23 19
1 -14 27 -13 41 5 41 8 0 16 -8 16 -17 1 -10 2 -33 4 -52 2 -26 -2 -35 -16
-38 -18 -5 -28 -33 -11 -33 4 0 8 -11 8 -24 2 -22 -1 -21 -38 15 -22 21 -44
39 -49 39 -5 0 -9 5 -9 11 0 6 7 8 16 5 10 -4 14 -2 11 6 -2 7 -10 12 -16 10
-7 -1 -10 2 -7 7 4 5 2 13 -4 16 -6 4 -15 -7 -21 -24 -6 -17 -15 -31 -20 -31
-5 0 -9 -9 -9 -20 0 -21 -14 -27 -25 -11 -3 5 2 16 11 25 8 9 14 24 13 33 0
10 -1 25 0 33 1 13 2 13 11 0 8 -12 10 -11 10 8 0 25 -21 29 -39 8 -6 -7 -12
-36 -13 -65 -2 -34 -7 -50 -14 -47 -15 6 -26 -32 -12 -40 5 -3 15 2 23 12 7
11 16 16 20 13 13 -14 -48 -61 -84 -64 -19 -2 -37 -7 -38 -12 -10 -28 -30 -57
-42 -61 -8 -3 -11 0 -8 5 4 6 0 19 -8 29 -8 10 -15 30 -15 44 -1 24 -1 24 -12
5 -16 -30 -18 -31 -28 -15 -5 8 -14 16 -20 16 -5 1 -14 2 -20 3 -5 0 -10 17
-10 36 0 22 -6 38 -17 44 -15 9 -16 12 -4 20 15 10 6 35 -10 26 -5 -4 -9 0 -9
7 0 8 -13 22 -30 31 -27 16 -30 17 -30 2 0 -9 4 -14 9 -10 5 3 13 0 17 -6 5
-8 0 -10 -17 -6 -37 9 -52 -4 -33 -31 18 -25 34 -29 34 -7 0 21 20 19 21 -2 0
-11 3 -13 6 -5 9 23 28 12 29 -18 1 -16 -3 -27 -7 -24 -5 3 -9 0 -9 -5 0 -6 9
-11 21 -11 16 0 19 -4 14 -20 -4 -11 -2 -20 4 -20 6 0 11 -11 11 -24 0 -24 36
-44 43 -23 3 11 27 1 27 -12 0 -5 -10 -11 -22 -14 -13 -2 -31 -8 -40 -12 -14
-5 -18 -2 -18 13 0 11 -7 33 -15 48 -16 31 -15 33 -19 -37 -1 -16 3 -25 9 -23
6 3 17 -7 23 -21 11 -24 10 -25 -7 -15 -11 5 -37 10 -58 10 -36 1 -37 2 -19
15 16 12 17 15 4 15 -9 0 -19 7 -22 16 -4 9 -13 14 -21 10 -16 -6 -21 19 -6
28 11 7 2 46 -10 46 -5 0 -9 -6 -10 -12 -1 -7 -2 -20 -3 -28 -2 -8 -4 -28 -5
-45 -2 -26 -3 -28 -11 -10 -5 11 -9 14 -9 6 -1 -8 -8 -11 -20 -8 -15 4 -20 -2
-23 -24 -4 -27 -2 -29 26 -29 l31 0 -34 -17 c-19 -9 -36 -25 -39 -35 -2 -10
-9 -18 -14 -18 -5 0 -7 9 -3 19 3 11 -1 25 -10 34 -19 19 -36 63 -28 71 15 14
25 4 19 -19 -8 -33 15 -33 30 -1 9 19 9 26 -1 30 -13 4 -45 61 -45 78 0 4 4 8
9 8 9 0 27 -39 23 -51 -1 -4 8 -5 18 -2 14 4 20 0 20 -13 0 -9 3 -15 6 -12 3
3 0 25 -7 48 -10 33 -10 43 0 49 9 6 8 11 -3 21 -9 7 -13 17 -9 24 4 7 2 8 -5
1 -6 -5 -12 -22 -14 -37 l-3 -26 -24 19 c-19 16 -22 22 -12 29 8 4 10 13 7 19
-12 18 -26 12 -26 -10 0 -18 -2 -20 -15 -9 -9 7 -13 20 -10 28 9 25 -5 53 -23
48 -9 -3 -30 1 -46 9 -33 18 -46 19 -46 5 0 -5 3 -9 8 -8 17 4 62 -15 62 -27
0 -19 -28 -38 -45 -31 -9 3 -15 0 -15 -9 0 -21 52 -14 72 10 17 20 17 20 19
-5 1 -14 0 -29 -1 -35 -1 -5 -5 -19 -7 -30 -5 -20 -5 -20 9 -1 20 25 52 15 43
-14 -4 -13 -1 -22 9 -26 9 -3 16 -10 16 -15 0 -16 -21 -9 -42 14 -11 12 -17
16 -13 10 3 -7 2 -13 -3 -13 -13 0 -3 -37 19 -74 10 -16 15 -35 12 -42 -3 -8
1 -14 11 -14 10 0 16 -8 16 -22 0 -21 -1 -21 -16 -6 -9 9 -26 40 -38 70 -13
33 -28 54 -40 56 -11 3 -16 0 -12 -7 5 -7 1 -9 -8 -5 -17 7 -22 30 -7 36 5 2
12 20 16 41 6 30 4 37 -9 37 -12 0 -14 -7 -9 -30 8 -44 -14 -38 -27 8 -6 20
-17 46 -25 56 -14 19 -15 18 -15 -13 0 -19 4 -30 10 -26 6 3 10 1 10 -4 0 -6
-4 -11 -9 -11 -18 0 -18 -47 1 -59 17 -11 26 -41 11 -41 -4 0 -18 12 -30 27
-13 14 -23 20 -23 13 0 -8 -4 -9 -12 -3 -9 7 -22 5 -43 -8 -16 -11 -26 -19
-21 -19 5 0 -1 -12 -15 -27 -13 -14 -18 -23 -12 -19 9 5 11 2 7 -8 -5 -12 -9
-13 -18 -3 -19 19 -27 47 -12 41 10 -4 12 4 10 29 -3 26 0 36 13 41 15 6 15 8
3 16 -13 8 -12 10 3 10 10 0 16 4 12 10 -3 5 -13 6 -23 3 -9 -3 -13 -2 -9 3 9
9 77 14 77 6 0 -3 -7 -14 -17 -24 -23 -25 -9 -34 22 -14 22 14 25 15 25 1 0
-8 5 -15 10 -15 6 0 10 9 10 20 0 18 -11 25 -33 21 -5 -1 -1 9 7 21 20 29 21
52 1 44 -8 -3 -15 0 -16 7 0 7 -3 26 -5 42 -3 17 -7 37 -8 45 -1 8 -7 24 -14
36 -8 16 -8 24 1 34 10 12 9 12 -5 1 -10 -7 -15 -18 -11 -24 3 -6 1 -7 -6 -3
-6 4 -9 11 -6 16 3 4 -2 13 -11 20 -8 7 -13 19 -10 27 3 7 1 13 -5 13 -5 0
-12 -7 -15 -15 -4 -8 -10 -15 -15 -15 -5 0 -9 7 -9 15 0 8 -5 15 -11 15 -6 0
-9 6 -6 14 6 16 -30 30 -39 15z m-294 -153 c0 -15 7 -26 20 -29 13 -3 18 -10
14 -21 -3 -9 -1 -16 6 -16 6 0 8 -5 5 -11 -4 -6 -13 -8 -21 -5 -7 3 -18 -3
-23 -12 -10 -16 -10 -16 -11 0 0 9 -3 24 -7 34 -5 13 -3 15 7 9 9 -5 11 -4 6
4 -4 6 -12 9 -17 6 -17 -11 -23 27 -6 40 9 7 14 15 10 18 -3 4 -1 7 5 7 7 0
12 -11 12 -24z m450 -32 c0 -3 -5 -14 -10 -24 -8 -16 -8 -18 5 -14 10 4 15 0
15 -10 0 -14 -4 -15 -20 -6 -27 15 -26 60 2 60 4 0 8 -3 8 -6z m-458 -79 c16
-19 17 -19 18 -1 0 13 5 16 17 12 9 -4 20 -1 25 6 6 10 8 9 8 -3 0 -9 -7 -19
-15 -23 -8 -3 -15 -10 -15 -16 0 -5 7 -10 15 -10 8 0 15 -4 15 -10 0 -5 -10
-8 -22 -6 -13 2 -22 9 -21 15 2 5 -4 8 -12 5 -18 -7 -19 -16 -3 -32 9 -9 9
-12 0 -12 -7 0 -12 -5 -12 -10 0 -5 5 -9 11 -7 6 1 14 -4 16 -10 3 -7 -2 -13
-10 -13 -18 0 -29 24 -20 45 3 10 0 15 -8 13 -10 -2 -13 6 -11 31 4 32 3 34
-14 20 -11 -8 -15 -9 -10 -1 4 7 2 12 -4 12 -6 0 -8 5 -5 10 10 15 38 8 57
-15z m288 15 c0 -5 -2 -10 -4 -10 -3 0 -8 5 -11 10 -3 6 -1 10 4 10 6 0 11 -4
11 -10z m170 -11 c0 -5 5 -7 10 -4 6 3 10 2 10 -3 0 -14 -35 -21 -51 -11 -11
7 -11 9 -1 9 7 0 10 5 7 10 -3 6 1 10 9 10 9 0 16 -5 16 -11z m920 -32 c-1
-21 -1 -21 -14 -4 -12 16 -14 16 -20 1 -3 -9 -4 -20 0 -25 3 -5 0 -9 -5 -9 -6
0 -11 -7 -11 -15 0 -8 9 -15 19 -15 26 0 34 -15 16 -30 -8 -7 -12 -24 -10 -42
5 -37 8 -41 32 -35 16 4 16 5 -3 12 -16 5 -20 13 -16 31 2 13 9 24 14 24 6 0
7 11 4 24 -6 25 8 44 19 26 3 -5 12 -10 18 -10 7 0 2 8 -10 18 -15 11 -20 21
-14 31 5 7 14 10 20 7 6 -4 9 -12 6 -17 -3 -5 1 -6 9 -3 9 3 16 2 17 -2 0 -5
2 -21 4 -36 2 -19 -1 -28 -11 -28 -8 0 -14 -7 -14 -15 0 -8 -9 -15 -20 -15
-11 0 -20 -4 -20 -10 0 -5 6 -10 14 -10 21 0 35 -22 39 -63 5 -46 0 -47 -19
-2 -9 24 -19 33 -29 29 -8 -4 -15 -10 -15 -15 0 -5 -5 -9 -11 -9 -5 0 -7 5 -4
10 3 6 1 10 -5 10 -17 0 -24 -31 -9 -41 10 -6 11 -9 1 -9 -17 0 -26 26 -16 48
8 19 8 23 -1 75 -3 20 -10 37 -15 37 -6 0 -6 -10 0 -26 13 -32 13 -74 1 -74
-5 0 -12 13 -16 30 -4 16 -11 32 -16 35 -14 9 -11 45 5 51 8 3 17 20 20 38 4
21 15 37 29 43 28 13 37 8 37 -20z m-1550 1 c0 -7 -4 -19 -9 -26 -7 -11 -10
-10 -15 3 -3 9 -4 21 0 26 8 13 24 11 24 -3z m-40 -28 c0 -11 6 -20 13 -20 9
0 9 -2 0 -8 -9 -6 -5 -13 12 -26 18 -14 25 -28 25 -54 0 -30 2 -33 16 -21 9 7
14 22 11 35 -2 14 2 25 9 28 8 3 14 13 14 22 0 10 5 14 15 10 8 -3 15 0 15 6
0 16 13 1 16 -18 2 -10 -3 -14 -11 -10 -19 7 -30 -13 -16 -27 8 -8 11 -7 11 3
0 7 3 10 7 7 3 -4 16 2 28 13 20 18 23 19 35 5 7 -8 19 -15 26 -15 16 0 19
-36 5 -45 -5 -3 -13 5 -17 17 -16 52 -51 43 -59 -16 -6 -36 -10 -42 -31 -41
-14 0 -28 6 -33 13 -5 9 -11 5 -19 -13 -11 -23 -14 -24 -26 -12 -9 8 -13 25
-10 38 5 22 4 22 -11 -4 -19 -33 -39 -25 -32 13 3 15 2 31 -3 36 -5 5 -11 30
-14 57 -5 38 -3 47 9 47 8 0 15 -9 15 -20z m88 2 c2 -7 -3 -12 -12 -12 -9 0
-16 7 -16 16 0 17 22 14 28 -4z m40 1 c-5 -25 -28 -28 -28 -4 0 12 6 21 16 21
9 0 14 -7 12 -17z m1598 2 c-3 -9 0 -15 9 -15 8 0 15 -4 15 -10 0 -5 -7 -10
-15 -10 -8 0 -15 -9 -15 -19 0 -39 -16 -28 -17 12 -1 23 3 45 10 49 17 11 20
10 13 -7z m-1226 -17 c0 -5 -5 -6 -10 -3 -6 3 -14 -4 -19 -17 -6 -13 -10 -21
-11 -18 -6 21 -8 45 -4 51 6 10 44 -1 44 -13z m36 -4 c-6 -23 -4 -25 15 -19
19 6 21 4 16 -14 -3 -14 0 -21 10 -21 13 0 13 -2 -1 -15 -14 -14 -57 -21 -68
-10 -8 8 15 105 25 105 5 0 6 -12 3 -26z m-210 -6 c0 -13 -4 -26 -9 -30 -13
-8 -37 1 -37 14 0 5 5 6 10 3 6 -3 10 3 10 14 0 12 6 21 13 21 7 0 13 -10 13
-22z m97 -13 c-3 -8 -15 -15 -27 -15 -15 0 -17 -3 -7 -9 10 -7 10 -10 1 -16
-7 -4 -17 -1 -22 6 -7 10 -8 8 -5 -9 3 -12 2 -20 -3 -17 -13 8 -18 42 -9 56 7
12 9 11 9 -1 0 -9 3 -11 8 -5 10 15 46 33 54 28 4 -2 5 -10 1 -18z m-340 -18
c-3 -5 -10 -4 -15 1 -6 6 -7 16 -3 22 6 9 9 9 16 -1 4 -7 5 -17 2 -22z m1607
3 c0 -5 -2 -10 -4 -10 -3 0 -8 5 -11 10 -3 6 -1 10 4 10 6 0 11 -4 11 -10z
m-1830 -25 c0 -12 -19 -12 -23 0 -4 9 -1 12 9 8 7 -3 14 -7 14 -8z m578 -22
c1 -23 -2 -33 -7 -25 -4 7 -16 10 -27 7 -18 -6 -18 -6 -2 8 10 8 15 17 12 20
-3 3 -3 10 1 16 12 21 22 10 23 -26z m-106 -3 c-3 -20 -1 -22 22 -16 15 4 26
2 26 -4 0 -5 -5 -10 -11 -10 -6 0 -9 -7 -6 -15 4 -8 2 -17 -4 -20 -13 -9 -37
17 -45 50 -5 22 -11 26 -30 21 -13 -4 -24 -2 -24 3 0 9 44 20 65 16 6 -1 8
-12 7 -25z m141 5 c-22 -17 -30 -11 -13 10 7 8 17 12 22 9 5 -3 1 -12 -9 -19z
m-279 -16 c-6 -11 -24 -2 -24 11 0 5 7 7 15 4 8 -4 12 -10 9 -15z m1136 -3 c0
-21 -11 -46 -20 -46 -7 0 -7 35 -1 58 3 9 21 -1 21 -12z m-1488 -21 c4 -21 1
-25 -19 -25 -23 0 -23 1 -7 25 9 14 18 25 19 25 1 0 5 -11 7 -25z m818 13 c0
-7 -5 -20 -10 -28 -8 -12 -10 -9 -10 13 0 15 5 27 10 27 6 0 10 -6 10 -12z
m380 -9 c0 -5 -4 -9 -10 -9 -5 0 -10 7 -10 16 0 8 5 12 10 9 6 -3 10 -10 10
-16z m64 5 c3 -8 0 -22 -8 -30 -19 -18 -26 -18 -26 1 0 8 8 15 17 15 15 0 14
2 -3 15 -16 12 -17 14 -3 15 9 0 20 -7 23 -16z m-689 -45 c-9 -16 -11 -29 -5
-29 5 0 10 -10 10 -22 0 -19 -2 -20 -10 -8 -9 13 -12 13 -24 -2 -18 -24 -35
-23 -45 4 -8 23 19 60 41 56 7 -2 12 2 13 7 1 18 16 35 26 30 5 -4 2 -19 -6
-36z m865 6 c0 -19 -4 -35 -10 -35 -5 0 -10 9 -10 19 0 11 -5 23 -10 26 -13 8
-3 25 16 25 9 0 14 -11 14 -35z m-404 -17 c-2 -30 -21 -20 -23 12 -2 25 0 28
11 18 7 -7 13 -21 12 -30z m487 -8 c-7 -8 -22 24 -16 34 4 5 10 1 13 -10 4
-10 6 -21 3 -24z m-1263 5 c0 -8 -4 -15 -10 -15 -5 0 -10 7 -10 15 0 8 5 15
10 15 6 0 10 -7 10 -15z m1228 -20 c1 -14 -3 -25 -8 -25 -6 0 -10 6 -10 14 0
8 -5 16 -12 18 -6 2 -8 9 -4 16 11 18 31 4 34 -23z m-250 -6 c2 -21 1 -22 -8
-7 -6 9 -17 15 -25 12 -8 -4 -15 -2 -15 3 0 31 44 24 48 -8z m170 1 c-3 -35
-18 -41 -18 -7 0 21 7 37 17 37 2 0 2 -13 1 -30z m-1184 4 c4 -9 4 -19 1 -22
-3 -3 -5 1 -5 9 0 10 -2 11 -8 2 -5 -8 -12 -9 -22 -2 -13 8 -13 10 0 19 21 14
27 12 34 -6z m326 -68 c0 -3 -4 -8 -10 -11 -5 -3 -10 -1 -10 4 0 6 5 11 10 11
6 0 10 -2 10 -4z m-550 -25 c0 -5 9 -11 20 -14 11 -3 20 -10 20 -16 0 -16 -15
-14 -30 4 -7 8 -21 15 -32 15 -10 0 -16 5 -13 10 8 12 35 13 35 1z"/>
<path d="M950 1500 c-8 -5 -17 -7 -21 -4 -4 2 -10 0 -14 -6 -3 -5 -1 -10 5
-10 7 0 10 -7 6 -15 -3 -8 -1 -15 4 -15 6 0 10 4 10 9 0 5 7 17 16 26 19 18
15 28 -6 15z"/>
<path d="M2205 1920 c-3 -5 -1 -10 5 -10 8 0 8 -6 0 -20 -6 -11 -8 -20 -5 -20
3 0 1 -9 -5 -20 -8 -16 -8 -20 4 -20 8 0 17 -6 19 -12 3 -7 6 -3 6 10 1 12 -4
22 -10 22 -5 0 -8 4 -5 9 4 5 19 5 36 -2 33 -12 42 -47 13 -47 -11 0 -14 -3
-7 -8 6 -4 11 -15 11 -24 0 -14 -3 -15 -14 -7 -8 8 -13 8 -13 1 0 -21 12 -42
22 -36 5 3 15 -2 23 -12 20 -28 31 -9 17 29 -7 19 -12 56 -12 85 0 28 -5 54
-12 58 -7 4 -8 3 -4 -4 4 -7 2 -12 -3 -12 -6 0 -11 3 -11 8 -1 14 -49 42 -55
32z"/>
<path d="M2573 1916 c5 -14 3 -17 -8 -12 -10 3 -15 -1 -15 -12 0 -11 8 -18 20
-19 15 -1 20 4 20 22 0 13 -5 27 -12 31 -8 5 -9 2 -5 -10z"/>
<path d="M176 1912 c6 -4 14 -14 17 -22 4 -10 6 -8 6 8 1 15 -5 22 -16 22 -11
0 -14 -3 -7 -8z"/>
<path d="M578 1913 c7 -3 16 -2 19 1 4 3 -2 6 -13 5 -11 0 -14 -3 -6 -6z"/>
<path d="M677 1900 c3 -11 1 -20 -5 -20 -5 0 -12 -6 -15 -14 -4 -10 0 -12 14
-9 25 7 26 -22 2 -36 -16 -9 -15 -10 7 -11 24 0 25 3 26 55 0 46 -2 55 -17 55
-12 0 -16 -6 -12 -20z"/>
<path d="M740 1910 c0 -5 9 -10 21 -10 15 0 19 -5 15 -15 -3 -8 -2 -15 3 -15
5 0 11 11 13 25 5 22 2 25 -23 25 -16 0 -29 -4 -29 -10z"/>
<path d="M850 1910 c-9 -6 -10 -10 -3 -10 6 0 15 5 18 10 8 12 4 12 -15 0z"/>
<path d="M1011 1904 c-10 -11 -10 -19 -2 -27 13 -13 16 -10 25 21 8 25 -3 28
-23 6z"/>
<path d="M1243 1895 c7 -14 20 -25 32 -25 18 0 17 2 -7 25 -34 31 -39 31 -25
0z"/>
<path d="M1400 1910 c0 -5 5 -10 11 -10 5 0 7 5 4 10 -3 6 -8 10 -11 10 -2 0
-4 -4 -4 -10z"/>
<path d="M1440 1910 c0 -5 5 -10 10 -10 6 0 10 5 10 10 0 6 -4 10 -10 10 -5 0
-10 -4 -10 -10z"/>
<path d="M1473 1890 c0 -16 4 -30 9 -30 4 0 8 6 8 14 0 8 3 21 6 30 4 10 1 16
-8 16 -10 0 -15 -11 -15 -30z"/>
<path d="M1547 1907 c-3 -7 1 -21 8 -30 15 -21 26 -22 19 -2 -4 8 -1 15 4 15
6 0 13 -8 15 -17 4 -16 5 -16 6 1 0 10 -7 25 -16 32 -23 17 -30 17 -36 1z"/>
<path d="M1614 1898 c3 -13 6 -30 6 -38 1 -12 4 -11 14 3 14 18 14 18 19 0 4
-14 5 -13 6 5 1 15 5 21 13 16 8 -5 9 -2 5 10 -4 10 -7 20 -7 23 0 3 -7 -1
-17 -8 -13 -11 -17 -11 -20 -1 -8 22 -26 13 -19 -10z"/>
<path d="M1718 1893 c3 -14 -3 -32 -14 -44 -11 -12 -17 -32 -16 -50 2 -19 -2
-28 -8 -24 -5 3 -10 13 -10 21 0 8 -4 14 -10 14 -17 0 5 -41 30 -54 14 -7 24
-18 23 -24 -2 -7 2 -12 7 -12 6 0 10 9 10 20 0 11 -6 20 -14 20 -11 0 -10 8 5
37 10 20 24 41 31 46 9 6 8 7 -4 3 -57 -19 -55 -19 -35 -3 9 8 17 19 17 26 0
6 5 11 10 11 6 0 10 7 10 16 0 11 6 14 20 9 12 -4 20 -2 20 5 0 6 -16 10 -38
9 -35 -2 -38 -5 -34 -26z"/>
<path d="M1878 1890 c4 -25 0 -31 -24 -40 -23 -9 -25 -13 -14 -20 12 -8 12
-10 -4 -10 -15 0 -16 -3 -6 -15 7 -8 9 -23 5 -32 -6 -17 -7 -17 -19 0 -7 9
-11 28 -9 41 3 15 -1 25 -11 29 -9 4 -16 2 -16 -3 0 -6 -6 -10 -14 -10 -8 0
-17 -4 -20 -9 -4 -5 2 -7 13 -4 16 4 18 0 14 -24 -4 -22 -2 -25 6 -13 6 9 11
10 11 3 0 -6 3 -18 6 -27 5 -12 -1 -16 -22 -17 -25 -2 -26 -2 -6 -6 17 -3 22
-9 17 -21 -4 -9 -9 -23 -12 -29 -8 -21 15 -15 27 7 6 11 17 20 25 20 18 0 20
16 4 26 -7 4 -2 15 15 29 16 14 26 33 26 49 0 29 14 34 28 11 7 -13 11 -11 23
11 11 22 12 28 1 32 -7 2 -17 15 -22 28 -13 34 -27 30 -22 -6z m26 -41 c-3 -5
-10 -7 -15 -3 -5 3 -7 10 -3 15 3 5 10 7 15 3 5 -3 7 -10 3 -15z"/>
<path d="M1920 1909 c0 -5 5 -7 10 -4 6 4 17 2 24 -4 10 -8 17 -7 26 4 11 13
7 15 -24 15 -20 0 -36 -5 -36 -11z"/>
<path d="M2007 1894 c-3 -19 -1 -24 10 -20 8 3 17 6 19 6 2 0 4 7 4 15 0 22
38 18 50 -5 7 -14 7 -20 0 -20 -5 0 -10 7 -10 16 0 10 -8 6 -25 -14 -14 -17
-25 -35 -25 -41 0 -6 -7 -11 -15 -11 -10 0 -15 -10 -15 -30 0 -16 3 -29 8 -28
21 4 39 -15 34 -38 -3 -17 0 -24 11 -24 17 0 29 -54 14 -69 -5 -5 -7 -15 -5
-23 3 -8 12 0 22 21 13 24 15 36 7 44 -16 16 -14 40 4 34 8 -4 17 -1 21 5 5 8
-3 9 -24 5 -27 -6 -32 -4 -32 13 0 17 5 19 28 14 22 -5 25 -4 15 7 -19 19 -16
31 5 25 14 -5 18 -1 18 15 -1 12 5 24 13 27 11 4 12 -2 7 -24 -4 -16 -12 -31
-18 -33 -6 -2 -5 -7 3 -12 9 -5 17 0 25 19 9 19 13 22 13 10 1 -25 21 -23 21
2 0 10 -7 23 -15 28 -9 4 -17 19 -20 32 -3 13 -11 30 -19 38 -13 13 -14 11
-11 -19 4 -32 4 -33 -6 -9 -6 14 -15 35 -20 48 -7 18 -16 22 -48 22 -34 0 -39
-3 -44 -26z m97 -50 c2 -6 0 -17 -5 -25 -5 -8 -9 -10 -9 -6 0 4 -6 2 -14 -5
-8 -7 -12 -15 -11 -18 8 -13 -13 -30 -29 -24 -24 9 -16 38 12 42 21 3 32 32
12 32 -5 0 -10 3 -10 8 0 11 49 8 54 -4z"/>
<path d="M2146 1904 c-4 -12 -2 -15 9 -10 9 3 15 0 15 -9 0 -8 5 -15 10 -15
11 0 13 11 4 34 -8 21 -30 21 -38 0z"/>
<path d="M2290 1911 c0 -5 7 -16 15 -25 8 -8 15 -22 15 -30 0 -9 5 -16 11 -16
7 0 10 -12 7 -30 -3 -19 -1 -29 6 -27 6 2 11 17 11 32 1 28 21 48 23 23 1 -10
6 -39 11 -56 3 -9 51 33 51 45 0 8 5 11 12 7 7 -4 8 -3 4 5 -4 6 -12 9 -17 6
-5 -4 -9 -2 -9 4 0 5 6 11 12 13 8 3 3 10 -11 17 -21 12 -23 11 -18 -3 4 -9 2
-16 -3 -16 -6 0 -10 10 -10 23 -1 19 -2 20 -13 7 -7 -8 -20 -21 -29 -28 -15
-12 -16 -10 -12 22 2 21 0 36 -6 36 -5 0 -10 -6 -10 -12 0 -8 -3 -9 -8 -3 -9
13 -32 17 -32 6z m127 -79 c9 -15 8 -19 -5 -19 -19 0 -33 17 -26 29 8 13 18 9
31 -10z"/>
<path d="M2480 1911 c0 -5 7 -11 15 -15 8 -3 15 -1 15 5 0 6 5 7 10 4 6 -3 10
-1 10 4 0 6 -11 11 -25 11 -14 0 -25 -4 -25 -9z"/>
<path d="M942 1875 c-2 -19 2 -35 8 -35 10 0 14 14 10 40 -4 32 -16 28 -18 -5z"/>
<path d="M1509 1903 c0 -5 -2 -27 -4 -50 l-3 -43 23 18 c13 9 19 19 14 20 -5
2 -9 10 -9 18 0 8 -4 14 -10 14 -5 0 -7 7 -4 15 4 8 3 15 0 15 -3 0 -6 -3 -7
-7z"/>
<path d="M125 1893 c11 -3 23 -10 27 -17 5 -7 8 -5 8 7 0 12 -7 17 -27 16 -22
-1 -23 -2 -8 -6z"/>
<path d="M1206 1891 c-4 -7 -5 -15 -2 -18 9 -9 19 4 14 18 -4 11 -6 11 -12 0z"/>
<path d="M442 1851 c-5 -15 -6 -34 -2 -41 10 -15 15 -4 19 38 3 40 -4 41 -17
3z"/>
<path d="M860 1866 c0 -8 5 -18 10 -21 6 -3 10 1 10 9 0 8 -4 18 -10 21 -5 3
-10 -1 -10 -9z"/>
<path d="M1306 1861 c-4 -6 -4 -16 0 -23 4 -7 3 -8 -4 -4 -8 5 -12 -3 -12 -22
0 -22 6 -31 21 -35 12 -3 18 -3 15 0 -3 3 -2 13 3 22 10 19 -12 80 -23 62z"/>
<path d="M1800 1866 c0 -2 7 -7 16 -10 8 -3 12 -2 9 4 -6 10 -25 14 -25 6z"/>
<path d="M160 1844 c0 -20 11 -44 21 -44 5 0 8 13 7 28 -2 27 -28 42 -28 16z"/>
<path d="M1192 1849 c-13 -5 -29 -6 -35 -2 -7 4 -8 0 -4 -11 4 -10 7 -22 7
-27 0 -5 4 -9 10 -9 5 0 7 7 3 16 -5 13 -1 15 15 10 12 -3 31 -9 43 -12 12 -3
18 -11 15 -20 -3 -9 1 -14 14 -14 21 0 27 15 10 25 -6 3 -7 17 -4 31 8 30 -11
32 -20 2 l-7 -23 -9 23 c-5 12 -11 22 -12 21 -2 0 -14 -4 -26 -10z"/>
<path d="M1953 1819 c-7 -17 -17 -28 -22 -24 -6 3 -11 -1 -11 -9 0 -26 34 -18
48 11 6 15 12 33 12 40 0 24 -15 14 -27 -18z"/>
<path d="M20 1821 c0 -11 -4 -23 -10 -26 -5 -3 -10 -20 -10 -36 0 -22 4 -28
12 -22 7 4 15 8 18 9 36 11 50 18 50 24 0 22 -14 40 -31 40 -12 0 -16 5 -13
15 4 8 1 15 -5 15 -6 0 -11 -9 -11 -19z"/>
<path d="M573 1833 c22 -6 16 -29 -7 -25 -10 2 -16 -4 -16 -18 0 -11 -5 -20
-11 -20 -6 0 -9 9 -6 19 8 32 -7 40 -27 13 -11 -14 -15 -22 -9 -19 6 4 14 0
17 -9 3 -8 2 -12 -4 -9 -15 9 -12 -7 5 -29 15 -19 15 -19 15 4 0 23 1 23 17 7
13 -13 15 -19 5 -29 -18 -18 -15 -49 3 -42 8 4 15 1 15 -6 0 -6 5 -8 11 -5 6
4 13 -2 16 -14 3 -11 9 -18 14 -15 11 7 -12 44 -28 44 -18 0 -27 20 -14 33 9
9 15 8 22 -5 12 -22 29 -23 55 -3 18 14 17 14 -9 5 -16 -5 -30 -10 -32 -10 -2
0 -2 31 -1 68 3 67 3 68 -23 69 -16 0 -19 -1 -8 -4z m17 -89 c0 -8 -4 -14 -10
-14 -5 0 -10 9 -10 21 0 11 5 17 10 14 6 -3 10 -13 10 -21z"/>
<path d="M810 1820 c-6 -11 -15 -18 -21 -15 -5 4 -9 -2 -9 -12 -1 -21 -33 -63
-49 -63 -6 0 -11 -4 -11 -10 0 -18 18 -11 38 15 11 14 24 25 29 25 5 0 14 14
20 30 6 17 19 30 28 30 9 0 13 5 10 10 -10 16 -23 12 -35 -10z"/>
<path d="M1582 1818 c5 -33 17 -48 33 -41 20 7 19 16 -4 41 -24 28 -32 28 -29
0z"/>
<path d="M2570 1830 c0 -5 5 -10 10 -10 6 0 10 5 10 10 0 6 -4 10 -10 10 -5 0
-10 -4 -10 -10z"/>
<path d="M744 1816 c-11 -6 -19 -17 -16 -24 5 -17 22 -15 22 4 0 8 5 12 10 9
6 -3 10 1 10 9 0 9 -1 16 -2 15 -2 -1 -12 -6 -24 -13z"/>
<path d="M100 1806 c0 -8 4 -17 9 -20 5 -4 7 3 4 14 -6 23 -13 26 -13 6z"/>
<path d="M202 1775 c-1 -19 2 -35 7 -35 10 0 12 58 2 64 -4 3 -8 -10 -9 -29z"/>
<path d="M2300 1801 c0 -6 5 -13 10 -16 6 -3 10 1 10 9 0 9 -4 16 -10 16 -5 0
-10 -4 -10 -9z"/>
<path d="M2555 1800 c5 -8 9 -26 10 -39 0 -13 6 -26 13 -29 7 -2 12 5 12 17 0
12 -5 21 -11 21 -5 0 -8 4 -5 9 3 5 -2 15 -11 22 -15 12 -16 12 -8 -1z"/>
<path d="M1745 1790 c-3 -5 -1 -10 4 -10 6 0 11 5 11 10 0 6 -2 10 -4 10 -3 0
-8 -4 -11 -10z"/>
<path d="M456 1781 c-4 -6 -5 -11 -1 -11 3 0 1 -9 -5 -20 -9 -16 -8 -20 5 -20
20 0 29 24 17 46 -6 11 -11 13 -16 5z"/>
<path d="M626 1775 c4 -8 10 -15 15 -15 4 0 6 7 3 15 -4 8 -10 15 -15 15 -4 0
-6 -7 -3 -15z"/>
<path d="M1164 1781 c4 -6 3 -18 -2 -27 -10 -19 -4 -54 9 -54 5 0 6 13 3 29
-7 34 14 54 23 22 4 -16 9 -19 18 -11 7 6 11 20 8 31 -4 14 -8 17 -13 9 -6 -9
-13 -9 -30 0 -15 8 -20 8 -16 1z"/>
<path d="M1514 1778 c7 -33 18 -46 37 -41 15 4 17 9 8 19 -6 7 -8 18 -4 24 4
6 -4 10 -19 10 -14 0 -23 -5 -22 -12z"/>
<path d="M260 1753 c0 -21 2 -24 15 -13 8 7 15 16 15 20 0 4 -7 10 -15 14 -11
4 -15 -2 -15 -21z"/>
<path d="M310 1761 c0 -5 9 -7 20 -4 11 3 20 7 20 9 0 2 -9 4 -20 4 -11 0 -20
-4 -20 -9z"/>
<path d="M728 1763 c7 -3 16 -2 19 1 4 3 -2 6 -13 5 -11 0 -14 -3 -6 -6z"/>
<path d="M1245 1749 c-18 -19 -20 -33 -3 -23 7 4 8 3 4 -4 -4 -7 -14 -12 -22
-12 -8 0 -14 -5 -14 -10 0 -6 16 -9 38 -7 31 4 36 8 34 25 -2 13 4 23 18 27
11 3 18 11 15 16 -9 14 -54 6 -70 -12z"/>
<path d="M2186 1745 c-9 -13 -16 -30 -15 -37 0 -7 4 -3 9 10 5 12 16 22 25 22
16 0 20 15 6 24 -5 3 -16 -5 -25 -19z"/>
<path d="M1357 1752 c-17 -4 -17 -6 4 -28 16 -17 18 -24 8 -24 -12 0 -12 -2 0
-9 8 -5 12 -18 8 -30 -6 -23 8 -27 33 -11 9 6 11 13 5 18 -10 7 -35 48 -35 57
0 3 12 6 28 6 17 1 20 3 9 6 -9 2 -15 8 -13 12 5 7 -18 9 -47 3z"/>
<path d="M660 1742 c0 -6 5 -14 10 -17 6 -4 8 -9 6 -13 -2 -4 2 -13 10 -19 24
-23 23 3 -2 32 -13 15 -24 23 -24 17z"/>
<path d="M1665 1740 c3 -5 8 -10 11 -10 2 0 4 5 4 10 0 6 -5 10 -11 10 -5 0
-7 -4 -4 -10z"/>
<path d="M1900 1740 c0 -5 5 -10 11 -10 5 0 7 5 4 10 -3 6 -8 10 -11 10 -2 0
-4 -4 -4 -10z"/>
<path d="M490 1720 c-13 -8 -12 -10 3 -10 9 0 17 5 17 10 0 12 -1 12 -20 0z"/>
<path d="M2217 1706 c-14 -21 -14 -26 -2 -36 12 -10 15 -10 15 0 0 10 3 10 15
0 13 -11 15 -9 15 13 0 13 -6 30 -14 36 -10 9 -17 6 -29 -13z"/>
<path d="M1740 1709 c0 -5 5 -7 10 -4 6 3 10 8 10 11 0 2 -4 4 -10 4 -5 0 -10
-5 -10 -11z"/>
<path d="M870 1690 c0 -11 1 -20 3 -20 1 0 10 9 20 20 16 19 16 20 -3 20 -13
0 -20 -7 -20 -20z"/>
<path d="M1860 1699 c0 -6 5 -20 11 -31 10 -18 9 -20 -5 -15 -12 5 -16 0 -16
-18 0 -14 4 -25 9 -25 6 0 3 -12 -5 -27 -17 -35 -18 -53 -1 -53 8 0 14 13 15
30 3 55 5 59 23 57 10 -2 27 -12 39 -22 18 -16 19 -20 5 -27 -8 -5 -15 -14
-15 -19 0 -6 5 -7 10 -4 6 3 10 0 10 -7 0 -7 11 -18 25 -25 21 -9 25 -9 25 5
0 8 -3 12 -7 9 -7 -8 -33 11 -33 25 0 5 4 7 8 4 4 -2 14 -1 22 5 11 6 12 9 2
9 -9 0 -11 7 -7 20 5 17 2 20 -24 20 -22 0 -31 5 -31 16 0 11 -5 14 -16 10
-13 -5 -15 0 -11 28 3 25 0 36 -10 40 -20 8 -23 8 -23 -5z"/>
<path d="M2444 1699 c-9 -15 -2 -18 20 -9 17 6 18 7 3 13 -9 3 -19 2 -23 -4z"/>
<path d="M741 1684 c0 -11 3 -14 6 -6 3 7 2 16 -1 19 -3 4 -6 -2 -5 -13z"/>
<path d="M2581 1684 c0 -11 3 -14 6 -6 3 7 2 16 -1 19 -3 4 -6 -2 -5 -13z"/>
<path d="M60 1680 c20 -13 33 -13 25 0 -3 6 -14 10 -23 10 -15 0 -15 -2 -2
-10z"/>
<path d="M1170 1658 c0 -25 3 -29 12 -20 8 8 15 9 25 1 10 -9 13 -8 13 1 0 6
-9 14 -20 17 -16 4 -18 8 -9 19 9 11 8 14 -5 14 -11 0 -16 -9 -16 -32z"/>
<path d="M2110 1683 c8 -4 21 -15 30 -25 15 -19 56 -16 45 3 -3 4 -12 6 -19 3
-7 -3 -19 2 -26 11 -7 8 -20 15 -29 14 -13 0 -13 -2 -1 -6z"/>
<path d="M682 1645 c0 -16 2 -22 5 -12 2 9 2 23 0 30 -3 6 -5 -1 -5 -18z"/>
<path d="M716 1653 c-6 -14 -5 -15 5 -6 7 7 10 15 7 18 -3 3 -9 -2 -12 -12z"/>
<path d="M425 1640 c-3 -6 1 -7 9 -4 18 7 21 14 7 14 -6 0 -13 -4 -16 -10z"/>
<path d="M640 1638 c0 -9 -5 -18 -11 -20 -7 -2 -6 -8 4 -16 12 -10 15 -9 20 7
2 10 1 25 -4 32 -7 11 -9 11 -9 -3z"/>
<path d="M2214 1637 c3 -10 6 -24 6 -32 0 -16 38 -27 47 -12 3 6 1 13 -6 15
-7 2 -22 14 -33 26 -18 18 -20 18 -14 3z"/>
<path d="M16 1621 c-12 -5 -16 -10 -9 -14 11 -7 63 8 63 18 0 7 -31 5 -54 -4z"/>
<path d="M2090 1626 c0 -3 5 -17 11 -33 l11 -28 9 24 c7 17 6 27 -3 33 -14 8
-28 10 -28 4z"/>
<path d="M2150 1619 c0 -5 5 -7 10 -4 6 3 10 8 10 11 0 2 -4 4 -10 4 -5 0 -10
-5 -10 -11z"/>
<path d="M673 1596 c3 -8 2 -17 -4 -20 -5 -2 -4 -3 3 -2 17 3 23 36 8 36 -7 0
-10 -6 -7 -14z"/>
<path d="M423 1593 c-17 -6 -17 -30 0 -30 7 0 13 9 13 19 0 10 0 18 -1 17 0 0
-6 -3 -12 -6z"/>
<path d="M606 1585 c-3 -8 -1 -17 3 -20 5 -3 11 2 15 10 3 8 1 17 -3 20 -5 3
-11 -2 -15 -10z"/>
<path d="M6 1574 c-8 -21 -8 -24 3 -24 5 0 11 9 14 20 6 24 -8 27 -17 4z"/>
<path d="M307 1500 c-3 -11 -1 -20 4 -20 5 0 9 9 9 20 0 11 -2 20 -4 20 -2 0
-6 -9 -9 -20z"/>
<path d="M757 1503 c-4 -3 -7 -18 -7 -31 0 -14 -7 -33 -16 -43 -14 -15 -14
-17 3 -15 9 0 18 -4 18 -11 0 -6 3 -14 7 -18 8 -8 5 16 -4 31 -4 5 -3 28 2 49
9 41 8 50 -3 38z"/>
<path d="M2540 1485 c7 -9 15 -13 17 -11 7 7 -7 26 -19 26 -6 0 -6 -6 2 -15z"/>
<path d="M585 1450 c3 -5 8 -10 11 -10 2 0 4 5 4 10 0 6 -5 10 -11 10 -5 0 -7
-4 -4 -10z"/>
<path d="M701 1444 c0 -11 3 -14 6 -6 3 7 2 16 -1 19 -3 4 -6 -2 -5 -13z"/>
<path d="M1530 1421 c0 -5 5 -13 10 -16 6 -3 10 -2 10 4 0 5 -4 13 -10 16 -5
3 -10 2 -10 -4z"/>
<path d="M991 1386 c-9 -10 -8 -15 4 -20 10 -4 15 1 15 14 0 24 -4 25 -19 6z"/>
<path d="M1838 1303 c12 -2 30 -2 40 0 9 3 -1 5 -23 4 -22 0 -30 -2 -17 -4z"/>
<path d="M1913 1303 c9 -2 23 -2 30 0 6 3 -1 5 -18 5 -16 0 -22 -2 -12 -5z"/>
<path d="M2231 1263 c0 -27 3 -42 6 -34 5 11 7 11 14 0 6 -9 9 3 9 34 0 35 -4
47 -15 47 -11 0 -15 -12 -14 -47z"/>
<path d="M2050 1290 c0 -8 8 -24 16 -35 16 -19 16 -19 9 5 -9 31 -25 50 -25
30z"/>
<path d="M2551 1279 c-10 -18 -15 -19 -22 -8 -8 12 -10 12 -19 -1 -8 -12 -3
-16 26 -18 43 -4 50 1 38 28 -9 20 -9 20 -23 -1z"/>
<path d="M1728 1255 c-4 -19 -1 -25 13 -25 11 0 19 -4 19 -10 0 -5 8 -10 18
-10 13 0 14 2 4 9 -8 4 -13 11 -13 15 4 32 -1 46 -18 46 -12 0 -20 -9 -23 -25z"/>
<path d="M1280 1231 c0 -37 26 -43 33 -8 l4 22 8 -22 c10 -32 26 -29 22 5 -3
22 -9 28 -35 30 -30 3 -32 1 -32 -27z"/>
<path d="M1058 1220 c-3 -23 -1 -30 12 -30 11 0 16 9 15 30 0 17 -5 30 -11 30
-7 0 -14 -13 -16 -30z"/>
<path d="M778 1223 c12 -2 32 -2 45 0 12 2 2 4 -23 4 -25 0 -35 -2 -22 -4z"/>
<path d="M900 1226 c0 -2 7 -6 15 -10 8 -3 15 -1 15 4 0 6 -7 10 -15 10 -8 0
-15 -2 -15 -4z"/>
<path d="M2065 1220 c-3 -6 1 -7 9 -4 18 7 21 14 7 14 -6 0 -13 -4 -16 -10z"/>
<path d="M1728 1213 c7 -3 16 -2 19 1 4 3 -2 6 -13 5 -11 0 -14 -3 -6 -6z"/>
<path d="M2119 1189 c11 -20 18 -44 15 -53 -5 -12 -2 -15 12 -9 13 5 16 3 11
-9 -4 -11 2 -17 19 -21 28 -5 31 1 7 19 -16 12 -15 14 12 15 17 1 35 0 40 -1
20 -4 51 -2 115 8 59 10 53 11 -67 7 -127 -3 -132 -3 -139 17 -3 12 -16 31
-27 42 -19 20 -19 19 2 -15z"/>
<path d="M2438 1213 c7 -3 16 -2 19 1 4 3 -2 6 -13 5 -11 0 -14 -3 -6 -6z"/>
<path d="M1913 1203 c9 -2 23 -2 30 0 6 3 -1 5 -18 5 -16 0 -22 -2 -12 -5z"/>
<path d="M2208 1203 c6 -2 18 -2 25 0 6 3 1 5 -13 5 -14 0 -19 -2 -12 -5z"/>
<path d="M968 1193 c7 -3 16 -2 19 1 4 3 -2 6 -13 5 -11 0 -14 -3 -6 -6z"/>
<path d="M151 1164 c0 -11 3 -14 6 -6 3 7 2 16 -1 19 -3 4 -6 -2 -5 -13z"/>
<path d="M1740 1170 c0 -5 5 -10 11 -10 5 0 7 5 4 10 -3 6 -8 10 -11 10 -2 0
-4 -4 -4 -10z"/>
<path d="M383 1148 c-2 -5 3 -8 11 -8 11 0 16 -10 16 -31 0 -16 4 -28 9 -25 5
4 12 0 14 -6 4 -10 6 -10 6 0 1 6 8 12 16 12 11 0 13 8 9 33 -4 25 -3 28 5 15
6 -9 12 -28 13 -41 1 -14 6 -23 10 -21 4 3 8 -6 8 -20 0 -13 -6 -27 -12 -30
-7 -3 -4 -4 7 -3 15 2 19 9 18 27 -4 47 -7 60 -14 60 -3 0 -11 11 -17 25 -10
21 -17 24 -53 22 -22 -1 -43 -5 -46 -9z"/>
<path d="M1628 1153 c7 -3 16 -2 19 1 4 3 -2 6 -13 5 -11 0 -14 -3 -6 -6z"/>
<path d="M2498 1153 c17 -2 47 -2 65 0 17 2 3 4 -33 4 -36 0 -50 -2 -32 -4z"/>
<path d="M1166 1142 c6 -4 14 -14 17 -22 4 -10 6 -8 6 8 1 15 -5 22 -16 22
-11 0 -14 -3 -7 -8z"/>
<path d="M2428 1143 c6 -2 18 -2 25 0 6 3 1 5 -13 5 -14 0 -19 -2 -12 -5z"/>
<path d="M538 1133 c6 -2 18 -2 25 0 6 3 1 5 -13 5 -14 0 -19 -2 -12 -5z"/>
<path d="M1370 1125 c0 -8 4 -15 10 -15 5 0 7 7 4 15 -4 8 -8 15 -10 15 -2 0
-4 -7 -4 -15z"/>
<path d="M1316 1122 c-3 -5 1 -9 9 -9 8 0 12 4 9 9 -3 4 -7 8 -9 8 -2 0 -6 -4
-9 -8z"/>
<path d="M1775 1121 c-11 -5 -26 -6 -32 -4 -7 3 -13 1 -13 -4 0 -5 -13 -8 -30
-5 -16 2 -30 0 -30 -6 0 -5 -14 -8 -31 -6 -16 2 -28 0 -25 -4 3 -5 -8 -6 -25
-4 -16 2 -29 0 -29 -5 0 -5 18 -10 40 -11 22 -1 40 2 40 7 0 4 14 7 31 5 21
-3 28 0 23 8 -5 8 -2 9 10 5 10 -4 24 -7 32 -7 9 0 12 -5 9 -10 -4 -6 -11 -8
-16 -5 -5 4 -9 1 -9 -5 0 -7 8 -9 23 -4 12 4 30 8 40 8 9 0 17 4 17 8 0 4 7 5
15 2 8 -4 15 -1 15 5 0 6 7 8 15 5 8 -4 15 -1 15 5 0 14 -9 14 -59 -4 -34 -12
-41 -12 -41 -1 0 8 6 14 13 13 32 -1 48 4 42 13 -7 12 -12 12 -40 1z"/>
<path d="M2347 1120 c-20 -4 -41 -11 -45 -15 -4 -4 4 -5 18 -2 14 4 40 7 58 7
20 0 31 4 27 10 -3 6 -9 9 -13 9 -4 -1 -24 -5 -45 -9z"/>
<path d="M2475 1120 l-50 -7 50 -1 c28 -1 57 3 65 8 17 11 17 11 -65 0z"/>
<path d="M171 1104 c0 -11 3 -14 6 -6 3 7 2 16 -1 19 -3 4 -6 -2 -5 -13z"/>
<path d="M540 1110 c0 -5 7 -7 15 -4 8 4 15 8 15 10 0 2 -7 4 -15 4 -8 0 -15
-4 -15 -10z"/>
<path d="M2050 1110 c0 -5 7 -7 15 -4 8 4 15 8 15 10 0 2 -7 4 -15 4 -8 0 -15
-4 -15 -10z"/>
<path d="M1400 1101 c-23 -4 -31 -9 -22 -14 6 -5 16 -6 21 -2 5 3 12 1 16 -5
4 -6 -11 -10 -39 -10 -25 0 -46 -4 -46 -8 0 -5 20 -8 45 -7 30 2 45 -1 45 -10
0 -7 -12 -11 -30 -10 -16 1 -30 -2 -30 -7 0 -5 -4 -6 -10 -3 -5 3 -10 2 -10
-3 0 -5 11 -9 25 -9 14 0 25 3 25 7 0 4 12 5 26 2 23 -4 25 -2 19 17 -4 12 -2
21 4 21 6 0 11 -3 11 -7 0 -5 3 -18 6 -29 5 -18 2 -21 -21 -18 -15 1 -37 -1
-48 -5 -29 -11 -69 -1 -63 15 3 8 1 14 -3 14 -5 0 -11 -5 -13 -11 -2 -6 -16
-12 -31 -12 -18 -1 -25 -6 -22 -15 3 -7 0 -10 -5 -7 -17 11 -12 38 6 31 10 -4
14 -1 12 6 -7 21 -43 16 -40 -4 2 -11 -3 -18 -13 -18 -8 0 -15 -6 -15 -12 0
-22 17 -41 29 -34 6 4 11 1 11 -8 0 -8 5 -18 11 -21 6 -4 9 0 7 11 -2 16 3 19
30 17 19 -1 41 -10 49 -20 13 -17 14 -17 9 0 -3 9 -3 17 1 17 3 0 12 -8 19
-17 13 -16 14 -15 10 9 -4 21 -1 26 12 21 11 -5 14 -2 10 8 -4 10 5 14 36 16
30 1 35 0 21 -6 -11 -5 -23 -7 -27 -5 -4 3 -9 0 -13 -6 -4 -6 9 -10 32 -11 21
-1 31 -3 22 -6 -11 -3 -15 -12 -11 -28 2 -14 8 -25 12 -25 5 0 6 9 3 20 -4 16
-2 19 12 14 19 -8 19 -11 -10 84 -13 40 -24 60 -32 57 -7 -2 -13 0 -13 4 0 5
5 11 12 13 23 8 -7 14 -42 9z m-80 -122 c0 -5 -9 -9 -20 -9 -11 0 -20 5 -20
11 0 5 5 7 10 4 6 -3 10 -1 10 5 0 6 5 8 10 5 6 -3 10 -10 10 -16z m35 1 c3
-5 -1 -10 -9 -10 -9 0 -16 5 -16 10 0 6 4 10 9 10 6 0 13 -4 16 -10z"/>
<path d="M1496 1102 c-4 -7 -4 -16 -1 -22 3 -6 -1 -7 -9 -4 -9 3 -16 1 -16 -5
0 -6 11 -10 25 -9 27 3 27 3 16 32 -5 14 -10 16 -15 8z"/>
<path d="M1524 1094 c3 -9 6 -18 6 -20 0 -2 5 -4 11 -4 8 0 9 4 0 13 -6 8 -8
17 -4 20 3 4 1 7 -6 7 -8 0 -11 -6 -7 -16z"/>
<path d="M1930 1100 c-8 -5 -12 -11 -9 -14 3 -3 14 1 25 9 21 16 8 20 -16 5z"/>
<path d="M80 1087 c0 -10 8 -17 18 -17 9 0 13 4 7 8 -5 4 -13 11 -17 16 -5 5
-8 2 -8 -7z"/>
<path d="M391 1084 c0 -11 3 -14 6 -6 3 7 2 16 -1 19 -3 4 -6 -2 -5 -13z"/>
<path d="M848 1093 c7 -3 16 -2 19 1 4 3 -2 6 -13 5 -11 0 -14 -3 -6 -6z"/>
<path d="M1180 1089 c-30 -5 -26 -7 23 -8 31 0 57 1 57 3 0 8 -47 11 -80 5z"/>
<path d="M1290 1090 c0 -5 5 -10 10 -10 6 0 10 5 10 10 0 6 -4 10 -10 10 -5 0
-10 -4 -10 -10z"/>
<path d="M1320 1090 c0 -5 5 -10 10 -10 6 0 10 5 10 10 0 6 -4 10 -10 10 -5 0
-10 -4 -10 -10z"/>
<path d="M1995 1090 c3 -5 8 -10 11 -10 2 0 4 5 4 10 0 6 -5 10 -11 10 -5 0
-7 -4 -4 -10z"/>
<path d="M2248 1083 c6 -2 18 -2 25 0 6 3 1 5 -13 5 -14 0 -19 -2 -12 -5z"/>
<path d="M691 1064 c-1 -14 6 -24 19 -27 11 -3 20 -1 20 4 0 5 -6 9 -14 9 -8
0 -17 8 -19 18 -4 13 -5 13 -6 -4z"/>
<path d="M860 1070 c0 -5 5 -10 10 -10 6 0 10 5 10 10 0 6 -4 10 -10 10 -5 0
-10 -4 -10 -10z"/>
<path d="M910 1071 c0 -5 9 -7 20 -4 11 3 20 7 20 9 0 2 -9 4 -20 4 -11 0 -20
-4 -20 -9z"/>
<path d="M2176 1072 c-2 -4 -1 -14 5 -22 7 -12 9 -10 9 8 0 23 -5 28 -14 14z"/>
<path d="M636 1053 c-6 -14 -5 -15 5 -6 7 7 10 15 7 18 -3 3 -9 -2 -12 -12z"/>
<path d="M729 1059 c14 -5 28 -6 33 -1 4 4 -7 9 -25 9 -30 2 -31 2 -8 -8z"/>
<path d="M1048 1062 c-30 -4 -33 -9 -17 -32 9 -13 10 -12 5 3 -5 14 2 17 42
18 26 1 57 0 70 -1 12 -1 22 3 22 9 0 11 -52 12 -122 3z"/>
<path d="M1180 1059 c0 -5 11 -9 25 -9 14 0 25 4 25 9 0 5 -11 9 -25 9 -14 0
-25 -4 -25 -9z"/>
<path d="M1240 1060 c0 -7 12 -10 28 -9 15 2 33 -1 41 -5 9 -6 12 -5 9 5 -6
17 -78 25 -78 9z"/>
<path d="M1695 1060 c3 -5 8 -10 11 -10 2 0 4 5 4 10 0 6 -5 10 -11 10 -5 0
-7 -4 -4 -10z"/>
<path d="M1536 1051 c9 -9 84 -10 84 -1 0 4 -20 8 -45 7 -25 0 -42 -3 -39 -6z"/>
<path d="M1765 1050 c-3 -5 -1 -10 4 -10 6 0 11 5 11 10 0 6 -2 10 -4 10 -3 0
-8 -4 -11 -10z"/>
<path d="M1799 1047 c13 -16 5 -28 -15 -20 -8 3 -14 0 -14 -6 0 -6 -7 -8 -15
-5 -8 4 -15 1 -15 -5 0 -15 15 -13 74 8 36 13 45 19 33 24 -10 4 -17 1 -17 -6
-1 -7 -6 -5 -14 6 -7 9 -17 17 -21 17 -4 0 -2 -6 4 -13z"/>
<path d="M2518 1053 c6 -2 18 -2 25 0 6 3 1 5 -13 5 -14 0 -19 -2 -12 -5z"/>
<path d="M315 1039 c-4 -6 -4 -13 -1 -16 3 -4 6 -1 6 6 0 7 5 9 10 6 6 -3 10
-1 10 4 0 14 -17 14 -25 0z"/>
<path d="M370 1035 c0 -8 -4 -15 -10 -15 -5 0 -10 -5 -10 -11 0 -5 4 -8 9 -5
5 4 12 0 14 -6 3 -7 6 2 6 20 1 17 -1 32 -4 32 -3 0 -5 -7 -5 -15z"/>
<path d="M412 1030 c0 -14 2 -19 5 -12 2 6 2 18 0 25 -3 6 -5 1 -5 -13z"/>
<path d="M463 1000 c0 -30 2 -43 4 -27 2 15 2 39 0 55 -2 15 -4 2 -4 -28z"/>
<path d="M790 1038 c0 -9 5 -20 10 -23 13 -8 13 5 0 25 -8 13 -10 13 -10 -2z"/>
<path d="M825 1041 c11 -5 37 -8 58 -6 20 1 37 -2 37 -6 0 -4 9 -7 20 -6 27 2
25 13 -2 21 -36 9 -137 6 -113 -3z"/>
<path d="M1480 1040 c0 -5 5 -10 11 -10 5 0 7 5 4 10 -3 6 -8 10 -11 10 -2 0
-4 -4 -4 -10z"/>
<path d="M1510 1040 c0 -5 5 -10 11 -10 5 0 7 5 4 10 -3 6 -8 10 -11 10 -2 0
-4 -4 -4 -10z"/>
<path d="M45 1031 c-38 -7 -36 -7 25 -12 36 -2 67 -1 68 3 7 15 30 8 35 -11 5
-21 -9 -30 -46 -32 -21 0 -21 -1 -2 -10 16 -7 14 -9 -12 -6 -18 2 -33 0 -33
-5 0 -8 29 -13 62 -10 12 1 15 -3 11 -14 -3 -9 0 -14 8 -12 8 2 13 -3 11 -11
-2 -8 3 -18 10 -22 11 -7 11 -9 0 -9 -9 0 -11 -7 -7 -20 4 -13 2 -20 -7 -20
-10 0 -9 -3 2 -10 8 -5 11 -10 5 -10 -5 0 -3 -5 5 -10 11 -7 5 -10 -24 -10
-22 0 -36 -3 -32 -7 4 -5 -20 -12 -54 -18 -33 -5 -61 -14 -60 -20 0 -5 5 -10
10 -9 6 1 49 2 98 2 l87 2 -9 145 -9 145 -51 -1 c-28 -1 -69 -5 -91 -8z"/>
<path d="M221 1024 c0 -11 3 -14 6 -6 3 7 2 16 -1 19 -3 4 -6 -2 -5 -13z"/>
<path d="M435 1030 c-3 -5 -1 -10 4 -10 6 0 11 5 11 10 0 6 -2 10 -4 10 -3 0
-8 -4 -11 -10z"/>
<path d="M740 1036 c0 -2 9 -6 20 -9 11 -3 20 -1 20 4 0 5 -9 9 -20 9 -11 0
-20 -2 -20 -4z"/>
<path d="M970 1030 c0 -5 5 -10 10 -10 6 0 10 5 10 10 0 6 -4 10 -10 10 -5 0
-10 -4 -10 -10z"/>
<path d="M1000 1030 c0 -5 5 -10 11 -10 5 0 7 5 4 10 -3 6 -8 10 -11 10 -2 0
-4 -4 -4 -10z"/>
<path d="M1055 1030 c3 -5 8 -10 11 -10 2 0 4 5 4 10 0 6 -5 10 -11 10 -5 0
-7 -4 -4 -10z"/>
<path d="M1080 1028 c0 -4 9 -8 20 -8 11 0 20 -4 20 -8 0 -4 -31 -7 -70 -6
-38 1 -70 -2 -70 -7 0 -5 18 -8 40 -7 22 1 43 -2 47 -5 6 -7 -36 -11 -84 -9
-13 1 -23 -3 -23 -8 0 -5 10 -11 23 -13 19 -4 19 -4 -5 -6 -22 -1 -28 4 -34
32 -6 27 -8 29 -14 13 -6 -18 -7 -18 -13 4 -3 13 -9 21 -13 18 -10 -11 6 -48
22 -48 8 0 14 -4 14 -9 0 -4 -11 -7 -25 -6 -14 2 -25 -1 -25 -6 0 -5 9 -9 21
-9 11 0 17 -5 14 -10 -4 -6 -12 -7 -18 -4 -7 4 -8 3 -4 -1 10 -12 67 -16 67
-5 0 5 -6 11 -12 13 -7 2 0 3 16 1 16 -2 39 -4 52 -4 13 0 24 -5 24 -11 0 -5
-4 -7 -10 -4 -5 3 -10 2 -10 -4 0 -5 9 -9 20 -8 12 1 18 7 16 14 -4 9 4 13 24
13 37 0 40 15 3 18 -14 1 -29 5 -32 8 -3 3 20 3 52 0 65 -7 77 7 20 22 l-38
10 42 -1 c34 -2 43 -6 43 -19 0 -10 5 -18 11 -18 6 0 8 9 4 20 -4 12 -1 28 6
36 9 11 9 18 1 26 -9 9 -12 7 -12 -8 0 -16 -7 -20 -30 -20 -16 0 -30 3 -30 8
0 4 5 8 10 8 6 0 10 4 10 8 0 5 -16 9 -35 9 -19 0 -35 -4 -35 -9z"/>
<path d="M1280 1030 c0 -5 5 -10 11 -10 5 0 7 5 4 10 -3 6 -8 10 -11 10 -2 0
-4 -4 -4 -10z"/>
<path d="M1643 1026 c4 -10 7 -22 7 -27 0 -5 4 -9 9 -9 12 0 2 38 -12 47 -7 4
-8 0 -4 -11z"/>
<path d="M1670 1030 c0 -5 5 -10 10 -10 6 0 10 5 10 10 0 6 -4 10 -10 10 -5 0
-10 -4 -10 -10z"/>
<path d="M2255 1030 c-4 -6 -10 -8 -15 -5 -4 3 -13 -2 -20 -10 -10 -12 -7 -13
22 -3 18 6 46 11 61 11 20 0 24 2 15 8 -18 12 -56 11 -63 -1z"/>
<path d="M1561 1021 c-8 -5 -11 -15 -8 -23 4 -11 -2 -13 -24 -10 -16 2 -29 0
-29 -6 0 -22 13 -42 26 -42 8 0 14 -5 14 -11 0 -5 -4 -7 -10 -4 -5 3 -10 2
-10 -3 0 -5 11 -9 25 -9 20 0 23 2 14 13 -8 10 -8 14 0 14 20 0 26 -5 23 -17
-2 -7 2 -13 9 -13 7 0 9 9 5 23 -5 22 -2 24 37 25 23 1 50 2 60 3 9 0 17 4 17
10 0 11 -18 11 -81 0 -41 -7 -46 -5 -56 16 -6 13 -8 25 -3 28 4 3 10 -4 13
-14 5 -19 57 -28 57 -9 0 5 -10 8 -22 6 -14 -2 -23 2 -23 11 0 18 -16 23 -34
12z m9 -57 c0 -2 -11 -4 -25 -4 -14 0 -25 4 -25 9 0 4 11 6 25 3 14 -2 25 -6
25 -8z"/>
<path d="M1610 1020 c0 -5 5 -10 10 -10 6 0 10 5 10 10 0 6 -4 10 -10 10 -5 0
-10 -4 -10 -10z"/>
<path d="M2192 1010 c0 -14 2 -19 5 -12 2 6 2 18 0 25 -3 6 -5 1 -5 -13z"/>
<path d="M2373 1016 c0 -8 6 -12 14 -9 7 3 13 9 13 14 0 5 -6 9 -13 9 -8 0
-14 -6 -14 -14z"/>
<path d="M331 1004 c0 -11 3 -14 6 -6 3 7 2 16 -1 19 -3 4 -6 -2 -5 -13z"/>
<path d="M520 983 c0 -26 3 -34 9 -24 6 10 11 4 16 -20 4 -19 10 -36 14 -39 3
-3 13 -26 22 -52 19 -54 10 -72 -27 -58 -18 7 -24 6 -24 -5 0 -9 14 -15 42
-17 l42 -3 27 -75 c26 -73 64 -162 54 -127 -2 9 0 17 6 17 6 0 3 7 -5 16 -9 8
-16 21 -16 28 0 7 -8 30 -19 52 -10 21 -21 51 -25 67 -7 30 -7 30 74 28 41 0
43 1 22 12 -12 7 -21 15 -20 18 2 2 -2 -1 -8 -8 -14 -17 -25 -17 -21 0 1 6 -7
12 -18 12 -42 1 -62 16 -74 55 -7 22 -9 46 -5 53 4 6 4 9 -1 5 -9 -8 -45 53
-45 76 0 8 -4 18 -10 21 -6 4 -10 -9 -10 -32z m130 -199 c0 -2 -9 0 -20 6 -11
6 -20 13 -20 16 0 2 9 0 20 -6 11 -6 20 -13 20 -16z"/>
<path d="M870 1010 c0 -5 5 -10 11 -10 5 0 7 5 4 10 -3 6 -8 10 -11 10 -2 0
-4 -4 -4 -10z"/>
<path d="M1490 1009 c0 -4 11 -6 25 -6 14 0 25 3 25 8 0 5 -11 8 -25 7 -14 -1
-25 -5 -25 -9z"/>
<path d="M1838 1013 c-10 -3 -18 -9 -18 -14 0 -5 8 -9 18 -10 15 0 15 -1 -2
-8 -12 -5 -16 -10 -9 -14 17 -11 39 2 40 23 2 23 -5 28 -29 23z"/>
<path d="M2500 1010 c0 -6 11 -8 28 -4 39 10 40 14 4 14 -18 0 -32 -5 -32 -10z"/>
<path d="M311 994 c0 -11 3 -14 6 -6 3 7 2 16 -1 19 -3 4 -6 -2 -5 -13z"/>
<path d="M955 1000 c3 -5 8 -10 11 -10 2 0 4 5 4 10 0 6 -5 10 -11 10 -5 0 -7
-4 -4 -10z"/>
<path d="M1680 1000 c0 -5 11 -10 25 -10 14 0 25 5 25 10 0 6 -11 10 -25 10
-14 0 -25 -4 -25 -10z"/>
<path d="M48 993 c7 -3 16 -2 19 1 4 3 -2 6 -13 5 -11 0 -14 -3 -6 -6z"/>
<path d="M815 992 c32 -14 91 -24 80 -13 -6 5 -30 12 -55 15 -29 4 -38 3 -25
-2z"/>
<path d="M1766 991 c-13 -5 -16 -10 -9 -14 7 -4 14 -3 18 2 3 6 12 8 20 4 8
-3 15 0 15 6 0 12 -16 13 -44 2z"/>
<path d="M1990 990 c0 -5 5 -10 10 -10 6 0 10 5 10 10 0 6 -4 10 -10 10 -5 0
-10 -4 -10 -10z"/>
<path d="M2230 985 c0 -9 6 -12 15 -9 8 4 15 7 15 9 0 2 -7 5 -15 9 -9 3 -15
0 -15 -9z"/>
<path d="M702 974 c10 -10 20 -16 22 -13 3 3 -5 11 -17 18 -21 13 -21 12 -5
-5z"/>
<path d="M2338 983 c7 -3 16 -2 19 1 4 3 -2 6 -13 5 -11 0 -14 -3 -6 -6z"/>
<path d="M331 964 c0 -11 3 -14 6 -6 3 7 2 16 -1 19 -3 4 -6 -2 -5 -13z"/>
<path d="M481 964 c0 -11 3 -14 6 -6 3 7 2 16 -1 19 -3 4 -6 -2 -5 -13z"/>
<path d="M813 969 c4 -12 -1 -17 -21 -17 -15 0 -34 5 -42 12 -13 10 -13 9 0
-8 14 -18 13 -19 -4 -13 -13 5 -17 3 -13 -7 4 -10 0 -12 -14 -9 -11 3 -19 0
-19 -7 0 -7 -7 -10 -16 -6 -9 3 -12 2 -9 -5 4 -6 13 -8 20 -5 8 3 16 2 18 -2
2 -4 3 -2 1 4 -3 15 34 6 39 -10 2 -6 3 -3 1 8 -2 14 2 17 22 13 17 -3 24 0
21 7 -3 8 5 11 25 8 19 -3 33 1 39 9 7 11 9 10 9 -3 0 -10 4 -18 10 -18 8 0 5
20 -7 43 -2 4 -12 3 -21 -2 -11 -6 -20 -4 -30 7 -12 15 -13 15 -9 1z"/>
<path d="M1772 963 c-13 -5 -7 -23 9 -23 6 0 7 5 4 10 -3 6 -2 10 4 10 19 0
21 -19 4 -29 -16 -9 -16 -10 5 -11 13 0 21 -4 17 -10 -3 -5 -12 -7 -20 -3 -8
3 -15 0 -15 -6 0 -12 6 -13 36 -5 20 5 21 9 11 40 -10 33 -24 40 -55 27z"/>
<path d="M1394 949 c-3 -6 -1 -16 5 -22 8 -8 11 -5 11 11 0 24 -5 28 -16 11z"/>
<path d="M1735 950 c-3 -5 -1 -10 4 -10 6 0 11 5 11 10 0 6 -2 10 -4 10 -3 0
-8 -4 -11 -10z"/>
<path d="M1846 950 c-11 -3 -15 -9 -10 -13 10 -6 42 9 34 16 -3 3 -14 1 -24
-3z"/>
<path d="M617 935 c-4 -8 -2 -17 4 -20 5 -4 7 -9 5 -13 -2 -4 6 -7 19 -7 18 0
21 3 13 13 -6 6 -17 12 -24 12 -8 0 -11 6 -8 15 4 8 4 15 1 15 -3 0 -7 -7 -10
-15z"/>
<path d="M640 946 c0 -2 7 -6 15 -10 8 -3 15 -1 15 4 0 6 -7 10 -15 10 -8 0
-15 -2 -15 -4z"/>
<path d="M1425 940 c3 -5 8 -10 11 -10 2 0 4 5 4 10 0 6 -5 10 -11 10 -5 0 -7
-4 -4 -10z"/>
<path d="M1670 939 c0 -5 11 -9 25 -9 14 0 25 4 25 9 0 5 -11 9 -25 9 -14 0
-25 -4 -25 -9z"/>
<path d="M441 924 c0 -11 3 -14 6 -6 3 7 2 16 -1 19 -3 4 -6 -2 -5 -13z"/>
<path d="M462 915 c0 -16 2 -22 5 -12 2 9 2 23 0 30 -3 6 -5 -1 -5 -18z"/>
<path d="M1135 930 c3 -5 8 -10 11 -10 2 0 4 5 4 10 0 6 -5 10 -11 10 -5 0 -7
-4 -4 -10z"/>
<path d="M1190 930 c0 -5 5 -10 10 -10 6 0 10 5 10 10 0 6 -4 10 -10 10 -5 0
-10 -4 -10 -10z"/>
<path d="M1275 930 c3 -5 8 -10 11 -10 2 0 4 5 4 10 0 6 -5 10 -11 10 -5 0 -7
-4 -4 -10z"/>
<path d="M1610 930 c0 -5 5 -10 11 -10 5 0 7 5 4 10 -3 6 -8 10 -11 10 -2 0
-4 -4 -4 -10z"/>
<path d="M1645 930 c3 -5 8 -10 11 -10 2 0 4 5 4 10 0 6 -5 10 -11 10 -5 0 -7
-4 -4 -10z"/>
<path d="M88 923 c7 -3 16 -2 19 1 4 3 -2 6 -13 5 -11 0 -14 -3 -6 -6z"/>
<path d="M421 914 c0 -11 3 -14 6 -6 3 7 2 16 -1 19 -3 4 -6 -2 -5 -13z"/>
<path d="M1853 924 c-7 -3 -9 -12 -6 -20 3 -9 -1 -14 -12 -14 -9 0 -14 -4 -11
-9 12 -18 46 1 46 25 0 13 -1 24 -2 23 -2 0 -8 -3 -15 -5z"/>
<path d="M830 911 c0 -5 -8 -11 -17 -13 -15 -3 -15 -5 -3 -10 18 -7 45 18 30
27 -6 3 -10 2 -10 -4z"/>
<path d="M1005 910 c3 -5 8 -10 11 -10 2 0 4 5 4 10 0 6 -5 10 -11 10 -5 0 -7
-4 -4 -10z"/>
<path d="M1080 910 c0 -5 5 -10 11 -10 5 0 7 5 4 10 -3 6 -8 10 -11 10 -2 0
-4 -4 -4 -10z"/>
<path d="M1430 910 c0 -5 5 -10 10 -10 6 0 10 5 10 10 0 6 -4 10 -10 10 -5 0
-10 -4 -10 -10z"/>
<path d="M1494 902 c5 -16 2 -18 -24 -14 -18 2 -30 0 -30 -7 0 -6 7 -8 15 -5
8 4 15 1 15 -5 0 -10 -21 -16 -42 -12 -5 0 -8 -4 -8 -9 0 -6 6 -10 13 -9 6 1
26 1 43 0 37 -1 42 -27 7 -36 -21 -5 -23 -11 -23 -71 0 -46 3 -63 11 -58 9 5
10 -4 4 -32 -7 -42 -22 -67 -36 -59 -18 12 -58 -8 -68 -33 -16 -42 -17 -75 -3
-80 7 -2 11 0 10 5 -2 4 2 8 7 8 11 0 10 -6 0 -42 -6 -19 -2 -23 30 -29 26 -5
33 -9 23 -15 -10 -7 -10 -9 3 -9 12 0 18 11 21 35 3 27 1 34 -11 32 -8 -1 -17
6 -19 16 -3 12 3 17 21 17 14 0 27 -5 29 -11 2 -5 22 -13 44 -16 30 -4 45 -1
57 12 9 9 17 13 18 8 0 -4 5 3 10 16 6 15 15 21 24 17 8 -3 15 0 15 7 0 8 4 6
10 -3 5 -8 10 -10 10 -3 0 6 8 9 18 7 9 -2 31 0 47 5 25 8 18 9 -42 10 -67 1
-71 2 -66 22 4 14 9 17 16 10 13 -13 41 -15 33 -3 -2 4 23 7 57 6 54 -1 55 -1
10 3 -36 3 -53 8 -53 18 0 7 6 15 13 18 6 2 8 8 4 13 -5 5 -13 1 -18 -9 -6 -9
-15 -15 -20 -12 -5 4 -6 11 -3 17 4 6 2 8 -3 5 -6 -4 -19 5 -28 19 -14 22 -15
31 -6 52 10 20 9 28 -3 40 -14 14 -18 14 -36 -3 -20 -18 -20 -18 -20 3 0 16 6
22 21 22 21 0 21 0 -2 19 l-23 18 60 7 c134 15 145 18 131 32 -3 4 -20 2 -36
-4 -25 -9 -31 -8 -31 3 0 9 6 12 15 9 8 -4 15 -1 15 6 0 8 -9 10 -27 5 -44
-11 -85 -17 -121 -17 -26 0 -30 -3 -21 -14 9 -11 9 -14 0 -14 -6 0 -13 6 -15
13 -2 6 -6 19 -9 27 -8 28 -6 35 11 32 9 -2 14 -1 10 3 -3 3 -14 8 -25 10 -10
1 -17 8 -15 14 1 6 -3 11 -9 11 -6 0 -8 -8 -5 -18z m180 -72 c-16 -14 -104
-22 -104 -10 0 6 4 9 9 6 5 -4 18 -3 30 1 28 11 75 13 65 3z m-139 -100 c-5
-8 -11 -8 -17 -2 -6 6 -7 16 -3 22 5 8 11 8 17 2 6 -6 7 -16 3 -22z m65 -40
c0 -5 -7 -10 -15 -10 -8 0 -15 5 -15 10 0 6 7 10 15 10 8 0 15 -4 15 -10z
m-17 -27 c-7 -2 -13 -16 -13 -29 0 -13 -4 -24 -10 -24 -12 0 -12 2 0 34 5 14
15 26 22 25 10 0 10 -2 1 -6z m-63 -86 c0 -13 -5 -28 -12 -35 -9 -9 -9 -12 0
-12 7 0 12 -4 12 -10 0 -5 -9 -10 -20 -10 -21 0 -29 33 -10 45 6 3 10 12 10
18 0 7 -4 6 -10 -3 -11 -18 -23 -8 -14 14 10 25 44 20 44 -7z m36 -19 c-5 -59
-26 -62 -23 -4 1 29 7 46 14 46 9 0 12 -13 9 -42z m-110 -35 c-11 -11 -17 4
-9 23 7 18 8 18 11 1 2 -10 1 -21 -2 -24z"/>
<path d="M1680 910 c0 -5 5 -10 10 -10 6 0 10 5 10 10 0 6 -4 10 -10 10 -5 0
-10 -4 -10 -10z"/>
<path d="M2231 904 c0 -11 3 -14 6 -6 3 7 2 16 -1 19 -3 4 -6 -2 -5 -13z"/>
<path d="M481 894 c0 -11 3 -14 6 -6 3 7 2 16 -1 19 -3 4 -6 -2 -5 -13z"/>
<path d="M885 900 c3 -5 8 -10 11 -10 2 0 4 5 4 10 0 6 -5 10 -11 10 -5 0 -7
-4 -4 -10z"/>
<path d="M1113 898 c1 -8 -13 -11 -41 -11 -57 2 -45 -10 13 -12 38 -2 45 1 45
16 0 11 -4 19 -10 19 -5 0 -9 -5 -7 -12z"/>
<path d="M1170 900 c0 -5 5 -10 11 -10 5 0 7 5 4 10 -3 6 -8 10 -11 10 -2 0
-4 -4 -4 -10z"/>
<path d="M1220 900 c0 -5 5 -10 10 -10 6 0 10 5 10 10 0 6 -4 10 -10 10 -5 0
-10 -4 -10 -10z"/>
<path d="M1255 900 c3 -5 8 -10 11 -10 2 0 4 5 4 10 0 6 -5 10 -11 10 -5 0 -7
-4 -4 -10z"/>
<path d="M1285 900 c3 -5 8 -10 11 -10 2 0 4 5 4 10 0 6 -5 10 -11 10 -5 0 -7
-4 -4 -10z"/>
<path d="M1315 900 c3 -5 8 -10 11 -10 2 0 4 5 4 10 0 6 -5 10 -11 10 -5 0 -7
-4 -4 -10z"/>
<path d="M1340 900 c0 -5 5 -10 10 -10 6 0 10 5 10 10 0 6 -4 10 -10 10 -5 0
-10 -4 -10 -10z"/>
<path d="M1370 900 c0 -5 5 -10 10 -10 6 0 10 5 10 10 0 6 -4 10 -10 10 -5 0
-10 -4 -10 -10z"/>
<path d="M1405 900 c3 -5 8 -10 11 -10 2 0 4 5 4 10 0 6 -5 10 -11 10 -5 0 -7
-4 -4 -10z"/>
<path d="M1620 900 c0 -5 5 -10 10 -10 6 0 10 5 10 10 0 6 -4 10 -10 10 -5 0
-10 -4 -10 -10z"/>
<path d="M501 884 c0 -11 3 -14 6 -6 3 7 2 16 -1 19 -3 4 -6 -2 -5 -13z"/>
<path d="M960 889 c0 -5 10 -9 22 -9 12 0 18 3 14 7 -10 11 -36 12 -36 2z"/>
<path d="M1560 890 c0 -5 5 -10 10 -10 6 0 10 5 10 10 0 6 -4 10 -10 10 -5 0
-10 -4 -10 -10z"/>
<path d="M1590 889 c0 -5 5 -7 10 -4 6 3 10 8 10 11 0 2 -4 4 -10 4 -5 0 -10
-5 -10 -11z"/>
<path d="M1140 880 c0 -5 5 -10 10 -10 6 0 10 5 10 10 0 6 -4 10 -10 10 -5 0
-10 -4 -10 -10z"/>
<path d="M1690 879 c0 -5 5 -7 10 -4 6 3 10 8 10 11 0 2 -4 4 -10 4 -5 0 -10
-5 -10 -11z"/>
<path d="M1720 880 c0 -5 7 -7 15 -4 8 4 15 8 15 10 0 2 -7 4 -15 4 -8 0 -15
-4 -15 -10z"/>
<path d="M2038 883 c7 -3 16 -2 19 1 4 3 -2 6 -13 5 -11 0 -14 -3 -6 -6z"/>
<path d="M2343 872 c-3 -14 -12 -17 -46 -13 -23 2 -45 8 -48 13 -4 6 -6 -2 -6
-16 0 -14 3 -23 7 -21 4 3 11 -6 14 -20 4 -15 11 -22 20 -19 7 3 16 -2 19 -10
4 -10 1 -16 -8 -16 -8 0 -15 -6 -15 -14 0 -8 -6 -17 -12 -19 -10 -4 -10 -6 0
-6 6 -1 12 -10 12 -21 0 -19 -10 -24 -37 -21 -16 2 -17 -23 -3 -50 8 -14 21
-19 50 -19 37 0 45 7 41 33 -1 4 8 3 19 -3 22 -12 23 -12 20 48 -1 30 3 44 14
48 21 8 20 16 -4 44 -29 33 -21 44 31 45 136 3 179 6 179 14 0 5 -30 8 -67 7
-97 -4 -153 3 -153 20 0 20 -21 17 -27 -4z m-41 -224 c-5 -19 -32 -26 -32 -7
0 5 5 7 12 3 7 -5 9 -2 6 8 -4 8 -1 15 7 15 7 0 10 -8 7 -19z"/>
<path d="M1206 868 c3 -4 11 -5 19 -1 21 7 19 12 -4 10 -11 0 -18 -5 -15 -9z"/>
<path d="M1370 876 c0 -2 7 -6 15 -10 8 -3 15 -1 15 4 0 6 -7 10 -15 10 -8 0
-15 -2 -15 -4z"/>
<path d="M1630 869 c0 -5 5 -7 10 -4 6 3 10 8 10 11 0 2 -4 4 -10 4 -5 0 -10
-5 -10 -11z"/>
<path d="M2163 856 c0 -15 3 -23 7 -17 8 14 40 4 36 -12 -1 -7 -1 -9 1 -4 3 4
9 5 14 1 14 -8 11 6 -5 22 -8 8 -21 14 -29 14 -9 0 -17 6 -20 13 -2 6 -4 -1
-4 -17z"/>
<path d="M1020 860 c0 -5 5 -10 11 -10 5 0 7 5 4 10 -3 6 -8 10 -11 10 -2 0
-4 -4 -4 -10z"/>
<path d="M1570 860 c0 -5 5 -10 10 -10 6 0 10 5 10 10 0 6 -4 10 -10 10 -5 0
-10 -4 -10 -10z"/>
<path d="M1600 860 c0 -5 5 -10 10 -10 6 0 10 5 10 10 0 6 -4 10 -10 10 -5 0
-10 -4 -10 -10z"/>
<path d="M1735 860 c-3 -5 -1 -10 4 -10 6 0 11 5 11 10 0 6 -2 10 -4 10 -3 0
-8 -4 -11 -10z"/>
<path d="M1848 863 c-10 -3 -15 -10 -11 -19 3 -8 0 -14 -6 -14 -6 0 -11 5 -11
10 0 6 -5 10 -11 10 -6 0 -9 -6 -6 -14 4 -10 -2 -16 -16 -19 -12 -2 0 -4 26
-4 48 0 70 13 47 27 -9 6 -9 9 1 12 19 7 8 15 -13 11z"/>
<path d="M531 844 c0 -11 3 -14 6 -6 3 7 2 16 -1 19 -3 4 -6 -2 -5 -13z"/>
<path d="M905 841 c5 -17 3 -20 -11 -14 -12 4 -15 3 -10 -5 4 -7 14 -12 22
-12 8 0 14 -5 14 -11 0 -5 -4 -7 -10 -4 -5 3 -10 1 -10 -4 0 -7 23 -11 58 -10
31 0 50 3 42 6 -8 3 -18 11 -22 16 -10 17 -40 18 -34 1 3 -8 1 -14 -4 -14 -4
0 -11 13 -15 30 -4 16 -11 33 -17 36 -6 4 -8 -1 -3 -15z"/>
<path d="M1100 851 c0 -5 11 -8 25 -8 30 0 28 6 -4 12 -11 2 -21 0 -21 -4z"/>
<path d="M1180 850 c0 -5 5 -10 11 -10 5 0 7 5 4 10 -3 6 -8 10 -11 10 -2 0
-4 -4 -4 -10z"/>
<path d="M2062 840 c0 -14 2 -19 5 -12 2 6 2 18 0 25 -3 6 -5 1 -5 -13z"/>
<path d="M252 825 c0 -16 2 -22 5 -12 2 9 2 23 0 30 -3 6 -5 -1 -5 -18z"/>
<path d="M413 831 c-10 -16 -9 -22 3 -32 12 -10 13 -9 9 3 -4 9 0 15 9 15 8 0
12 -6 8 -15 -3 -10 -1 -13 6 -8 7 4 12 2 12 -5 0 -7 -11 -10 -30 -7 -17 3 -30
0 -31 -6 0 -6 -4 -2 -9 9 l-9 20 -1 -20 -1 -20 -9 20 c-7 17 -9 17 -9 3 -1
-21 -17 -24 -24 -5 -3 7 -6 5 -6 -6 -1 -15 8 -17 69 -15 48 1 71 6 75 15 2 8
9 11 15 8 5 -3 10 -1 10 5 0 7 -7 10 -15 6 -10 -3 -15 1 -15 12 0 20 -18 42
-35 42 -5 0 -16 -9 -22 -19z"/>
<path d="M556 831 c-5 -7 -3 -18 3 -24 14 -14 20 -6 11 17 -5 15 -9 16 -14 7z"/>
<path d="M700 836 c0 -2 7 -7 16 -10 8 -3 12 -2 9 4 -6 10 -25 14 -25 6z"/>
<path d="M1005 830 c3 -5 8 -10 11 -10 2 0 4 5 4 10 0 6 -5 10 -11 10 -5 0 -7
-4 -4 -10z"/>
<path d="M1030 828 c0 -6 7 -8 15 -4 9 3 15 0 15 -8 0 -9 -8 -12 -25 -8 -21 3
-24 1 -19 -12 4 -11 12 -15 23 -10 9 4 32 5 51 4 43 -3 73 -3 168 -1 53 1 71
4 66 13 -5 8 0 9 14 6 12 -4 22 -2 22 3 0 14 -48 11 -53 -3 -4 -10 -6 -10 -6
0 -1 6 -6 12 -12 12 -5 0 -7 -4 -4 -10 10 -17 -7 -11 -22 8 -14 16 -14 16 -9
0 3 -10 3 -18 -1 -18 -3 0 -12 8 -20 18 -14 16 -14 16 -9 0 3 -10 3 -18 -1
-18 -3 0 -12 8 -20 18 -14 16 -14 16 -9 0 5 -16 -2 -18 -44 -18 -38 0 -50 4
-50 15 0 8 -4 15 -10 15 -5 0 -7 -8 -4 -17 5 -15 3 -15 -10 1 -18 22 -46 30
-46 14z"/>
<path d="M1980 829 c0 -5 5 -7 10 -4 6 3 10 8 10 11 0 2 -4 4 -10 4 -5 0 -10
-5 -10 -11z"/>
<path d="M670 826 c0 -2 7 -7 16 -10 8 -3 12 -2 9 4 -6 10 -25 14 -25 6z"/>
<path d="M1110 820 c0 -4 16 -7 35 -8 19 -1 35 2 35 7 0 5 -16 8 -35 8 -19 -1
-35 -4 -35 -7z"/>
<path d="M1383 823 c-7 -2 -13 -9 -13 -15 0 -6 6 -8 14 -5 7 3 19 0 26 -6 9
-9 11 -8 8 7 -3 21 -16 27 -35 19z"/>
<path d="M1430 818 c0 -4 12 -8 26 -8 14 0 23 4 19 9 -6 11 -45 10 -45 -1z"/>
<path d="M1948 823 c7 -3 16 -2 19 1 4 3 -2 6 -13 5 -11 0 -14 -3 -6 -6z"/>
<path d="M760 811 c0 -6 -8 -11 -17 -11 -11 -1 -6 -6 12 -14 25 -11 31 -11 38
1 5 8 6 17 3 20 -3 4 -6 1 -6 -5 0 -7 -8 -12 -17 -12 -14 0 -15 2 -4 9 9 6 10
11 2 15 -6 4 -11 2 -11 -3z"/>
<path d="M831 803 c12 -15 12 -16 -3 -11 -9 4 -19 1 -22 -7 -4 -11 0 -12 17
-6 12 4 32 6 45 5 23 -1 30 10 12 21 -5 3 -10 1 -10 -4 0 -6 -5 -11 -11 -11
-5 0 -7 5 -3 12 4 7 3 8 -4 4 -7 -4 -12 -2 -12 3 0 6 -5 11 -11 11 -8 0 -7 -6
2 -17z"/>
<path d="M2020 791 c0 -16 -6 -32 -12 -34 -9 -4 -8 -6 2 -6 8 -1 21 -10 28
-21 7 -11 9 -20 5 -19 -22 4 -33 -3 -33 -18 1 -17 1 -17 10 -1 10 17 50 14 50
-4 0 -5 -4 -7 -9 -4 -5 3 -8 0 -8 -7 0 -6 -3 -27 -8 -44 -10 -41 -30 -44 -22
-3 4 16 2 32 -3 35 -6 4 -10 -14 -10 -44 0 -27 3 -52 8 -54 4 -3 25 -7 47 -8
36 -3 40 -1 39 19 0 12 4 22 10 22 6 0 5 4 -2 9 -12 7 -11 14 2 39 9 17 22 35
29 39 33 20 65 103 39 103 -10 0 -37 -62 -34 -77 2 -7 2 -13 0 -13 -2 0 -17
-4 -34 -9 l-30 -8 0 46 c1 44 0 46 -27 44 -24 -2 -26 1 -21 23 4 14 2 24 -5
24 -6 0 -11 -13 -11 -29z"/>
<path d="M2227 799 c7 -7 15 -10 18 -7 3 3 -2 9 -12 12 -14 6 -15 5 -6 -5z"/>
<path d="M263 783 c-25 -5 -32 -33 -8 -33 8 0 15 6 15 13 0 8 4 7 10 -3 8 -12
10 -11 10 8 0 12 -1 21 -2 21 -2 -1 -13 -4 -25 -6z"/>
<path d="M300 774 c0 -8 5 -12 10 -9 6 3 10 10 10 16 0 5 -4 9 -10 9 -5 0 -10
-7 -10 -16z"/>
<path d="M1363 769 c-13 -5 -23 -13 -23 -19 0 -12 38 -4 53 10 14 12 -6 18
-30 9z"/>
<path d="M838 753 c7 -3 16 -2 19 1 4 3 -2 6 -13 5 -11 0 -14 -3 -6 -6z"/>
<path d="M527 726 c-17 -13 -17 -14 1 -18 12 -4 18 1 19 13 2 22 3 22 -20 5z"/>
<path d="M202 685 c0 -16 2 -22 5 -12 2 9 2 23 0 30 -3 6 -5 -1 -5 -18z"/>
<path d="M560 698 c0 -7 -3 -24 -6 -38 -4 -18 -3 -21 4 -10 17 27 24 60 13 60
-6 0 -11 -6 -11 -12z"/>
<path d="M411 673 c1 -45 14 -108 22 -105 28 9 33 -19 12 -70 -4 -9 -3 -23 1
-30 6 -9 13 4 20 37 7 28 13 40 13 28 1 -13 6 -23 11 -23 6 0 9 3 9 8 -3 17 2
32 10 32 6 0 6 -12 1 -30 -6 -20 -5 -30 2 -30 6 0 8 -3 5 -6 -4 -4 3 -20 15
-36 11 -17 17 -33 12 -37 -5 -3 -10 -18 -12 -33 -3 -26 -2 -27 28 -17 17 6 37
8 46 5 8 -3 13 -2 10 3 -3 4 19 12 49 18 35 6 55 6 55 0 0 -5 7 -4 15 3 8 7
15 9 15 4 0 -4 5 -3 12 4 7 7 23 12 36 12 16 0 21 4 15 13 -4 6 5 4 21 -6 15
-10 30 -16 34 -13 3 3 0 6 -6 6 -16 0 -15 30 1 31 83 8 117 7 117 -1 0 -12
-12 -14 -62 -11 -25 2 -38 -2 -38 -10 0 -8 15 -10 54 -6 30 3 57 2 59 -1 2 -4
2 -1 1 6 -4 15 28 16 42 2 7 -7 22 -2 48 15 20 14 42 25 49 25 8 0 6 -4 -3
-11 -11 -8 -4 -9 25 -4 92 13 129 14 136 4 9 -15 49 -2 49 16 0 11 -46 13
-245 13 -135 -1 -245 -5 -245 -10 0 -4 -12 -8 -26 -8 -18 0 -23 4 -17 13 4 6
-6 4 -21 -7 -23 -14 -30 -15 -37 -5 -6 11 -12 10 -28 -5 -11 -10 -26 -16 -33
-13 -7 2 -22 0 -32 -6 -16 -8 -18 -6 -13 7 8 19 -8 21 -27 4 -10 -10 -10 -15
-2 -23 6 -5 9 -9 7 -8 -2 1 -12 -2 -22 -8 -15 -8 -17 -6 -12 8 5 12 2 15 -10
10 -12 -5 -17 -1 -17 13 0 10 -5 22 -10 25 -6 4 -8 10 -5 15 3 5 1 11 -3 14
-9 5 -9 74 -1 106 2 9 -3 15 -13 15 -9 0 -20 4 -24 8 -4 4 -22 7 -41 7 -33 0
-37 5 -33 48 1 12 -3 22 -9 22 -6 0 -11 -12 -10 -27z m659 -232 c-24 -19 -40
-19 -40 -1 0 9 22 17 50 19 9 0 6 -7 -10 -18z m-500 -51 c0 -5 -5 -10 -11 -10
-5 0 -7 5 -4 10 3 6 8 10 11 10 2 0 4 -4 4 -10z"/>
<path d="M1432 670 c0 -14 2 -19 5 -12 2 6 2 18 0 25 -3 6 -5 1 -5 -13z"/>
<path d="M1707 663 c-4 -3 -7 -11 -7 -17 0 -6 5 -5 12 2 6 6 9 14 7 17 -3 3
-9 2 -12 -2z"/>
<path d="M1382 643 c9 -2 19 -12 21 -21 3 -12 5 -10 6 6 1 17 -4 22 -21 21
-16 -1 -18 -3 -6 -6z"/>
<path d="M2455 621 c-11 -5 -25 -6 -31 -4 -7 2 -15 0 -19 -6 -4 -7 1 -9 12 -5
16 5 16 4 -1 -10 -11 -9 -15 -16 -9 -16 16 0 73 33 73 43 0 4 -1 7 -2 6 -2 0
-12 -4 -23 -8z"/>
<path d="M1268 603 c6 -2 18 -2 25 0 6 3 1 5 -13 5 -14 0 -19 -2 -12 -5z"/>
<path d="M1768 603 c7 -3 16 -2 19 1 4 3 -2 6 -13 5 -11 0 -14 -3 -6 -6z"/>
<path d="M793 592 c-7 -4 -9 -13 -4 -21 6 -9 10 -7 14 8 3 12 4 21 4 21 -1 0
-7 -4 -14 -8z"/>
<path d="M1945 590 c-3 -5 -1 -10 4 -10 6 0 11 5 11 10 0 6 -2 10 -4 10 -3 0
-8 -4 -11 -10z"/>
<path d="M1120 581 c-8 -6 -17 -8 -21 -5 -4 2 -10 0 -14 -6 -4 -6 6 -10 25
-10 17 0 29 4 26 9 -4 5 0 12 6 14 7 3 9 6 3 6 -5 0 -17 -3 -25 -8z"/>
<path d="M1195 581 c3 -5 -3 -12 -12 -14 -17 -4 -17 -5 0 -6 10 0 25 6 33 14
14 13 13 15 -6 15 -12 0 -19 -4 -15 -9z"/>
<path d="M1298 583 c7 -3 16 -2 19 1 4 3 -2 6 -13 5 -11 0 -14 -3 -6 -6z"/>
<path d="M656 564 c-8 -20 -8 -24 2 -24 4 0 8 9 9 20 2 24 -3 26 -11 4z"/>
<path d="M1028 573 c7 -3 16 -2 19 1 4 3 -2 6 -13 5 -11 0 -14 -3 -6 -6z"/>
<path d="M1844 571 c3 -5 15 -7 26 -4 28 7 25 13 -6 13 -14 0 -23 -4 -20 -9z"/>
<path d="M567 540 c3 -11 7 -20 9 -20 2 0 4 9 4 20 0 11 -4 20 -9 20 -5 0 -7
-9 -4 -20z"/>
<path d="M609 551 c11 -7 10 -10 -5 -14 -16 -4 -16 -5 3 -6 27 -1 39 15 17 23
-23 9 -31 7 -15 -3z"/>
<path d="M2129 552 c-14 -6 -15 -9 -3 -20 12 -11 14 -10 14 3 0 9 5 13 10 10
6 -3 10 -1 10 4 0 12 -7 13 -31 3z"/>
<path d="M2170 550 c0 -5 7 -7 15 -4 8 4 15 8 15 10 0 2 -7 4 -15 4 -8 0 -15
-4 -15 -10z"/>
<path d="M2211 553 c-1 -7 -16 -17 -33 -23 l-33 -10 34 5 c18 3 42 5 52 5 13
0 16 5 12 16 -4 11 -8 12 -13 4 -6 -9 -9 -9 -13 1 -4 10 -6 10 -6 2z"/>
<path d="M842 543 c-19 -4 -21 -7 -12 -19 10 -12 15 -12 33 1 16 11 36 13 72
9 37 -4 46 -3 35 5 -15 11 -83 13 -128 4z"/>
<path d="M2342 543 c9 -2 20 -14 24 -25 6 -20 7 -20 16 -3 12 20 -5 35 -37 34
-16 -1 -17 -2 -3 -6z"/>
<path d="M1136 526 c8 -20 32 -24 84 -16 25 4 36 9 25 10 -11 2 0 6 25 10 43
7 43 8 -17 7 -38 0 -63 -5 -63 -11 0 -6 -5 -4 -10 4 -9 13 -10 13 -10 0 0 -9
-3 -11 -8 -5 -11 16 -32 16 -26 1z"/>
<path d="M1961 513 c-1 -14 5 -23 14 -23 9 0 15 9 14 23 0 21 -1 21 -8 2 l-8
-20 -5 20 c-5 18 -6 18 -7 -2z"/>
<path d="M2325 520 c-3 -5 -12 -7 -19 -4 -10 4 -13 -6 -13 -37 0 -25 -6 -47
-14 -53 -10 -7 -13 -21 -9 -41 6 -32 2 -65 -9 -65 -3 0 -37 -7 -75 -14 -63
-14 -71 -13 -81 1 -11 14 -13 14 -27 -5 -12 -18 -96 -47 -106 -37 -9 8 24 82
49 110 25 28 47 91 28 79 -5 -3 -9 -12 -9 -20 0 -24 -51 -86 -66 -80 -19 7
-37 -61 -23 -86 9 -17 17 -18 52 -12 23 4 56 8 72 9 66 3 76 5 70 15 -3 5 0 8
7 5 7 -3 36 -1 63 5 28 6 57 11 65 11 8 0 39 -1 68 -1 55 -1 132 18 132 32 0
4 10 8 23 9 12 0 38 6 57 14 l35 12 -40 7 c-22 4 -50 11 -62 16 -14 6 -25 6
-28 0 -4 -6 1 -10 11 -10 13 0 14 -3 4 -15 -7 -8 -19 -15 -26 -15 -8 0 -14 7
-14 15 0 8 -4 15 -9 15 -5 0 -11 13 -14 29 -9 44 -33 63 -60 48 -29 -16 -37
-27 -37 -56 0 -18 -3 -22 -11 -14 -7 7 -9 29 -4 64 7 48 9 51 21 34 13 -17 14
-16 14 13 0 33 -4 39 -15 22z m39 -152 c1 -18 5 -39 10 -46 4 -6 2 -12 -3 -12
-6 0 -11 5 -11 11 0 7 -11 8 -30 4 -24 -5 -30 -3 -30 10 0 9 4 14 9 11 4 -3
14 13 21 35 15 45 32 39 34 -13z m163 -4 c-3 -3 -12 -4 -19 -1 -8 3 -5 6 6 6
11 1 17 -2 13 -5z m-102 -34 c3 -5 1 -10 -4 -10 -6 0 -11 5 -11 10 0 6 2 10 4
10 3 0 8 -4 11 -10z"/>
<path d="M1867 514 c-8 -8 1 -24 14 -24 5 0 9 7 9 15 0 15 -12 20 -23 9z"/>
<path d="M1028 503 c7 -3 16 -2 19 1 4 3 -2 6 -13 5 -11 0 -14 -3 -6 -6z"/>
<path d="M2084 464 c-18 -15 -18 -15 3 -9 22 6 23 5 19 -62 -2 -45 -1 -59 4
-40 8 26 13 84 11 115 -1 16 -13 15 -37 -4z"/>
<path d="M408 465 c-4 -4 -4 -20 -1 -36 3 -19 1 -29 -6 -29 -7 0 -9 6 -6 13 4
6 -1 3 -10 -8 -9 -11 -21 -19 -26 -17 -15 4 -10 -15 6 -22 9 -3 15 0 15 8 0 9
7 12 21 9 12 -3 18 -11 15 -19 -6 -16 56 -19 89 -3 16 7 14 9 -13 6 -22 -3
-31 0 -28 8 3 8 -4 10 -19 7 -22 -4 -24 0 -27 43 -2 26 -6 44 -10 40z"/>
<path d="M1625 437 c-11 -7 -22 -21 -23 -32 -2 -11 -10 -27 -18 -36 -8 -9 -11
-19 -8 -22 4 -4 -1 -10 -11 -13 -11 -5 -22 -1 -30 10 -11 15 -13 14 -19 -6
l-7 -23 -9 23 c-5 12 -14 22 -20 22 -6 0 -8 -5 -5 -10 3 -6 -1 -13 -9 -16 -9
-3 -16 -17 -16 -30 0 -22 -3 -24 -31 -19 -25 5 -30 3 -26 -9 5 -12 0 -14 -25
-9 -24 5 -29 3 -23 -7 6 -9 26 -11 77 -6 42 4 67 3 64 -3 -4 -5 -1 -33 5 -61
l11 -52 42 5 c22 2 91 15 151 27 61 12 120 24 133 26 12 3 22 10 22 17 0 16
-90 5 -197 -24 -94 -25 -112 -25 -110 1 1 11 1 20 2 21 0 0 34 4 75 9 41 4
102 16 135 25 33 9 78 20 100 25 22 4 36 9 30 10 -5 1 1 6 15 11 45 15 -91 -2
-170 -21 -57 -15 -76 -16 -82 -7 -14 22 -3 40 32 53 l35 12 -32 1 c-28 1 -33
5 -33 25 0 21 7 26 50 35 28 6 65 11 83 11 47 0 66 16 29 23 -16 3 -38 4 -48
2 -10 -2 -40 -6 -66 -9 -40 -5 -47 -3 -50 14 -3 16 -6 17 -23 7z m11 -121 c-4
-25 -11 -46 -17 -46 -5 0 -9 -6 -9 -14 0 -17 -5 -21 -42 -30 -37 -9 -35 2 9
48 29 30 34 39 22 46 -11 7 -11 12 -1 22 6 6 12 24 12 38 0 15 3 30 8 34 13
14 25 -51 18 -98z m-106 -18 c0 -5 7 -2 16 7 9 9 19 13 23 10 3 -4 -6 -17 -21
-29 -16 -12 -28 -28 -29 -36 0 -8 -5 -3 -11 13 -6 18 -17 27 -31 27 -21 1 -21
1 -4 14 19 15 57 10 57 -6z"/>
<path d="M1820 440 c0 -5 5 -10 10 -10 6 0 10 5 10 10 0 6 -4 10 -10 10 -5 0
-10 -4 -10 -10z"/>
<path d="M460 426 c0 -2 6 -9 13 -15 10 -8 14 -7 14 4 0 8 -6 15 -14 15 -7 0
-13 -2 -13 -4z"/>
<path d="M510 419 c0 -5 5 -7 10 -4 6 3 10 8 10 11 0 2 -4 4 -10 4 -5 0 -10
-5 -10 -11z"/>
<path d="M1307 423 c-11 -10 -8 -20 6 -20 6 0 19 -3 27 -5 8 -3 12 -3 8 -1 -5
3 -8 11 -8 19 0 14 -21 19 -33 7z"/>
<path d="M1265 410 c-3 -5 1 -10 9 -10 9 0 16 5 16 10 0 6 -4 10 -9 10 -6 0
-13 -4 -16 -10z"/>
<path d="M285 366 l-40 -13 37 1 c21 0 38 5 38 9 0 5 5 5 10 2 6 -3 10 -1 10
4 0 13 -4 13 -55 -3z"/>
<path d="M1135 370 c-3 -5 -1 -10 4 -10 6 0 11 5 11 10 0 6 -2 10 -4 10 -3 0
-8 -4 -11 -10z"/>
<path d="M1402 369 c2 -7 10 -15 17 -17 8 -3 12 1 9 9 -2 7 -10 15 -17 17 -8
3 -12 -1 -9 -9z"/>
<path d="M1058 363 c12 -2 30 -2 40 0 9 3 -1 5 -23 4 -22 0 -30 -2 -17 -4z"/>
<path d="M1190 320 c0 -5 5 -10 11 -10 5 0 7 5 4 10 -3 6 -8 10 -11 10 -2 0
-4 -4 -4 -10z"/>
<path d="M1258 323 c7 -3 16 -2 19 1 4 3 -2 6 -13 5 -11 0 -14 -3 -6 -6z"/>
<path d="M710 270 c0 -5 5 -10 11 -10 5 0 7 5 4 10 -3 6 -8 10 -11 10 -2 0 -4
-4 -4 -10z"/>
<path d="M1138 268 c-4 -10 -17 -18 -28 -18 -11 0 -20 -4 -20 -10 0 -12 15
-13 59 -4 17 4 31 10 31 15 0 5 -6 6 -14 3 -9 -3 -16 2 -18 13 -3 17 -4 17
-10 1z"/>
<path d="M2228 263 c7 -3 16 -2 19 1 4 3 -2 6 -13 5 -11 0 -14 -3 -6 -6z"/>
<path d="M1290 190 c0 -5 5 -10 10 -10 6 0 10 5 10 10 0 6 -4 10 -10 10 -5 0
-10 -4 -10 -10z"/>
<path d="M1458 143 c6 -2 18 -2 25 0 6 3 1 5 -13 5 -14 0 -19 -2 -12 -5z"/>
<path d="M1530 80 c20 -13 33 -13 25 0 -3 6 -14 10 -23 10 -15 0 -15 -2 -2
-10z"/>
<path d="M905 60 c-3 -5 3 -10 15 -10 12 0 18 5 15 10 -3 6 -10 10 -15 10 -5
0 -12 -4 -15 -10z"/>
<path d="M1328 43 c7 -3 16 -2 19 1 4 3 -2 6 -13 5 -11 0 -14 -3 -6 -6z"/>
<path d="M903 33 c9 -2 23 -2 30 0 6 3 -1 5 -18 5 -16 0 -22 -2 -12 -5z"/>
<path d="M1188 23 c6 -2 18 -2 25 0 6 3 1 5 -13 5 -14 0 -19 -2 -12 -5z"/>
<path d="M1268 23 c6 -2 18 -2 25 0 6 3 1 5 -13 5 -14 0 -19 -2 -12 -5z"/>
<path d="M1328 23 c6 -2 18 -2 25 0 6 3 1 5 -13 5 -14 0 -19 -2 -12 -5z"/>
</g>
</svg>
